<?xml version="1.0" standalone="no"?>
<!DOCTYPE svg PUBLIC "-//W3C//DTD SVG 1.1//EN" "http://www.w3.org/Graphics/SVG/1.1/DTD/svg11.dtd" >
<svg xmlns="http://www.w3.org/2000/svg" xmlns:xlink="http://www.w3.org/1999/xlink" version="1.1">
<metadata>
Created by FontForge 20190801 at Fri Oct  2 04:59:00 2020
 By www-data
Copyright 2019 The Big Shoulders Project Authors (https://github.com/xotypeco/big_shoulders)
</metadata>
<defs>
<font id="BigShouldersDisplayBold" horiz-adv-x="797" >
  <font-face 
    font-family="BigShouldersDisplayBold"
    font-weight="700"
    font-stretch="normal"
    units-per-em="2000"
    panose-1="0 0 0 0 0 0 0 0 0 0"
    ascent="1600"
    descent="-400"
    x-height="1200"
    cap-height="1600"
    bbox="-511 -657 2155 2355"
    underline-thickness="40"
    underline-position="-100"
    unicode-range="U+0020-FB02"
  />
<missing-glyph horiz-adv-x="1272" 
d="M93 0v1600h1087v-1600h-1087zM637 1016l196 392h-393zM309 401l201 398l-201 397v-795zM963 402v793l-200 -397zM442 192h389l-194 390z" />
    <glyph glyph-name="fi" unicode="fi" horiz-adv-x="978" 
d="M132 0v1034h-114v166h114v120q-1 160 78.5 229.5t249.5 69.5q30 0 66 -4t67 -10v-160q-67 4 -132 4q-114 0 -113 -113v-136h204v-166h-204v-1034h-216zM646 1407v193h255v-193h-255zM667 0v1200h216v-1200h-216z" />
    <glyph glyph-name="fl" unicode="fl" horiz-adv-x="982" 
d="M132 0v1034h-114v166h114v120q-1 160 78.5 229.5t249.5 69.5q30 0 66 -4t67 -10v-160q-67 4 -132 4q-114 0 -113 -113v-136h204v-166h-204v-1034h-216zM671 0v1600h216v-1600h-216z" />
    <glyph glyph-name="f_f" unicode="ff" horiz-adv-x="1126" 
d="M132 0l-1 1034h-113v166h113v120q0 160 79.5 229.5t249.5 69.5q30 0 66 -4t67 -10v-160q-67 4 -132 4q-114 0 -114 -113v-136h336v118q0 160 79.5 229.5t248.5 69.5q31 0 67 -3.5t67 -9.5v-160q-32 2 -65 2.5t-67 0.5q-114 0 -114 -113v-134h205v-166h-205l1 -1036h-217
v1036h-336l1 -1034h-216z" />
    <glyph glyph-name="f_f_i" unicode="ffi" horiz-adv-x="1530" 
d="M132 0l-1 1034h-113v166h113v120q0 160 79.5 229.5t249.5 69.5q30 0 66 -4t67 -10v-160q-67 4 -132 4q-114 0 -114 -113v-136h336v118q0 160 79.5 229.5t248.5 69.5q31 0 67 -3.5t67 -9.5v-160q-32 2 -65 2.5t-67 0.5q-114 0 -114 -113v-134h205v-166h-205l1 -1036h-217
v1036h-336l1 -1034h-216zM1198 1407v193h255v-193h-255zM1219 0v1200h216v-1200h-216z" />
    <glyph glyph-name="f_f_l" unicode="ffl" horiz-adv-x="1534" 
d="M132 0l-1 1034h-113v166h113v120q0 160 79.5 229.5t249.5 69.5q30 0 66 -4t67 -10v-160q-67 4 -132 4q-114 0 -114 -113v-136h336v118q0 160 79.5 229.5t248.5 69.5q31 0 67 -3.5t67 -9.5v-160q-32 2 -65 2.5t-67 0.5q-114 0 -114 -113v-134h205v-166h-205l1 -1036h-217
v1036h-336l1 -1034h-216zM1222 0v1600h216v-1600h-216z" />
    <glyph glyph-name=".notdef" horiz-adv-x="1272" 
d="M93 0v1600h1087v-1600h-1087zM637 1016l196 392h-393zM309 401l201 398l-201 397v-795zM963 402v793l-200 -397zM442 192h389l-194 390z" />
    <glyph glyph-name=".null" horiz-adv-x="0" 
 />
    <glyph glyph-name="nonmarkingreturn" horiz-adv-x="666" 
 />
    <glyph glyph-name="space" unicode=" " horiz-adv-x="427" 
 />
    <glyph glyph-name="exclam" unicode="!" horiz-adv-x="455" 
d="M149 378l-31 831v391h219v-391l-30 -831h-158zM86 0v229h282v-229h-282z" />
    <glyph glyph-name="quotedbl" unicode="&#x22;" horiz-adv-x="672" 
d="M126 1111l-40 250v239h183v-239l-39 -250h-104zM442 1111l-39 250v239h182v-239l-39 -250h-104z" />
    <glyph glyph-name="numbersign" unicode="#" horiz-adv-x="1297" 
d="M144 0l104 432h-188l44 178h180l95 365h-188l43 179h182l110 446h215l-110 -446h200l111 446h215l-111 -446h189l-41 -179h-184l-95 -365h186l-44 -178h-179l-103 -432h-215l103 432h-200l-104 -432h-215zM499 610h202l94 365h-201z" />
    <glyph glyph-name="dollar" unicode="$" horiz-adv-x="815" 
d="M312 -202v192q-125 18 -180.5 96t-61.5 230q-2 70 -1.5 136t6.5 137h204q-4 -81 -4.5 -160.5t4.5 -150.5q4 -59 35 -87.5t95 -28.5q63 0 91 28.5t34 87.5q5 68 4.5 123.5t-4.5 127.5q-4 59 -24 101t-73 56l-134 34q-136 35 -185 118.5t-54 227.5q-1 54 -0.5 110t1.5 111
q5 152 61 228.5t186 94.5v209h190v-209q122 -18 179 -95.5t63 -228.5q1 -50 0.5 -121t-3.5 -142h-208q3 75 4 150.5t-2 150.5q-5 115 -127 115q-64 0 -93 -29t-34 -86q-5 -64 -4.5 -129t4.5 -129q4 -65 25 -103.5t76 -52.5l121 -29q142 -34 192.5 -121t55.5 -231
q2 -63 1.5 -109t-2.5 -104q-6 -154 -63.5 -232t-184.5 -96v-190h-190z" />
    <glyph glyph-name="percent" unicode="%" horiz-adv-x="1178" 
d="M293 868q-97 0 -151.5 52.5t-57.5 149.5q-5 165 0 339q3 95 56.5 147t152.5 52t152.5 -52t58.5 -147q6 -174 0 -339q-5 -96 -58.5 -149t-152.5 -53zM103 0l830 1600h152l-831 -1600h-151zM293 995q48 0 54 49q4 48 5 119.5t0 144.5t-5 126q-1 20 -14.5 33.5t-39.5 13.5
q-25 0 -38.5 -14t-14.5 -33q-3 -53 -4.5 -126t0 -144t4.5 -120q2 -18 15 -33.5t38 -15.5zM853 -10q-97 0 -151.5 52.5t-57.5 149.5q-5 165 0 339q3 95 56.5 147t152.5 52t152.5 -52t58.5 -147q6 -174 0 -339q-5 -96 -58.5 -149t-152.5 -53zM853 117q48 0 54 49q4 48 5 119.5
t0 144.5t-5 126q-1 20 -14.5 33.5t-39.5 13.5q-25 0 -38.5 -14t-14.5 -33q-3 -53 -4.5 -126t0 -144t4.5 -120q2 -18 15 -33.5t38 -15.5z" />
    <glyph glyph-name="ampersand" unicode="&#x26;" horiz-adv-x="1088" 
d="M453 -17q-183 0 -265 77.5t-89 254.5q-1 62 -1 97.5t2 71.5t6 98q5 106 49.5 173t102.5 120q-45 104 -73.5 204.5t-34.5 191.5q-17 159 57 252.5t244 93.5q166 0 239 -85.5t59 -248.5q-16 -226 -197 -411q-10 -11 -21.5 -23t-22.5 -24q32 -63 67.5 -126t73.5 -123
q-2 53 -6.5 112.5t-11.5 120.5l175 1q8 -66 13 -147t6 -163.5t-3 -152.5q50 -67 94.5 -123t78.5 -96l-141 -132q-26 31 -52.5 63t-53.5 67q-39 -75 -110.5 -109t-184.5 -34zM418 996q75 76 106.5 147.5t36.5 139.5q12 89 -12 137t-98 48q-63 0 -87.5 -45.5t-21.5 -117.5
q1 -68 22 -147t54 -162zM459 159q76 0 107.5 34.5t41.5 106.5q-66 90 -129.5 187t-118.5 196q-16 -22 -28.5 -50t-16.5 -62q-4 -37 -6.5 -70.5t-2.5 -77.5t2 -114q7 -150 151 -150z" />
    <glyph glyph-name="quotesingle" unicode="'" horiz-adv-x="356" 
d="M126 1111l-40 250v239h183v-239l-39 -250h-104z" />
    <glyph glyph-name="parenleft" unicode="(" horiz-adv-x="525" 
d="M308 -400q-76 121 -132 282t-86 346t-30 379q0 176 27 357.5t81.5 346t139.5 289.5h157q-91 -228 -138 -486.5t-47 -513.5t47 -516t138 -484h-157z" />
    <glyph glyph-name="parenright" unicode=")" horiz-adv-x="525" 
d="M217 -400q76 121 132 282t86 346t30 379q0 176 -27 357.5t-81.5 346t-139.5 289.5h-157q91 -228 138 -486.5t47 -513.5t-47 -516t-138 -484h157z" />
    <glyph glyph-name="asterisk" unicode="*" horiz-adv-x="509" 
d="M44 1325l137 67l-137 67l47 82l126 -85l-10 152h95l-11 -151l127 84l48 -82l-137 -67l137 -67l-48 -82l-127 86l11 -153h-95l10 151l-126 -84z" />
    <glyph glyph-name="plus" unicode="+" horiz-adv-x="975" 
d="M406 350v313h-313v164h313v313h164v-313h312v-164h-312v-313h-164z" />
    <glyph glyph-name="comma" unicode="," horiz-adv-x="456" 
d="M121 -244l100 244h-135v232h284v-210l-130 -266h-119z" />
    <glyph glyph-name="hyphen" unicode="-" horiz-adv-x="763" 
d="M60 642v192h643v-192h-643z" />
    <glyph glyph-name="period" unicode="." horiz-adv-x="455" 
d="M86 0v229h282v-229h-282z" />
    <glyph glyph-name="slash" unicode="/" horiz-adv-x="736" 
d="M60 -400l400 2000h216l-400 -2000h-216z" />
    <glyph glyph-name="zero" unicode="0" horiz-adv-x="879" 
d="M439 -17q-163 0 -251.5 86t-91.5 245q-4 235 -4 486.5t4 486.5q3 160 91.5 245t251.5 85q161 0 249 -85t92 -245q6 -236 6 -487.5t-6 -485.5q-4 -159 -92 -245t-249 -86zM439 162q120 0 125 114q8 271 8 542.5t-8 506.5q-3 114 -125 114q-123 0 -126 -114
q-7 -268 -7 -539t7 -510q3 -114 126 -114z" />
    <glyph glyph-name="one" unicode="1" horiz-adv-x="473" 
d="M164 0v1395h-85l-6 80l136 125h171v-1600h-216z" />
    <glyph glyph-name="two" unicode="2" horiz-adv-x="848" 
d="M98 0q-1 67 -2 108.5t-1 85.5t1 119q4 182 70 291t186 183l111 70q62 44 80.5 99.5t20.5 107.5q7 130 0 260q-4 57 -34.5 86t-96.5 29q-119 0 -122 -115q-2 -75 -2 -150.5t3 -150.5h-214q-2 67 -3.5 138.5t0.5 124.5q7 177 85.5 254t253.5 77q185 0 262 -76.5t84 -253.5
q2 -49 2.5 -112t-1.5 -111q-6 -144 -65 -235.5t-173 -164.5l-124 -77q-58 -40 -81.5 -118.5t-23.5 -155.5v-121h452v-192h-668z" />
    <glyph glyph-name="three" unicode="3" horiz-adv-x="873" 
d="M428 -17q-185 0 -268 77.5t-88 255.5q-2 59 -2 105.5t2 120.5h216v-253q0 -127 135 -127q130 0 132 127q3 72 3 154t-3 150q-3 69 -33 109.5t-117 39.5l-150 -1l-7 182l272 485h-436v192h684l-3 -183l-281 -487q147 -11 213.5 -90t73.5 -245q5 -166 0 -279
q-7 -178 -86.5 -255.5t-256.5 -77.5z" />
    <glyph glyph-name="four" unicode="4" horiz-adv-x="896" 
d="M479 0v446h-419v179l327 975h295v-964h156v-190h-156v-446h-203zM268 636h211l27 401l25 371h-47l-98 -371z" />
    <glyph glyph-name="five" unicode="5" horiz-adv-x="892" 
d="M450 -17q-186 0 -268.5 77.5t-87.5 255.5q-2 64 -2 116.5t3 109.5h216q-4 -58 -4 -130t3 -123q5 -64 36 -95.5t98 -31.5q66 0 97 31.5t35 95.5q7 108 8 209.5t-6 204.5q-6 116 -121 116q-63 0 -99.5 -31.5t-37.5 -86.5h-206v899h662v-192h-446v-508h38q22 42 70.5 71
t115.5 29q118 0 176 -77.5t65 -215.5q9 -208 -2 -391q-16 -178 -91.5 -255.5t-251.5 -77.5z" />
    <glyph glyph-name="six" unicode="6" horiz-adv-x="865" 
d="M434 -17q-179 0 -258 77t-80 255q-2 186 -3 366t-0.5 335.5t3.5 268.5q7 170 93.5 250.5t242.5 80.5q330 0 343 -331v-92t-2 -96h-214q3 54 3 103.5t-3 122.5q-3 56 -31.5 85.5t-92.5 29.5q-120 0 -123 -115q-6 -194 -6 -439h42q22 43 73.5 71t119.5 28q136 0 188 -68
t55 -224q2 -105 2 -195.5t-3 -180.5q-9 -178 -88.5 -255t-260.5 -77zM436 161q128 0 131 116q3 114 3 214t-2 195q-3 117 -121 117q-63 0 -101 -29.5t-40 -84.5q1 -96 2 -198.5t4 -213.5q3 -116 124 -116z" />
    <glyph glyph-name="seven" unicode="7" horiz-adv-x="816" 
d="M147 0l393 1408h-487v192h703v-194l-384 -1406h-225z" />
    <glyph glyph-name="eight" unicode="8" horiz-adv-x="866" 
d="M432 -17q-175 0 -255 77.5t-88 255.5q-2 51 -1 110t4 138q8 97 43 153t106 85v37q-53 20 -88.5 64.5t-46.5 116.5q-7 65 -9.5 138.5t-0.5 126.5q8 178 86 255t250 77t250 -77t86 -255q3 -53 0 -126.5t-9 -138.5q-12 -72 -47.5 -116.5t-87.5 -63.5v-38q64 -31 101 -87
t47 -151q5 -79 5 -138t-2 -110q-8 -178 -87.5 -255.5t-255.5 -77.5zM432 922q126 0 127 131q0 67 0.5 129.5t-0.5 129.5q-2 127 -127 127t-127 -127q-2 -130 0 -259q2 -131 127 -131zM432 162q127 0 127 127q3 148 0 296q-2 131 -127 131t-127 -131q-2 -148 0 -296
q2 -127 127 -127z" />
    <glyph glyph-name="nine" unicode="9" horiz-adv-x="864" 
d="M436 -17q-178 0 -256 76.5t-79 254.5v92t2 96h214q-1 -55 -1.5 -109t1.5 -117q3 -56 28 -85.5t88 -29.5q60 0 87.5 28.5t29.5 86.5q3 90 5.5 200.5t3.5 232.5h-36q-21 -43 -67.5 -71.5t-114.5 -28.5q-107 0 -184.5 71t-78.5 234q-1 81 -0.5 184t1.5 186q5 178 87 255
t262 77t257.5 -77t80.5 -255q5 -261 5 -497t-5 -473q-3 -178 -81.5 -254.5t-248.5 -76.5zM424 790q122 0 135 102q-2 106 -4 213.5t-5 216.5q-3 116 -124 116q-129 0 -130 -116q-1 -92 -2 -204.5t0 -211.5q2 -59 37 -87.5t93 -28.5z" />
    <glyph glyph-name="colon" unicode=":" horiz-adv-x="455" 
d="M86 600v229h282v-229h-282zM86 0v229h282v-229h-282z" />
    <glyph glyph-name="semicolon" unicode=";" horiz-adv-x="484" 
d="M121 -244l100 244h-135v232h284v-210l-130 -266h-119zM86 602v229h282v-229h-282z" />
    <glyph glyph-name="less" unicode="&#x3c;" horiz-adv-x="997" 
d="M904 488v178l-398 47l-251 14v48l250 14l399 50v178l-811 -132v-269z" />
    <glyph glyph-name="equal" unicode="=" horiz-adv-x="935" 
d="M93 820v165h749v-165h-749zM93 508v165h749v-165h-749z" />
    <glyph glyph-name="greater" unicode="&#x3e;" horiz-adv-x="997" 
d="M93 488v178l398 47l251 14v48l-250 14l-399 50v178l811 -132v-269z" />
    <glyph glyph-name="question" unicode="?" horiz-adv-x="803" 
d="M297 380l-6 186q-5 108 23 169t115 111l37 19q38 21 47 67.5t9 120.5v272q0 115 -124 115q-114 0 -120 -115q-4 -76 -4 -151t3 -150h-210q-1 60 -2 127t1 136q7 177 83.5 254t246.5 77q183 0 262.5 -76.5t79.5 -253.5q0 -101 0.5 -148t0.5 -87q-2 -130 -26.5 -196
t-63 -96t-79.5 -50l-43 -22q-40 -20 -48.5 -54.5t-10.5 -69.5l-8 -185h-163zM238 0v229h282v-229h-282z" />
    <glyph glyph-name="at" unicode="@" horiz-adv-x="1213" 
d="M606 -279q-265 0 -385 87t-123 288q-3 172 -4.5 327.5t-0.5 315.5t5 346q3 209 123 300t385 91q262 0 383 -91t127 -302q2 -145 3 -264.5t0 -228t-4 -221.5q-3 -88 -62 -131.5t-162 -43.5q-101 0 -149.5 25t-63.5 69h-35q-23 -45 -49.5 -70.5t-79.5 -25.5q-71 0 -106 47
t-43 159q-5 98 -4.5 215t4.5 205q6 110 43.5 158t108.5 48q49 0 75 -23.5t50 -71.5h23v82h169l1 -638q0 -67 56 -67q50 0 54 69q5 135 6.5 319t-4.5 399q-5 125 -83 181t-258 56q-177 0 -255 -55t-82 -182q-13 -510 0 -1007q4 -118 82.5 -169t254.5 -51q175 0 253.5 50
t79.5 170v22.5t-1 27.5h167q1 -20 1.5 -29.5t-0.5 -20.5q-2 -198 -118.5 -281.5t-381.5 -83.5zM584 315q23 0 47.5 19t34.5 48l-1 453q-10 30 -35.5 47t-45.5 17q-48 0 -51 -66q-5 -114 -4.5 -222t6.5 -228q2 -38 13 -53t36 -15z" />
    <glyph glyph-name="A" unicode="A" horiz-adv-x="816" 
d="M32 0l196 1600h360l196 -1600h-221l-38 399h-234l-37 -399h-222zM312 591h193l-34 352l-35 465h-56l-34 -465z" />
    <glyph glyph-name="B" unicode="B" horiz-adv-x="819" 
d="M93 0v1600h304q180 0 262.5 -75.5t83.5 -248.5q1 -65 1 -115.5t-2 -97.5q-5 -97 -40.5 -152.5t-109.5 -81.5v-42q77 -25 113 -82t39 -155q3 -113 0 -226q-7 -173 -87 -248.5t-260 -75.5h-304zM309 906h87q129 0 131 162q3 110 0 219q-2 121 -130 121h-88v-502zM309 192
h88q129 0 131 135q2 106 0 213q-1 94 -32.5 134t-102.5 40h-84v-522z" />
    <glyph glyph-name="C" unicode="C" horiz-adv-x="839" 
d="M425 -17q-182 0 -259.5 77t-80.5 255q-3 150 -4 317.5t0 335.5t4 319q2 156 82 242.5t257 86.5q176 0 255 -77t85 -254q1 -53 0 -131.5t-2 -131.5h-216q1 66 2 150.5t-1 150.5q-3 115 -123 115t-123 -115q-7 -253 -7 -523t7 -523q3 -116 124 -116q127 0 130 116
q2 68 1.5 156t-1.5 155h216q2 -66 2 -136.5t-1 -136.5q-6 -178 -86.5 -255t-260.5 -77z" />
    <glyph glyph-name="D" unicode="D" horiz-adv-x="855" 
d="M93 0v1600h331q181 0 262 -78.5t84 -259.5q3 -165 4 -313t0 -296.5t-4 -313.5q-3 -181 -84 -260t-263 -79h-330zM309 192h114q128 0 131 123q10 486 0 972q-3 121 -130 121h-115v-1216z" />
    <glyph glyph-name="E" unicode="E" horiz-adv-x="709" 
d="M93 0v1600h572v-192h-356v-502h336v-192h-336v-522h356v-192h-572z" />
    <glyph glyph-name="F" unicode="F" horiz-adv-x="700" 
d="M93 0v1600h572v-192h-356v-502h336v-192h-336v-714h-216z" />
    <glyph glyph-name="G" unicode="G" horiz-adv-x="842" 
d="M428 -17q-183 0 -259.5 77.5t-82.5 255.5q-3 147 -4.5 314t0 333t4.5 311q7 186 84.5 264.5t256.5 78.5q171 0 249.5 -77t88.5 -254q6 -132 0 -263h-216q3 68 3 150.5t-3 150.5q-6 115 -122 115q-120 0 -125 -115q-9 -250 -9 -523t9 -523q4 -116 126 -116q126 0 133 116
q2 58 2 130.5t-2 130.5h-122v189h333q3 -84 2.5 -190.5t-4.5 -221.5q-8 -178 -87.5 -255.5t-254.5 -77.5z" />
    <glyph glyph-name="H" unicode="H" horiz-adv-x="851" 
d="M93 0v1600h216v-694h233v694h216v-1600h-216v714h-233v-714h-216z" />
    <glyph glyph-name="I" unicode="I" horiz-adv-x="402" 
d="M93 0v1600h216v-1600h-216z" />
    <glyph glyph-name="J" unicode="J" horiz-adv-x="781" 
d="M373 -17q-179 0 -250.5 77.5t-75.5 255.5q-4 137 0 273h204q-2 -68 -2 -155.5t2 -155.5q2 -59 30.5 -87.5t91.5 -28.5t90 28.5t27 87.5v1322h216v-1284q0 -178 -75 -255.5t-258 -77.5z" />
    <glyph glyph-name="K" unicode="K" horiz-adv-x="842" 
d="M93 0v1600h230l-3 -383l-36 -384h43l112 402l127 365h237l-252 -687l270 -913h-220l-192 668l-96 -226v-442h-220z" />
    <glyph glyph-name="L" unicode="L" horiz-adv-x="691" 
d="M93 0v1600h216v-1408h357v-192h-573z" />
    <glyph glyph-name="M" unicode="M" horiz-adv-x="1272" 
d="M93 0v1600h362l114 -630l45 -775h45l43 775l116 630h362v-1600h-217v479l41 929h-50l-95 -942l-98 -463h-250l-96 463l-97 942h-47l38 -929v-479h-216z" />
    <glyph glyph-name="N" unicode="N" horiz-adv-x="946" 
d="M93 0v1600h330l104 -508l123 -900h49l-40 782l-16 626h210v-1600h-345l-110 549l-98 860h-52l37 -803l17 -606h-209z" />
    <glyph glyph-name="O" unicode="O" horiz-adv-x="856" 
d="M428 -17q-180 0 -259.5 76.5t-82.5 254.5q-11 486 0 973q3 177 82.5 253.5t259.5 76.5t258 -76.5t83 -253.5q13 -489 0 -973q-5 -178 -83 -254.5t-258 -76.5zM428 162q122 0 125 114q6 166 7.5 346.5t-0.5 360t-7 342.5q-3 114 -125 114q-123 0 -126 -114
q-6 -163 -8 -342.5t0 -360t8 -346.5q3 -114 126 -114z" />
    <glyph glyph-name="P" unicode="P" horiz-adv-x="806" 
d="M93 0v1600h315q179 0 259.5 -75.5t86.5 -248.5q4 -109 4 -198t-4 -187q-6 -173 -86.5 -248.5t-260.5 -75.5h-98v-567h-216zM309 759h98q125 0 131 121q4 96 4 203.5t-4 203.5q-6 121 -130 121h-99v-649z" />
    <glyph glyph-name="Q" unicode="Q" horiz-adv-x="856" 
d="M745 -218q-140 -10 -216.5 37.5t-101.5 163.5q-179 0 -258.5 76.5t-82.5 254.5q-11 486 0 973q3 177 82.5 253.5t259.5 76.5t258 -76.5t83 -253.5q13 -489 0 -973q-5 -224 -141 -289q19 -79 117 -69v-174zM428 162q122 0 125 114q6 166 7.5 346.5t-0.5 360t-7 342.5
q-3 114 -125 114q-123 0 -126 -114q-6 -163 -8 -342.5t0 -360t8 -346.5q3 -114 126 -114z" />
    <glyph glyph-name="R" unicode="R" horiz-adv-x="825" 
d="M93 0v1600h315q179 0 259.5 -75.5t86.5 -248.5q4 -109 4 -194t-4 -182q-7 -223 -148 -288l175 -612h-230l-149 576h-93v-576h-216zM309 767h98q125 0 131 122q9 199 0 398q-6 121 -130 121h-99v-641z" />
    <glyph glyph-name="S" unicode="S" horiz-adv-x="815" 
d="M410 -17q-180 0 -256.5 77.5t-83.5 255.5q-2 70 -1.5 136t6.5 137h204q-4 -81 -4.5 -160.5t4.5 -150.5q4 -59 35 -87.5t95 -28.5q63 0 91 28.5t34 87.5q5 68 4.5 123.5t-4.5 127.5q-4 59 -24 101t-73 56l-134 34q-136 35 -185 118.5t-54 227.5q-1 54 -0.5 110t1.5 111
q6 177 83 253.5t261 76.5q173 0 250.5 -77t84.5 -254q1 -50 0.5 -121t-3.5 -142h-208q3 75 4 150.5t-2 150.5q-5 115 -127 115q-64 0 -93 -29t-34 -86q-5 -64 -4.5 -129t4.5 -129q4 -65 25 -103.5t76 -52.5l121 -29q142 -34 192.5 -121t55.5 -231q2 -63 1.5 -109t-2.5 -104
q-7 -178 -84.5 -255.5t-255.5 -77.5z" />
    <glyph glyph-name="T" unicode="T" horiz-adv-x="699" 
d="M241 0v1408h-230v192h677v-192h-230v-1408h-217z" />
    <glyph glyph-name="U" unicode="U" horiz-adv-x="839" 
d="M420 -17q-181 0 -260 76.5t-81 254.5q-8 643 0 1286h216q-5 -320 -4.5 -662t3.5 -662q0 -114 126 -114q124 0 124 114q3 320 4 662t-4 662h216q8 -643 0 -1286q-2 -178 -80.5 -254.5t-259.5 -76.5z" />
    <glyph glyph-name="V" unicode="V" horiz-adv-x="838" 
d="M240 0l-205 1600h224l107 -847l29 -561h47l29 561l107 847h225l-205 -1600h-358z" />
    <glyph glyph-name="W" unicode="W" horiz-adv-x="1331" 
d="M180 0l-131 1600h218l44 -667l36 -741h45l21 741l106 657h292l106 -657l21 -741h44l38 741l44 667h217l-131 -1600h-361l-64 486l-38 919h-43l-39 -919l-64 -486h-361z" />
    <glyph glyph-name="X" unicode="X" horiz-adv-x="800" 
d="M35 0l219 824l-212 776h211l93 -376l40 -313h31l40 313l90 376h211l-203 -783l210 -817h-211l-96 395l-41 324h-31l-42 -324l-98 -395h-211z" />
    <glyph glyph-name="Y" unicode="Y" horiz-adv-x="791" 
d="M287 0v402l-259 1198h221l81 -420l43 -464h45l41 464l82 420h222l-260 -1199v-401h-216z" />
    <glyph glyph-name="Z" unicode="Z" horiz-adv-x="716" 
d="M34 0v179l416 1229h-393v192h624v-183l-430 -1225h397v-192h-614z" />
    <glyph glyph-name="bracketleft" unicode="[" horiz-adv-x="605" 
d="M93 -400v2000h452v-108h-236v-1784h236v-108h-452z" />
    <glyph glyph-name="backslash" unicode="\" horiz-adv-x="736" 
d="M676 -400l-400 2000h-216l400 -2000h216z" />
    <glyph glyph-name="bracketright" unicode="]" horiz-adv-x="605" 
d="M525 -400v2000h-452v-108h236v-1784h-236v-108h452z" />
    <glyph glyph-name="asciicircum" unicode="^" horiz-adv-x="782" 
d="M93 897l226 482h144l226 -482h-143l-154 333l-155 -333h-144z" />
    <glyph glyph-name="underscore" unicode="_" horiz-adv-x="1312" 
d="M60 -120v40h1192v-40h-1192z" />
    <glyph glyph-name="grave" unicode="`" horiz-adv-x="490" 
d="M249 1280l-160 252h157l153 -252h-150z" />
    <glyph glyph-name="a" unicode="a" horiz-adv-x="823" 
d="M302 -14q-115 0 -169.5 60.5t-65.5 196.5q-1 22 -1.5 47.5t0.5 47.5q9 114 64 187t192 134q48 22 96 40.5t99 34.5v205q0 57 -22 85t-84 28q-54 0 -77 -23.5t-26 -82.5q-2 -29 -2 -87.5t2 -93.5h-210q-2 24 -3 72.5t1 85.5q6 154 77 224t244 70q180 0 247.5 -77
t67.5 -250l-1 -890h-216v119h-30q-29 -67 -70 -100t-113 -33zM387 144q88 0 129 98v342q-35 -11 -70 -26t-71 -38q-55 -33 -73.5 -78.5t-21.5 -103.5q-2 -42 0 -79q10 -115 107 -115z" />
    <glyph glyph-name="b" unicode="b" horiz-adv-x="861" 
d="M541 -17q-82 0 -124 34.5t-78 100.5h-27v-118h-216v1600h216v-518h40q36 66 78 100.5t124 34.5q109 0 164 -66.5t61 -221.5q3 -95 4 -214.5t0 -237t-4 -206.5q-6 -154 -67.5 -221t-170.5 -67zM466 144q50 0 72.5 26t24.5 83q4 99 5.5 217.5t0 241.5t-5.5 235
q-2 57 -24.5 83t-72.5 26q-49 0 -92 -26.5t-62 -77.5v-704q19 -51 62 -77.5t92 -26.5z" />
    <glyph glyph-name="c" unicode="c" horiz-adv-x="799" 
d="M519 765q2 38 2 95t-1 86q-2 59 -28 82.5t-83 23.5q-58 0 -84 -23.5t-27 -82.5q-5 -179 -5 -344t5 -341q1 -63 27.5 -88t86.5 -25q56 0 81 25t27 88q1 31 1 76.5t-2 101.5h211q2 -28 2.5 -74t-0.5 -82q-7 -161 -81 -230.5t-239 -69.5q-170 0 -246.5 69.5t-84.5 230.5
q-2 57 -3 139.5t-1 173.5t1 174.5t3 143.5q10 163 86 233t242 70q167 0 241.5 -68.5t81.5 -226.5q1 -36 0.5 -82.5t-2.5 -74.5h-211z" />
    <glyph glyph-name="d" unicode="d" horiz-adv-x="861" 
d="M311 -17q-110 0 -166.5 67t-63.5 221q-2 89 -3 206.5t0 237t3 214.5q7 155 65.5 221.5t167.5 66.5q82 0 124 -34.5t78 -100.5h33v518h216v-1600h-216v118h-34q-36 -65 -79 -100t-125 -35zM395 144q48 0 91.5 26.5t62.5 77.5v704q-19 51 -62.5 77.5t-91.5 26.5
q-50 0 -72.5 -26t-24.5 -83q-5 -112 -6 -235t0 -241.5t6 -217.5q2 -57 24.5 -83t72.5 -26z" />
    <glyph glyph-name="e" unicode="e" horiz-adv-x="801" 
d="M413 -17q-170 0 -247 69.5t-85 230.5q-2 57 -3 139.5t-1 173t1 174.5t3 144q10 163 86.5 233t243.5 70q164 0 238.5 -68.5t82.5 -225.5q1 -27 1.5 -84.5t0 -131t-3.5 -146.5h-436q0 -73 1.5 -147.5t2.5 -152.5q2 -63 28.5 -88t85.5 -25q56 0 80 25t27 88t0 178h211
q2 -28 2.5 -74t-0.5 -82q-8 -161 -81 -230.5t-238 -69.5zM294 716h227q1 74 0.5 140t-2.5 90q-3 57 -28 81.5t-80 24.5q-60 0 -85.5 -24.5t-27.5 -81.5q-1 -62 -2 -118.5t-2 -111.5z" />
    <glyph glyph-name="f" unicode="f" horiz-adv-x="575" 
d="M132 0v1034h-114v166h114v120q-1 160 78.5 229.5t249.5 69.5q30 0 66 -4t67 -10v-160q-67 4 -132 4q-114 0 -113 -113v-136h204v-166h-204v-1034h-216z" />
    <glyph glyph-name="g" unicode="g" horiz-adv-x="865" 
d="M392 -364q-290 0 -319 176q-2 11 -3.5 28t-0.5 31q7 55 41 88t87 40v34q-102 22 -112 110q-1 16 -0.5 26.5t0.5 22.5q5 42 40 69.5t86 35.5v34q-133 60 -144 267q-2 65 -3 112.5t0 94.5t3 109q11 163 85 233t248 70q118 0 185 -30.5t103 -96.5h34q13 110 141 110v-166
h-32q-45 0 -70 -27.5t-26 -91.5l-1 -84q1 -62 1 -111t-3 -122q-9 -162 -82.5 -232t-249.5 -70q-85 0 -118.5 -16t-33.5 -51v-9q0 -34 26.5 -47.5t126.5 -16.5q176 -4 260.5 -56t100.5 -166q5 -37 0 -75q-16 -124 -107.5 -173.5t-262.5 -49.5zM400 460q63 0 90 26.5t30 83.5
q9 172 0 371q-3 58 -29.5 84.5t-90.5 26.5q-65 0 -92 -26.5t-29 -86.5q-4 -99 -4.5 -188.5t4.5 -176.5q3 -60 30 -87t91 -27zM406 -211q78 0 123 19t54 66q6 25 -1 52q-9 47 -52.5 63t-123.5 18q-74 2 -113.5 -16.5t-48.5 -65.5q-5 -27 0 -51q9 -49 48.5 -67t113.5 -18z" />
    <glyph glyph-name="h" unicode="h" horiz-adv-x="873" 
d="M96 0v1600h216v-518h40q36 66 78 100.5t124 34.5q109 0 168.5 -66.5t59.5 -221.5v-929h-216v947q0 109 -100 109q-49 0 -92 -26.5t-62 -77.5v-952h-216z" />
    <glyph glyph-name="i" unicode="i" horiz-adv-x="408" 
d="M76 1407v193h255v-193h-255zM97 0v1200h216v-1200h-216z" />
    <glyph glyph-name="j" unicode="j" horiz-adv-x="407" 
d="M76 1407v193h255v-193h-255zM-17 -418q-30 0 -66 4t-67 9v163q25 -3 64 -4.5t68 -1.5q115 0 115 113v1335h216v-1319q0 -159 -80 -229t-250 -70z" />
    <glyph glyph-name="k" unicode="k" horiz-adv-x="776" 
d="M96 0v1600h202v-367l-24 -532h37l85 240l111 259h224l-224 -473l267 -727h-222l-181 506l-68 -125v-381h-207z" />
    <glyph glyph-name="l" unicode="l" horiz-adv-x="408" 
d="M96 0v1600h216v-1600h-216z" />
    <glyph glyph-name="m" unicode="m" horiz-adv-x="1333" 
d="M96 0v1200h216v-118h39q36 66 78.5 100.5t124.5 34.5q80 0 132 -35t76 -114h37q36 67 85 108t132 41q109 0 167.5 -66.5t58.5 -221.5v-929h-216v947q-1 109 -98 109q-47 0 -87.5 -29.5t-59.5 -78.5v-948h-216v947q-2 109 -99 109q-49 0 -92 -26.5t-62 -77.5v-952h-216z
" />
    <glyph glyph-name="n" unicode="n" horiz-adv-x="873" 
d="M96 0v1200h216v-118h40q35 65 78 100t124 35q109 0 168 -66.5t60 -221.5v-929h-216v947q-1 109 -100 109q-47 0 -91 -27.5t-63 -76.5v-952h-216z" />
    <glyph glyph-name="o" unicode="o" horiz-adv-x="835" 
d="M418 -17q-180 0 -253.5 76t-82.5 255q-2 76 -3.5 180t-0.5 208.5t4 184.5q9 177 82 253.5t254 76.5q182 0 253.5 -77t81.5 -253q2 -77 3.5 -180.5t0.5 -208t-4 -184.5q-10 -176 -81.5 -253.5t-253.5 -77.5zM418 148q63 0 90 27t28 87q6 176 6 338.5t-6 338.5
q-1 59 -27.5 86t-90.5 27q-62 0 -90 -27t-30 -86q-5 -176 -5 -339.5t5 -337.5q2 -60 30 -87t90 -27z" />
    <glyph glyph-name="p" unicode="p" horiz-adv-x="861" 
d="M96 -400v1600h216v-118h34q35 66 77 100.5t124 34.5q110 0 168 -66.5t64 -221.5q2 -58 3 -143t1 -179.5t-1 -183t-3 -152.5q-6 -154 -69.5 -221t-173.5 -67q-63 0 -107 31.5t-83 103.5h-34v-518h-216zM452 144q106 0 111 109q7 168 6.5 354t-6.5 340q-2 57 -24.5 83
t-72.5 26q-49 0 -92 -26.5t-62 -77.5v-704q21 -56 53.5 -80t86.5 -24z" />
    <glyph glyph-name="q" unicode="q" horiz-adv-x="861" 
d="M549 -400v518h-31q-39 -72 -83 -103.5t-108 -31.5q-109 0 -174 67t-72 221q-1 57 -2.5 142t-1.5 179.5t1 183t3 153.5q7 155 65 221.5t167 66.5q83 0 124.5 -34.5t77.5 -100.5h34v118h216v-1600h-216zM408 144q54 0 87 24t54 80v704q-19 51 -62 77.5t-92 26.5
q-50 0 -72.5 -26t-24.5 -83q-7 -174 -7 -359.5t7 -334.5q2 -57 31.5 -83t78.5 -26z" />
    <glyph glyph-name="r" unicode="r" horiz-adv-x="598" 
d="M96 0v1200h216v-132h40q13 77 52.5 107t104.5 30q21 0 41.5 -1.5t32.5 -1.5v-168h-72q-100 0 -143 -33t-56 -98v-903h-216z" />
    <glyph glyph-name="s" unicode="s" horiz-adv-x="759" 
d="M373 -17q-161 0 -229.5 69.5t-74.5 230.5q-1 36 -0.5 82t2.5 74h190q-2 -56 -1.5 -101.5t1.5 -76.5q2 -63 29.5 -88t82.5 -25q65 0 93.5 25t29.5 88q0 41 0.5 53.5t-0.5 50.5q-1 52 -16.5 82.5t-58.5 43.5l-118 36q-119 37 -178 103.5t-61 198.5v42t1 42
q1 163 71.5 233.5t247.5 70.5q163 0 229.5 -68.5t73.5 -226.5q1 -36 0.5 -82.5t-2.5 -74.5h-197q2 38 1.5 95t-1.5 86q-2 59 -24.5 82.5t-79.5 23.5q-60 0 -83.5 -23.5t-24.5 -82.5q-2 -29 -2.5 -46.5t0.5 -53.5q1 -56 14 -92t66 -52l106 -29q118 -31 177.5 -98t59.5 -199
q0 -23 -0.5 -49.5t-1.5 -49.5q-2 -157 -75 -225.5t-247 -68.5z" />
    <glyph glyph-name="t" unicode="t" horiz-adv-x="588" 
d="M473 -17q-185 0 -261 69.5t-76 230.5v751h-98v166h100v340h217v-340h191v-166h-194v-775q0 -63 22.5 -87.5t99.5 -24.5q26 0 46 1t46 3v-158q-39 -10 -93 -10z" />
    <glyph glyph-name="u" unicode="u" horiz-adv-x="867" 
d="M321 -17q-109 0 -171 67t-62 221v929h216v-947q0 -109 97 -109q46 0 90.5 27.5t63.5 76.5v952h216v-1200h-216v118h-32q-73 -135 -202 -135z" />
    <glyph glyph-name="v" unicode="v" horiz-adv-x="752" 
d="M200 0l-172 1200h220l75 -604l29 -434h46l30 434l76 604h220l-174 -1200h-350z" />
    <glyph glyph-name="w" unicode="w" horiz-adv-x="1278" 
d="M187 0l-150 1200h219l58 -604l24 -434h46l25 434l59 601h342l57 -601l25 -434h46l25 434l59 604h219l-151 -1200h-357l-42 464l-30 571h-46l-30 -571l-42 -464h-356z" />
    <glyph glyph-name="x" unicode="x" horiz-adv-x="712" 
d="M20 0l183 626l-179 574h209l69 -254l32 -232h43l34 232l69 254h209l-180 -579l184 -621h-209l-76 307l-31 248h-42l-29 -248l-77 -307h-209z" />
    <glyph glyph-name="y" unicode="y" horiz-adv-x="769" 
d="M191 -414q-30 0 -66 3.5t-67 8.5v163q25 -2 64 -4t68 -2q77 0 105.5 25.5t37.5 88.5l17 131h-114l-200 1200h220l71 -563l46 -475h45l43 475l59 563h219l-191 -1315q-16 -106 -53.5 -172t-109.5 -96.5t-194 -30.5z" />
    <glyph glyph-name="z" unicode="z" horiz-adv-x="681" 
d="M38 0v138l375 900l-367 -1v162l598 1v-142l-380 -896h373v-162h-599z" />
    <glyph glyph-name="braceleft" unicode="{" horiz-adv-x="677" 
d="M617 -403q-112 0 -202.5 34.5t-144 109.5t-53.5 199q0 30 2 92t5 132.5t4.5 127.5t1.5 78q0 81 -26.5 104t-75.5 23h-68v201h68q49 1 75.5 23.5t26.5 103.5q0 21 -1.5 78.5t-4 128t-4 133t-1.5 92.5q0 124 53 199.5t143 109.5t202 34v-110q-76 0 -131 -68t-55 -165
q0 -25 1.5 -74.5t3.5 -107t3.5 -108t1.5 -78.5q0 -108 -41 -182t-124 -90v-36q83 -17 124 -91t41 -181q0 -28 -1.5 -79t-3.5 -108.5t-3.5 -107t-1.5 -74.5q0 -97 55 -164.5t131 -67.5v-111z" />
    <glyph glyph-name="bar" unicode="|" horiz-adv-x="402" 
d="M93 1820h216v-2060h-216v2060z" />
    <glyph glyph-name="braceright" unicode="}" horiz-adv-x="664" 
d="M47 -403q112 0 202.5 34.5t144 109.5t53.5 199q0 30 -2 92t-5 132.5t-4.5 127.5t-1.5 78q0 81 26.5 104t75.5 23h68v201h-68q-49 1 -75.5 23.5t-26.5 103.5q0 21 1.5 78.5t4 128t4 133t1.5 92.5q0 124 -53 199.5t-143 109.5t-202 34v-110q76 0 131 -68t55 -165
q0 -25 -1.5 -74.5t-3.5 -107t-3.5 -108t-1.5 -78.5q0 -108 41 -182t124 -90v-36q-83 -17 -124 -91t-41 -181q0 -28 1.5 -79t3.5 -108.5t3.5 -107t1.5 -74.5q0 -97 -55 -164.5t-131 -67.5v-111z" />
    <glyph glyph-name="asciitilde" unicode="~" horiz-adv-x="992" 
d="M650 610q-56 1 -97 20.5t-74.5 45t-66.5 45.5t-72 23q-54 4 -87 -28t-39 -90h-121q10 149 80 214.5t174 60.5q62 -3 103.5 -22.5t73 -44.5t62 -44t69.5 -20q55 -3 87.5 25.5t35.5 79.5h121q-7 -141 -74 -205t-175 -60z" />
    <glyph glyph-name="uni00A0" unicode="&#xa0;" horiz-adv-x="427" 
 />
    <glyph glyph-name="exclamdown" unicode="&#xa1;" horiz-adv-x="455" 
d="M149 822l-31 -831v-391h219v391l-30 831h-158zM86 1200v-229h282v229h-282z" />
    <glyph glyph-name="cent" unicode="&#xa2;" horiz-adv-x="799" 
d="M311 0v192q-116 17 -169.5 87t-60.5 204q-2 57 -3 139.5t-1 173.5t1 174.5t3 143.5q7 136 61 206.5t169 88.5v191h189v-190q118 -16 172 -85t60 -203q0 -36 -0.5 -82.5t-1.5 -74.5h-211q2 38 1.5 95t-1.5 86q-2 59 -27.5 82.5t-82.5 23.5q-59 0 -84.5 -23.5t-26.5 -82.5
q-5 -179 -5 -344t5 -341q1 -63 27.5 -88t86.5 -25q56 0 80.5 25t26.5 88q1 31 1.5 76.5t-1.5 101.5h211q1 -28 2 -74t0 -82q-7 -137 -61 -207t-171 -87v-189h-189z" />
    <glyph glyph-name="sterling" unicode="&#xa3;" horiz-adv-x="913" 
d="M132 0v186q49 30 73 139t24 262q0 51 -4 94.5t-10 82.5h-120v110h93q-22 90 -42.5 183t-20.5 230q2 156 82 242.5t258 86.5q176 0 255 -77t84 -254q2 -53 1 -131.5t-3 -131.5h-216q2 66 2.5 150.5t-0.5 150.5q-3 115 -123 115q-121 0 -124 -115q0 -122 25.5 -226
t47.5 -223h177v-110h-163q4 -34 7 -70t3 -75q0 -139 -28 -236t-75 -154v-37h485v-192h-688z" />
    <glyph glyph-name="currency" unicode="&#xa4;" horiz-adv-x="1096" 
d="M191 53l-93 79l146 172q-19 37 -28.5 86t-13.5 110q-2 77 -3.5 180.5t-0.5 208.5t4 185q4 63 14.5 113.5t30.5 87.5l-151 175l89 78l145 -167q73 42 208 42q147 0 222 -51l155 173l88 -81l-168 -185q33 -67 37 -185q3 -78 4 -181.5t0.5 -208t-4.5 -184.5
q-4 -115 -38 -187l154 -180l-90 -80l-141 165q-72 -48 -219 -48q-138 0 -212 45zM538 335q63 0 89.5 26.5t28.5 87.5q6 175 6 338t-6 338q-2 60 -28.5 87t-89.5 27q-62 0 -90 -27t-30 -87q-5 -175 -5 -338.5t5 -337.5q2 -61 30 -87.5t90 -26.5z" />
    <glyph glyph-name="yen" unicode="&#xa5;" horiz-adv-x="791" 
d="M287 0v147h-181v83h181v55h-181v83h181v32l-259 1200h222l81 -420l42 -464h45l42 464l81 420h222l-259 -1200v-32h182v-83h-182v-55h182v-83h-182v-147h-217z" />
    <glyph glyph-name="brokenbar" unicode="&#xa6;" horiz-adv-x="402" 
d="M93 1820h216v-804h-216v804zM93 536h216v-776h-216v776z" />
    <glyph glyph-name="section" unicode="&#xa7;" horiz-adv-x="824" 
d="M405 -417q-162 0 -230 59t-75 219q-1 36 -0.5 93t2.5 85h191q-2 -56 -2 -101.5t1 -76.5q3 -63 30 -88t83 -25q65 0 93 25t29 88q1 37 1 77.5v75.5q-1 52 -13.5 83.5t-61.5 43.5l-108 29q-116 30 -180.5 90t-68.5 178q-2 70 -2 128.5t2 136.5q2 87 37.5 141t87.5 78v37
q-54 21 -87 63t-39 131q-2 41 -1.5 93t2.5 86q9 108 39 167t96.5 81.5t184.5 22.5q162 0 229 -68.5t73 -225.5q1 -36 1 -79.5t-3 -91.5h-197q2 48 2 106.5t-1 87.5q-3 60 -25.5 76.5t-78.5 16.5q-60 0 -82 -16.5t-27 -76.5q-2 -29 -3 -86t0 -93q3 -56 15.5 -88.5t65.5 -45.5
l106 -26q223 -52 237 -296q4 -82 3 -136.5t-4 -122.5q-5 -75 -38 -122.5t-83 -70.5v-31q119 -50 124 -207q1 -34 0 -75t-3 -71q-7 -104 -38.5 -165t-100 -87t-183.5 -26zM419 330q63 0 86 33t28 81q4 56 4.5 130.5t-4.5 128.5q-5 48 -28 80t-86 32t-89 -32t-30 -80
q-5 -54 -4.5 -129t4.5 -130q6 -49 31 -81.5t88 -32.5z" />
    <glyph glyph-name="dieresis" unicode="&#xa8;" horiz-adv-x="626" 
d="M373 1310v154h154v-154h-154zM127 1310v154h153v-154h-153z" />
    <glyph glyph-name="copyright" unicode="&#xa9;" horiz-adv-x="1273" 
d="M637 -10q-544 0 -544 610t544 610q543 0 543 -610t-543 -610zM637 98q422 0 422 502t-422 502q-423 0 -423 -502t423 -502zM640 206q-114 0 -165 48t-58 159q-2 43 -2.5 111.5t0 138t2.5 116.5q5 113 56.5 161.5t165.5 48.5q115 0 164 -48t55 -156q1 -21 0.5 -38.5
t-2.5 -31.5h-133q1 20 0.5 43.5t-0.5 39.5q0 48 -19.5 66t-64.5 18q-44 0 -63.5 -18t-21.5 -66q-3 -111 -2 -201.5t2 -198.5q1 -49 21.5 -67.5t64.5 -18.5t62.5 18.5t20.5 67.5q2 20 1.5 37.5t-1.5 50.5h133q2 -17 2.5 -35t-0.5 -38q-7 -111 -55.5 -159t-162.5 -48z" />
    <glyph glyph-name="ordfeminine" unicode="&#xaa;" horiz-adv-x="717" 
d="M281 754q-90 0 -131.5 42.5t-54.5 144.5q-3 27 -1 65q7 83 51 133.5t154 91.5q37 15 75 27t82 23q0 34 -1 67t-3 65q-1 36 -16.5 55.5t-67.5 19.5q-42 0 -60.5 -15.5t-23.5 -56.5q-1 -8 -1 -34.5t1 -52.5t1 -35h-166q-1 12 -2 51t0 55q7 112 61 164.5t195 52.5
q144 0 195 -57t55 -186q1 -43 1 -120t-0.5 -167.5t-0.5 -176v-145.5h-172q0 22 0.5 43t1.5 43h-25q-23 -48 -55 -72.5t-92 -24.5zM348 878q75 0 108 68v109v109q-29 -7 -59 -16.5t-58 -24.5q-44 -20 -59 -50t-18 -67q-1 -9 -0.5 -26t1.5 -25q1 -40 25.5 -58.5t59.5 -18.5z
" />
    <glyph glyph-name="guillemotleft" unicode="&#xab;" horiz-adv-x="674" 
d="M306 202l-286 320v207l286 320v-206l-194 -217l194 -217v-207zM574 202l-286 320v207l286 320v-206l-194 -217l194 -217v-207z" />
    <glyph glyph-name="logicalnot" unicode="&#xac;" horiz-adv-x="935" 
d="M678 476v344h-585v165h749v-509h-164z" />
    <glyph glyph-name="uni00AD" unicode="&#xad;" horiz-adv-x="763" 
d="M60 642v192h643v-192h-643z" />
    <glyph glyph-name="registered" unicode="&#xae;" horiz-adv-x="863" 
d="M434 1001q-341 0 -341 374q0 376 341 376q337 0 337 -376q0 -374 -337 -374zM434 1070q137 0 202.5 74t65.5 231q0 159 -65.5 233t-202.5 74q-139 0 -205.5 -74t-66.5 -233q0 -157 66.5 -231t205.5 -74zM333 1176v424h106q58 0 84.5 -23t29.5 -79q1 -22 0 -45
q-3 -61 -58 -75v-12q54 -12 57 -75q1 -25 2 -52t-1 -63h-77q1 65 -2 126q-2 40 -35 40h-29v-166h-77zM410 1410h30q35 0 35 35q2 26 0 58q0 29 -36 29h-29v-122z" />
    <glyph glyph-name="macron" unicode="&#xaf;" horiz-adv-x="829" 
d="M127 1390h556v-110h-556v110z" />
    <glyph glyph-name="degree" unicode="&#xb0;" horiz-adv-x="624" 
d="M313 1182q-60 0 -110 30t-80 79.5t-30 108.5q0 60 30 110t80 80t110 30q59 0 108.5 -30t79.5 -80t30 -110q0 -59 -30 -108.5t-79.5 -79.5t-108.5 -30zM313 1275q52 0 88.5 36.5t36.5 88.5q0 53 -36.5 90t-88.5 37q-53 0 -90 -37t-37 -90q0 -52 37 -88.5t90 -36.5z" />
    <glyph glyph-name="plusminus" unicode="&#xb1;" horiz-adv-x="975" 
d="M406 511v152h-313v164h313v193h164v-193h312v-164h-312v-152h-164zM93 286v135h789v-135h-789z" />
    <glyph glyph-name="uni00B2" unicode="&#xb2;" horiz-adv-x="535" 
d="M63 879q-1 46 -1 77t1 75q1 76 42 126t107 84l66 34q27 16 34.5 33.5t10.5 45.5q3 42 0 84q-1 19 -13.5 31.5t-39.5 12.5q-48 0 -50 -43q-3 -32 -2 -64t2 -53h-154q-2 22 -3 48t1 49q3 94 56.5 142t148.5 48q210 0 211 -190q0 -15 0.5 -30t0.5 -35q-1 -73 -37.5 -117.5
t-103.5 -77.5l-79 -37q-14 -10 -25 -29.5t-11 -43.5v-32h240v-138h-402z" />
    <glyph glyph-name="uni00B3" unicode="&#xb3;" horiz-adv-x="546" 
d="M276 870q-106 0 -162.5 45t-57.5 134v29.5t1 37.5h156q-1 -19 -1.5 -35.5t0.5 -30.5q1 -53 59 -53t59 49q0 22 0.5 44t-0.5 45q-1 56 -61 56h-99l-4 115l119 156h-215v138h407l-2 -134l-136 -154q70 -10 109 -52.5t40 -121.5q1 -50 0 -89q-1 -86 -54.5 -132.5
t-157.5 -46.5z" />
    <glyph glyph-name="acute" unicode="&#xb4;" horiz-adv-x="483" 
d="M79 1280l167 252h158l-174 -252h-151z" />
    <glyph glyph-name="uni00B5" unicode="&#xb5;" horiz-adv-x="899" 
d="M96 -400l-3 1600h216l2 -947q0 -109 98 -109q46 0 89.5 27.5t61.5 76.5v952h216v-980q0 -72 7.5 -129.5t22.5 -90.5h-216q-17 39 -26 118h-36q-49 -96 -123 -119q-50 -14 -93 -4v-395h-216z" />
    <glyph glyph-name="paragraph" unicode="&#xb6;" horiz-adv-x="1008" 
d="M498 -200v950h-67q-180 0 -253 76t-83 255q-2 42 -2 96.5t2 94.5q9 176 82 252t254 76h484v-121h-82v-1679h-135v1679h-66v-1679h-134z" />
    <glyph glyph-name="periodcentered" unicode="&#xb7;" horiz-adv-x="340" 
d="M86 751v167h168v-167h-168z" />
    <glyph glyph-name="cedilla" unicode="&#xb8;" horiz-adv-x="436" 
d="M76 -299v107h61q54 0 76 22.5t15 74.5l-16 95h116l15 -95q16 -107 -34.5 -155.5t-171.5 -48.5h-61z" />
    <glyph glyph-name="uni00B9" unicode="&#xb9;" horiz-adv-x="370" 
d="M128 882v587h-84l-2 54l121 79h123v-720h-158z" />
    <glyph glyph-name="ordmasculine" unicode="&#xba;" horiz-adv-x="726" 
d="M362 753q-139 0 -198.5 55.5t-65.5 191.5q-1 24 -2.5 73t-1.5 107t0.5 109.5t3.5 81.5q11 135 67 190.5t194 55.5q149 0 206.5 -59t64.5 -187q2 -30 2.5 -81.5t0.5 -109.5t-0.5 -107t-2.5 -73q-10 -128 -64 -187.5t-204 -59.5zM364 881q52 0 72.5 18.5t22.5 58.5
q4 91 5 162.5t-0.5 141t-4.5 151.5q-2 39 -22.5 57.5t-72.5 18.5q-93 0 -95 -76q-4 -83 -5 -152t0 -140.5t5 -162.5q2 -77 95 -77z" />
    <glyph glyph-name="guillemotright" unicode="&#xbb;" horiz-adv-x="674" 
d="M368 202l286 320v207l-286 320v-206l194 -217l-194 -217v-207zM100 202l286 320v207l-286 320v-206l194 -217l-194 -217v-207z" />
    <glyph glyph-name="onequarter" unicode="&#xbc;" horiz-adv-x="931" 
d="M128 881v587h-84l-2 54l121 79h123v-720h-158zM-141 0l884 1600h166l-886 -1600h-164zM808 720v-413h80v-136h-80v-171h-148v171h-239v131l186 418h201zM660 307l21 156l18 119h-28l-41 -119l-54 -156h84z" />
    <glyph glyph-name="onehalf" unicode="&#xbd;" horiz-adv-x="948" 
d="M128 881v587h-84l-2 54l121 79h123v-720h-158zM-141 0l884 1600h166l-886 -1600h-164zM476 0q-1 46 -1 77t1 75q1 76 42 126t107 84l66 34q27 16 34.5 33.5t10.5 45.5q3 42 0 84q-1 19 -13.5 31.5t-39.5 12.5q-48 0 -50 -43q-3 -32 -2 -64t2 -53h-154q-2 22 -3 48t1 49
q3 94 56.5 142t148.5 48q210 0 211 -190q0 -15 0.5 -30t0.5 -35q-1 -73 -37.5 -117.5t-103.5 -77.5l-79 -37q-14 -10 -25 -29.5t-11 -43.5v-32h240v-138h-402z" />
    <glyph glyph-name="threequarters" unicode="&#xbe;" horiz-adv-x="1161" 
d="M276 870q-106 0 -162.5 45t-57.5 134v29.5t1 37.5h156q-1 -19 -1.5 -35.5t0.5 -30.5q1 -53 59 -53t59 49q0 22 0.5 44t-0.5 45q-1 56 -61 56h-99l-4 115l119 156h-215v138h407l-2 -134l-136 -154q70 -10 109 -52.5t40 -121.5q1 -50 0 -89q-1 -86 -54.5 -132.5
t-157.5 -46.5zM90 0l884 1600h166l-886 -1600h-164zM1038 720v-413h80v-136h-80v-171h-148v171h-239v131l186 418h201zM890 307l21 156l18 119h-28l-41 -119l-54 -156h84z" />
    <glyph glyph-name="questiondown" unicode="&#xbf;" horiz-adv-x="803" 
d="M506 820l6 -186q5 -108 -23 -169t-115 -111l-37 -19q-38 -21 -47 -67.5t-9 -120.5v-272q0 -115 124 -115q114 0 120 115q4 76 4 151t-3 150h210q1 -60 2 -127t-1 -136q-7 -177 -83.5 -254t-246.5 -77q-183 0 -262.5 76.5t-79.5 253.5q0 101 -0.5 148t-0.5 87
q2 130 26.5 196t63 96t79.5 50l43 22q40 20 48.5 54.5t10.5 69.5l8 185h163zM565 1200v-229h-282v229h282z" />
    <glyph glyph-name="Agrave" unicode="&#xc0;" horiz-adv-x="816" 
d="M32 0l196 1600h360l196 -1600h-221l-38 399h-234l-37 -399h-222zM312 591h193l-34 352l-35 465h-56l-34 -465zM312 1680l-160 252h157l153 -252h-150z" />
    <glyph glyph-name="Aacute" unicode="&#xc1;" horiz-adv-x="816" 
d="M32 0l196 1600h360l196 -1600h-221l-38 399h-234l-37 -399h-222zM312 591h193l-34 352l-35 465h-56l-34 -465zM339 1680l167 252h158l-174 -252h-151z" />
    <glyph glyph-name="Acircumflex" unicode="&#xc2;" horiz-adv-x="816" 
d="M32 0l196 1600h360l196 -1600h-221l-38 399h-234l-37 -399h-222zM312 591h193l-34 352l-35 465h-56l-34 -465zM196 1682l147 252h130l146 -252h-145l-66 126l-67 -126h-145z" />
    <glyph glyph-name="Atilde" unicode="&#xc3;" horiz-adv-x="816" 
d="M32 0l196 1600h360l196 -1600h-221l-38 399h-234l-37 -399h-222zM312 591h193l-34 352l-35 465h-56l-34 -465zM597 1856h89q-3 -96 -49.5 -140.5t-120.5 -42.5q-51 2 -84.5 22.5t-61.5 42t-63 23.5q-30 2 -52.5 -16.5t-26.5 -59.5h-88q7 106 55.5 149.5t118.5 40.5
q55 -3 87.5 -24t58 -41.5t59.5 -21.5q37 -2 57.5 17t20.5 51z" />
    <glyph glyph-name="Adieresis" unicode="&#xc4;" horiz-adv-x="816" 
d="M32 0l196 1600h360l196 -1600h-221l-38 399h-234l-37 -399h-222zM312 591h193l-34 352l-35 465h-56l-34 -465zM455 1710v154h154v-154h-154zM209 1710v154h153v-154h-153z" />
    <glyph glyph-name="Aring" unicode="&#xc5;" horiz-adv-x="816" 
d="M32 0l196 1600h360l196 -1600h-221l-38 399h-234l-37 -399h-222zM312 591h193l-34 352l-35 465h-56l-34 -465zM408 1672q-72 0 -123 51t-51 124q0 72 51 123t123 51t123.5 -51t51.5 -123q0 -73 -51.5 -124t-123.5 -51zM408 1789q25 0 42 16.5t17 41.5q0 24 -17 41t-42 17
q-24 0 -40.5 -17t-16.5 -41q0 -25 16.5 -41.5t40.5 -16.5z" />
    <glyph glyph-name="AE" unicode="&#xc6;" horiz-adv-x="1159" 
d="M32 0l297 1600h785v-192h-356v-502h336v-192h-336v-522h356v-192h-572v399h-202l-73 -399h-235zM379 591h163v817h-48l-59 -520z" />
    <glyph glyph-name="Ccedilla" unicode="&#xc7;" horiz-adv-x="839" 
d="M425 -17q-182 0 -259.5 77t-80.5 255q-3 150 -4 317.5t0 335.5t4 319q2 156 82 242.5t257 86.5q176 0 255 -77t85 -254q1 -53 0 -131.5t-2 -131.5h-216q1 66 2 150.5t-1 150.5q-3 115 -123 115t-123 -115q-7 -253 -7 -523t7 -523q3 -116 124 -116q127 0 130 116
q2 68 1.5 156t-1.5 155h216q2 -66 2 -136.5t-1 -136.5q-6 -178 -86.5 -255t-260.5 -77zM225 -285v107h61q54 0 76 22.5t15 74.5l-16 95h116l15 -95q16 -107 -34.5 -155.5t-171.5 -48.5h-61z" />
    <glyph glyph-name="Egrave" unicode="&#xc8;" horiz-adv-x="709" 
d="M93 0v1600h572v-192h-356v-502h336v-192h-336v-522h356v-192h-572zM268 1680l-160 252h157l153 -252h-150z" />
    <glyph glyph-name="Eacute" unicode="&#xc9;" horiz-adv-x="709" 
d="M93 0v1600h572v-192h-356v-502h336v-192h-336v-522h356v-192h-572zM295 1680l167 252h158l-174 -252h-151z" />
    <glyph glyph-name="Ecircumflex" unicode="&#xca;" horiz-adv-x="709" 
d="M93 0v1600h572v-192h-356v-502h336v-192h-336v-522h356v-192h-572zM152 1682l147 252h130l146 -252h-145l-66 126l-67 -126h-145z" />
    <glyph glyph-name="Edieresis" unicode="&#xcb;" horiz-adv-x="709" 
d="M93 0v1600h572v-192h-356v-502h336v-192h-336v-522h356v-192h-572zM411 1710v154h154v-154h-154zM165 1710v154h153v-154h-153z" />
    <glyph glyph-name="Igrave" unicode="&#xcc;" horiz-adv-x="402" 
d="M93 0v1600h216v-1600h-216zM104 1680l-160 252h157l153 -252h-150z" />
    <glyph glyph-name="Iacute" unicode="&#xcd;" horiz-adv-x="402" 
d="M93 0v1600h216v-1600h-216zM131 1680l167 252h158l-174 -252h-151z" />
    <glyph glyph-name="Icircumflex" unicode="&#xce;" horiz-adv-x="402" 
d="M93 0v1600h216v-1600h-216zM-12 1682l147 252h130l146 -252h-145l-66 126l-67 -126h-145z" />
    <glyph glyph-name="Idieresis" unicode="&#xcf;" horiz-adv-x="402" 
d="M93 0v1600h216v-1600h-216zM247 1710v154h154v-154h-154zM1 1710v154h153v-154h-153z" />
    <glyph glyph-name="Eth" unicode="&#xd0;" horiz-adv-x="940" 
d="M178 0v836h-78v110h78v654h331q181 0 262 -78.5t84 -259.5q3 -165 4 -313t0 -296.5t-4 -313.5q-3 -181 -84 -260t-263 -79h-330zM394 192h114q128 0 131 123q10 486 0 972q-3 121 -130 121h-115v-462h133v-110h-133v-644z" />
    <glyph glyph-name="Ntilde" unicode="&#xd1;" horiz-adv-x="946" 
d="M93 0v1600h330l104 -508l123 -900h49l-40 782l-16 626h210v-1600h-345l-110 549l-98 860h-52l37 -803l17 -606h-209zM665 1856h89q-3 -96 -49.5 -140.5t-120.5 -42.5q-51 2 -84.5 22.5t-61.5 42t-63 23.5q-30 2 -52.5 -16.5t-26.5 -59.5h-88q7 106 55.5 149.5t118.5 40.5
q55 -3 87.5 -24t58 -41.5t59.5 -21.5q37 -2 57.5 17t20.5 51z" />
    <glyph glyph-name="Ograve" unicode="&#xd2;" horiz-adv-x="856" 
d="M428 -17q-180 0 -259.5 76.5t-82.5 254.5q-11 486 0 973q3 177 82.5 253.5t259.5 76.5t258 -76.5t83 -253.5q13 -489 0 -973q-5 -178 -83 -254.5t-258 -76.5zM428 162q122 0 125 114q6 166 7.5 346.5t-0.5 360t-7 342.5q-3 114 -125 114q-123 0 -126 -114
q-6 -163 -8 -342.5t0 -360t8 -346.5q3 -114 126 -114zM333 1680l-160 252h157l153 -252h-150z" />
    <glyph glyph-name="Oacute" unicode="&#xd3;" horiz-adv-x="856" 
d="M428 -17q-180 0 -259.5 76.5t-82.5 254.5q-11 486 0 973q3 177 82.5 253.5t259.5 76.5t258 -76.5t83 -253.5q13 -489 0 -973q-5 -178 -83 -254.5t-258 -76.5zM428 162q122 0 125 114q6 166 7.5 346.5t-0.5 360t-7 342.5q-3 114 -125 114q-123 0 -126 -114
q-6 -163 -8 -342.5t0 -360t8 -346.5q3 -114 126 -114zM360 1680l167 252h158l-174 -252h-151z" />
    <glyph glyph-name="Ocircumflex" unicode="&#xd4;" horiz-adv-x="856" 
d="M428 -17q-180 0 -259.5 76.5t-82.5 254.5q-11 486 0 973q3 177 82.5 253.5t259.5 76.5t258 -76.5t83 -253.5q13 -489 0 -973q-5 -178 -83 -254.5t-258 -76.5zM428 162q122 0 125 114q6 166 7.5 346.5t-0.5 360t-7 342.5q-3 114 -125 114q-123 0 -126 -114
q-6 -163 -8 -342.5t0 -360t8 -346.5q3 -114 126 -114zM217 1682l147 252h130l146 -252h-145l-66 126l-67 -126h-145z" />
    <glyph glyph-name="Otilde" unicode="&#xd5;" horiz-adv-x="856" 
d="M428 -17q-180 0 -259.5 76.5t-82.5 254.5q-11 486 0 973q3 177 82.5 253.5t259.5 76.5t258 -76.5t83 -253.5q13 -489 0 -973q-5 -178 -83 -254.5t-258 -76.5zM428 162q122 0 125 114q6 166 7.5 346.5t-0.5 360t-7 342.5q-3 114 -125 114q-123 0 -126 -114
q-6 -163 -8 -342.5t0 -360t8 -346.5q3 -114 126 -114zM618 1856h89q-3 -96 -49.5 -140.5t-120.5 -42.5q-51 2 -84.5 22.5t-61.5 42t-63 23.5q-30 2 -52.5 -16.5t-26.5 -59.5h-88q7 106 55.5 149.5t118.5 40.5q55 -3 87.5 -24t58 -41.5t59.5 -21.5q37 -2 57.5 17t20.5 51z
" />
    <glyph glyph-name="Odieresis" unicode="&#xd6;" horiz-adv-x="856" 
d="M428 -17q-180 0 -259.5 76.5t-82.5 254.5q-11 486 0 973q3 177 82.5 253.5t259.5 76.5t258 -76.5t83 -253.5q13 -489 0 -973q-5 -178 -83 -254.5t-258 -76.5zM428 162q122 0 125 114q6 166 7.5 346.5t-0.5 360t-7 342.5q-3 114 -125 114q-123 0 -126 -114
q-6 -163 -8 -342.5t0 -360t8 -346.5q3 -114 126 -114zM476 1710v154h154v-154h-154zM230 1710v154h153v-154h-153z" />
    <glyph glyph-name="multiply" unicode="&#xd7;" horiz-adv-x="861" 
d="M209 407l-116 117l222 221l-222 222l116 115l221 -221l222 221l116 -115l-221 -222l221 -221l-116 -117l-222 222z" />
    <glyph glyph-name="Oslash" unicode="&#xd8;" horiz-adv-x="856" 
d="M428 -17q-180 0 -259.5 76.5t-82.5 254.5q-11 486 0 973q3 177 82.5 253.5t259.5 76.5t258 -76.5t83 -253.5q13 -489 0 -973q-5 -178 -83 -254.5t-258 -76.5zM294 705l265 391q-2 57 -3 114t-3 115q-3 114 -125 114q-123 0 -126 -114q-5 -148 -7 -303.5t-1 -316.5z
M428 162q122 0 125 114q5 142 6.5 287t0.5 295l-262 -395q0 -46 1 -93t3 -94q3 -114 126 -114z" />
    <glyph glyph-name="Ugrave" unicode="&#xd9;" horiz-adv-x="839" 
d="M420 -17q-181 0 -260 76.5t-81 254.5q-8 643 0 1286h216q-5 -320 -4.5 -662t3.5 -662q0 -114 126 -114q124 0 124 114q3 320 4 662t-4 662h216q8 -643 0 -1286q-2 -178 -80.5 -254.5t-259.5 -76.5zM323 1680l-160 252h157l153 -252h-150z" />
    <glyph glyph-name="Uacute" unicode="&#xda;" horiz-adv-x="839" 
d="M420 -17q-181 0 -260 76.5t-81 254.5q-8 643 0 1286h216q-5 -320 -4.5 -662t3.5 -662q0 -114 126 -114q124 0 124 114q3 320 4 662t-4 662h216q8 -643 0 -1286q-2 -178 -80.5 -254.5t-259.5 -76.5zM350 1680l167 252h158l-174 -252h-151z" />
    <glyph glyph-name="Ucircumflex" unicode="&#xdb;" horiz-adv-x="839" 
d="M420 -17q-181 0 -260 76.5t-81 254.5q-8 643 0 1286h216q-5 -320 -4.5 -662t3.5 -662q0 -114 126 -114q124 0 124 114q3 320 4 662t-4 662h216q8 -643 0 -1286q-2 -178 -80.5 -254.5t-259.5 -76.5zM207 1682l147 252h130l146 -252h-145l-66 126l-67 -126h-145z" />
    <glyph glyph-name="Udieresis" unicode="&#xdc;" horiz-adv-x="839" 
d="M420 -17q-181 0 -260 76.5t-81 254.5q-8 643 0 1286h216q-5 -320 -4.5 -662t3.5 -662q0 -114 126 -114q124 0 124 114q3 320 4 662t-4 662h216q8 -643 0 -1286q-2 -178 -80.5 -254.5t-259.5 -76.5zM466 1710v154h154v-154h-154zM220 1710v154h153v-154h-153z" />
    <glyph glyph-name="Yacute" unicode="&#xdd;" horiz-adv-x="791" 
d="M287 0v402l-259 1198h221l81 -420l43 -464h45l41 464l82 420h222l-260 -1199v-401h-216zM318 1680l167 252h158l-174 -252h-151z" />
    <glyph glyph-name="Thorn" unicode="&#xde;" horiz-adv-x="804" 
d="M93 0v1600h216v-266h99q179 0 259.5 -75.5t86.5 -248.5q4 -109 4 -198t-4 -187q-6 -173 -86.5 -248.5t-260.5 -75.5h-98v-301h-216zM309 493h98q125 0 131 121q5 97 5 204t-5 203q-6 121 -130 121h-99v-649z" />
    <glyph glyph-name="germandbls" unicode="&#xdf;" horiz-adv-x="842" 
d="M93 0v1271q0 176 81 252.5t261 76.5t257 -75.5t78 -248.5q1 -65 1 -115.5t-2 -97.5q-5 -97 -40.5 -152t-109.5 -81v-40q81 -25 119.5 -82t41.5 -158q4 -113 0 -226q-7 -173 -86.5 -248.5t-259.5 -75.5h-39v192h39q128 0 130 135q3 106 0 213q-1 94 -32.5 134t-101.5 40
h-27v192h20q129 0 131 162q2 70 1 116t-2 116q-1 61 -30 91.5t-93 30.5q-63 0 -91 -31t-28 -90l-2 -1301h-216z" />
    <glyph glyph-name="agrave" unicode="&#xe0;" horiz-adv-x="823" 
d="M302 -14q-115 0 -169.5 60.5t-65.5 196.5q-1 22 -1.5 47.5t0.5 47.5q9 114 64 187t192 134q48 22 96 40.5t99 34.5v205q0 57 -22 85t-84 28q-54 0 -77 -23.5t-26 -82.5q-2 -29 -2 -87.5t2 -93.5h-210q-2 24 -3 72.5t1 85.5q6 154 77 224t244 70q180 0 247.5 -77
t67.5 -250l-1 -890h-216v119h-30q-29 -67 -70 -100t-113 -33zM387 144q88 0 129 98v342q-35 -11 -70 -26t-71 -38q-55 -33 -73.5 -78.5t-21.5 -103.5q-2 -42 0 -79q10 -115 107 -115zM319 1280l-160 252h157l153 -252h-150z" />
    <glyph glyph-name="aacute" unicode="&#xe1;" horiz-adv-x="823" 
d="M302 -14q-115 0 -169.5 60.5t-65.5 196.5q-1 22 -1.5 47.5t0.5 47.5q9 114 64 187t192 134q48 22 96 40.5t99 34.5v205q0 57 -22 85t-84 28q-54 0 -77 -23.5t-26 -82.5q-2 -29 -2 -87.5t2 -93.5h-210q-2 24 -3 72.5t1 85.5q6 154 77 224t244 70q180 0 247.5 -77
t67.5 -250l-1 -890h-216v119h-30q-29 -67 -70 -100t-113 -33zM387 144q88 0 129 98v342q-35 -11 -70 -26t-71 -38q-55 -33 -73.5 -78.5t-21.5 -103.5q-2 -42 0 -79q10 -115 107 -115zM346 1280l167 252h158l-174 -252h-151z" />
    <glyph glyph-name="acircumflex" unicode="&#xe2;" horiz-adv-x="823" 
d="M302 -14q-115 0 -169.5 60.5t-65.5 196.5q-1 22 -1.5 47.5t0.5 47.5q9 114 64 187t192 134q48 22 96 40.5t99 34.5v205q0 57 -22 85t-84 28q-54 0 -77 -23.5t-26 -82.5q-2 -29 -2 -87.5t2 -93.5h-210q-2 24 -3 72.5t1 85.5q6 154 77 224t244 70q180 0 247.5 -77
t67.5 -250l-1 -890h-216v119h-30q-29 -67 -70 -100t-113 -33zM387 144q88 0 129 98v342q-35 -11 -70 -26t-71 -38q-55 -33 -73.5 -78.5t-21.5 -103.5q-2 -42 0 -79q10 -115 107 -115zM203 1282l147 252h130l146 -252h-145l-66 126l-67 -126h-145z" />
    <glyph glyph-name="atilde" unicode="&#xe3;" horiz-adv-x="823" 
d="M302 -14q-115 0 -169.5 60.5t-65.5 196.5q-1 22 -1.5 47.5t0.5 47.5q9 114 64 187t192 134q48 22 96 40.5t99 34.5v205q0 57 -22 85t-84 28q-54 0 -77 -23.5t-26 -82.5q-2 -29 -2 -87.5t2 -93.5h-210q-2 24 -3 72.5t1 85.5q6 154 77 224t244 70q180 0 247.5 -77
t67.5 -250l-1 -890h-216v119h-30q-29 -67 -70 -100t-113 -33zM387 144q88 0 129 98v342q-35 -11 -70 -26t-71 -38q-55 -33 -73.5 -78.5t-21.5 -103.5q-2 -42 0 -79q10 -115 107 -115zM604 1456h89q-3 -96 -49.5 -140.5t-120.5 -42.5q-51 2 -84.5 22.5t-61.5 42t-63 23.5
q-30 2 -52.5 -16.5t-26.5 -59.5h-88q7 106 55.5 149.5t118.5 40.5q55 -3 87.5 -24t58 -41.5t59.5 -21.5q37 -2 57.5 17t20.5 51z" />
    <glyph glyph-name="adieresis" unicode="&#xe4;" horiz-adv-x="823" 
d="M302 -14q-115 0 -169.5 60.5t-65.5 196.5q-1 22 -1.5 47.5t0.5 47.5q9 114 64 187t192 134q48 22 96 40.5t99 34.5v205q0 57 -22 85t-84 28q-54 0 -77 -23.5t-26 -82.5q-2 -29 -2 -87.5t2 -93.5h-210q-2 24 -3 72.5t1 85.5q6 154 77 224t244 70q180 0 247.5 -77
t67.5 -250l-1 -890h-216v119h-30q-29 -67 -70 -100t-113 -33zM387 144q88 0 129 98v342q-35 -11 -70 -26t-71 -38q-55 -33 -73.5 -78.5t-21.5 -103.5q-2 -42 0 -79q10 -115 107 -115zM462 1310v154h154v-154h-154zM216 1310v154h153v-154h-153z" />
    <glyph glyph-name="aring" unicode="&#xe5;" horiz-adv-x="823" 
d="M302 -14q-115 0 -169.5 60.5t-65.5 196.5q-1 22 -1.5 47.5t0.5 47.5q9 114 64 187t192 134q48 22 96 40.5t99 34.5v205q0 57 -22 85t-84 28q-54 0 -77 -23.5t-26 -82.5q-2 -29 -2 -87.5t2 -93.5h-210q-2 24 -3 72.5t1 85.5q6 154 77 224t244 70q180 0 247.5 -77
t67.5 -250l-1 -890h-216v119h-30q-29 -67 -70 -100t-113 -33zM387 144q88 0 129 98v342q-35 -11 -70 -26t-71 -38q-55 -33 -73.5 -78.5t-21.5 -103.5q-2 -42 0 -79q10 -115 107 -115zM416 1272q-72 0 -123 51t-51 124q0 72 51 123t123 51t123.5 -51t51.5 -123
q0 -73 -51.5 -124t-123.5 -51zM416 1389q25 0 42 16.5t17 41.5q0 24 -17 41t-42 17q-24 0 -40.5 -17t-16.5 -41q0 -25 16.5 -41.5t40.5 -16.5z" />
    <glyph glyph-name="ae" unicode="&#xe6;" horiz-adv-x="1239" 
d="M302 -14q-105 0 -165.5 60.5t-69.5 196.5q-1 22 -1.5 47.5t0.5 47.5q8 105 68.5 174.5t187.5 123.5q98 45 195 78v113v112q0 57 -22 85t-84 28q-54 0 -77 -23.5t-26 -82.5q-2 -29 -2 -87.5t2 -93.5h-210q-2 24 -3 72.5t1 85.5q6 154 77 224t244 70q144 0 213 -52
q39 28 93.5 40t125.5 12q164 0 238.5 -68.5t81.5 -225.5q2 -40 2.5 -141.5t-4.5 -211.5h-436v-309q0 -63 29.5 -88t89.5 -25q56 0 80.5 25t27.5 88q1 30 1 76t-2 102h210q2 -28 3 -74t-1 -82q-7 -161 -80 -230.5t-238 -69.5q-117 0 -190.5 32.5t-108.5 103.5h-17
q-31 -68 -92.5 -100.5t-140.5 -32.5zM731 724h228q1 63 0 126t-1 96q-2 57 -28 81.5t-81 24.5q-60 0 -89 -24.5t-29 -81.5v-222zM387 144q29 0 59.5 14.5t51.5 56.5t21 126q0 50 -1 106t-1 114q-31 -11 -67.5 -26.5t-74.5 -39.5q-51 -29 -71.5 -66.5t-23.5 -90.5
q-1 -18 -1 -38.5t1 -40.5q10 -115 107 -115z" />
    <glyph glyph-name="ccedilla" unicode="&#xe7;" horiz-adv-x="799" 
d="M519 765q2 38 2 95t-1 86q-2 59 -28 82.5t-83 23.5q-58 0 -84 -23.5t-27 -82.5q-5 -179 -5 -344t5 -341q1 -63 27.5 -88t86.5 -25q56 0 81 25t27 88q1 31 1 76.5t-2 101.5h211q2 -28 2.5 -74t-0.5 -82q-7 -161 -81 -230.5t-239 -69.5q-170 0 -246.5 69.5t-84.5 230.5
q-2 57 -3 139.5t-1 173.5t1 174.5t3 143.5q10 163 86 233t242 70q167 0 241.5 -68.5t81.5 -226.5q1 -36 0.5 -82.5t-2.5 -74.5h-211zM206 -285v107h61q54 0 76 22.5t15 74.5l-16 95h116l15 -95q16 -107 -34.5 -155.5t-171.5 -48.5h-61z" />
    <glyph glyph-name="egrave" unicode="&#xe8;" horiz-adv-x="801" 
d="M413 -17q-170 0 -247 69.5t-85 230.5q-2 57 -3 139.5t-1 173t1 174.5t3 144q10 163 86.5 233t243.5 70q164 0 238.5 -68.5t82.5 -225.5q1 -27 1.5 -84.5t0 -131t-3.5 -146.5h-436q0 -73 1.5 -147.5t2.5 -152.5q2 -63 28.5 -88t85.5 -25q56 0 80 25t27 88t0 178h211
q2 -28 2.5 -74t-0.5 -82q-8 -161 -81 -230.5t-238 -69.5zM294 716h227q1 74 0.5 140t-2.5 90q-3 57 -28 81.5t-80 24.5q-60 0 -85.5 -24.5t-27.5 -81.5q-1 -62 -2 -118.5t-2 -111.5zM310 1280l-160 252h157l153 -252h-150z" />
    <glyph glyph-name="eacute" unicode="&#xe9;" horiz-adv-x="801" 
d="M413 -17q-170 0 -247 69.5t-85 230.5q-2 57 -3 139.5t-1 173t1 174.5t3 144q10 163 86.5 233t243.5 70q164 0 238.5 -68.5t82.5 -225.5q1 -27 1.5 -84.5t0 -131t-3.5 -146.5h-436q0 -73 1.5 -147.5t2.5 -152.5q2 -63 28.5 -88t85.5 -25q56 0 80 25t27 88t0 178h211
q2 -28 2.5 -74t-0.5 -82q-8 -161 -81 -230.5t-238 -69.5zM294 716h227q1 74 0.5 140t-2.5 90q-3 57 -28 81.5t-80 24.5q-60 0 -85.5 -24.5t-27.5 -81.5q-1 -62 -2 -118.5t-2 -111.5zM337 1280l167 252h158l-174 -252h-151z" />
    <glyph glyph-name="ecircumflex" unicode="&#xea;" horiz-adv-x="801" 
d="M413 -17q-170 0 -247 69.5t-85 230.5q-2 57 -3 139.5t-1 173t1 174.5t3 144q10 163 86.5 233t243.5 70q164 0 238.5 -68.5t82.5 -225.5q1 -27 1.5 -84.5t0 -131t-3.5 -146.5h-436q0 -73 1.5 -147.5t2.5 -152.5q2 -63 28.5 -88t85.5 -25q56 0 80 25t27 88t0 178h211
q2 -28 2.5 -74t-0.5 -82q-8 -161 -81 -230.5t-238 -69.5zM294 716h227q1 74 0.5 140t-2.5 90q-3 57 -28 81.5t-80 24.5q-60 0 -85.5 -24.5t-27.5 -81.5q-1 -62 -2 -118.5t-2 -111.5zM194 1282l147 252h130l146 -252h-145l-66 126l-67 -126h-145z" />
    <glyph glyph-name="edieresis" unicode="&#xeb;" horiz-adv-x="801" 
d="M413 -17q-170 0 -247 69.5t-85 230.5q-2 57 -3 139.5t-1 173t1 174.5t3 144q10 163 86.5 233t243.5 70q164 0 238.5 -68.5t82.5 -225.5q1 -27 1.5 -84.5t0 -131t-3.5 -146.5h-436q0 -73 1.5 -147.5t2.5 -152.5q2 -63 28.5 -88t85.5 -25q56 0 80 25t27 88t0 178h211
q2 -28 2.5 -74t-0.5 -82q-8 -161 -81 -230.5t-238 -69.5zM294 716h227q1 74 0.5 140t-2.5 90q-3 57 -28 81.5t-80 24.5q-60 0 -85.5 -24.5t-27.5 -81.5q-1 -62 -2 -118.5t-2 -111.5zM453 1310v154h154v-154h-154zM207 1310v154h153v-154h-153z" />
    <glyph glyph-name="igrave" unicode="&#xec;" horiz-adv-x="408" 
d="M96 0v1200h216v-1200h-216zM107 1280l-160 252h157l153 -252h-150z" />
    <glyph glyph-name="iacute" unicode="&#xed;" horiz-adv-x="408" 
d="M96 0v1200h216v-1200h-216zM134 1280l167 252h158l-174 -252h-151z" />
    <glyph glyph-name="icircumflex" unicode="&#xee;" horiz-adv-x="408" 
d="M96 0v1200h216v-1200h-216zM-9 1282l147 252h130l146 -252h-145l-66 126l-67 -126h-145z" />
    <glyph glyph-name="idieresis" unicode="&#xef;" horiz-adv-x="408" 
d="M96 0v1200h216v-1200h-216zM250 1310v154h154v-154h-154zM4 1310v154h153v-154h-153z" />
    <glyph glyph-name="eth" unicode="&#xf0;" horiz-adv-x="860" 
d="M439 -17q-181 0 -260.5 77t-88.5 255q-3 90 -3 215.5t2 258.5q3 136 70 212.5t173 76.5q68 0 116 -26.5t70 -68.5h21q-28 132 -100 238l-132 -65l-38 76l113 57q-33 43 -73 77.5t-86 66.5l116 183q72 -48 131 -100t106 -115l128 63l38 -77l-115 -56q74 -117 110 -263
t42 -328q2 -94 2 -213t-2 -212q-7 -178 -83.5 -255t-256.5 -77zM437 161q122 0 126 116q3 120 3.5 252t-4.5 272q-2 48 -39 74t-96 26q-119 0 -122 -116q-2 -124 -2 -259t4 -249q4 -116 130 -116z" />
    <glyph glyph-name="ntilde" unicode="&#xf1;" horiz-adv-x="873" 
d="M96 0v1200h216v-118h40q35 65 78 100t124 35q109 0 168 -66.5t60 -221.5v-929h-216v947q-1 109 -100 109q-47 0 -91 -27.5t-63 -76.5v-952h-216zM629 1456h89q-3 -96 -49.5 -140.5t-120.5 -42.5q-51 2 -84.5 22.5t-61.5 42t-63 23.5q-30 2 -52.5 -16.5t-26.5 -59.5h-88
q7 106 55.5 149.5t118.5 40.5q55 -3 87.5 -24t58 -41.5t59.5 -21.5q37 -2 57.5 17t20.5 51z" />
    <glyph glyph-name="ograve" unicode="&#xf2;" horiz-adv-x="835" 
d="M418 -17q-180 0 -253.5 76t-82.5 255q-2 76 -3.5 180t-0.5 208.5t4 184.5q9 177 82 253.5t254 76.5q182 0 253.5 -77t81.5 -253q2 -77 3.5 -180.5t0.5 -208t-4 -184.5q-10 -176 -81.5 -253.5t-253.5 -77.5zM418 148q63 0 90 27t28 87q6 176 6 338.5t-6 338.5
q-1 59 -27.5 86t-90.5 27q-62 0 -90 -27t-30 -86q-5 -176 -5 -339.5t5 -337.5q2 -60 30 -87t90 -27zM322 1280l-160 252h157l153 -252h-150z" />
    <glyph glyph-name="oacute" unicode="&#xf3;" horiz-adv-x="835" 
d="M418 -17q-180 0 -253.5 76t-82.5 255q-2 76 -3.5 180t-0.5 208.5t4 184.5q9 177 82 253.5t254 76.5q182 0 253.5 -77t81.5 -253q2 -77 3.5 -180.5t0.5 -208t-4 -184.5q-10 -176 -81.5 -253.5t-253.5 -77.5zM418 148q63 0 90 27t28 87q6 176 6 338.5t-6 338.5
q-1 59 -27.5 86t-90.5 27q-62 0 -90 -27t-30 -86q-5 -176 -5 -339.5t5 -337.5q2 -60 30 -87t90 -27zM348 1280l167 252h158l-174 -252h-151z" />
    <glyph glyph-name="ocircumflex" unicode="&#xf4;" horiz-adv-x="835" 
d="M418 -17q-180 0 -253.5 76t-82.5 255q-2 76 -3.5 180t-0.5 208.5t4 184.5q9 177 82 253.5t254 76.5q182 0 253.5 -77t81.5 -253q2 -77 3.5 -180.5t0.5 -208t-4 -184.5q-10 -176 -81.5 -253.5t-253.5 -77.5zM418 148q63 0 90 27t28 87q6 176 6 338.5t-6 338.5
q-1 59 -27.5 86t-90.5 27q-62 0 -90 -27t-30 -86q-5 -176 -5 -339.5t5 -337.5q2 -60 30 -87t90 -27zM205 1282l147 252h130l146 -252h-145l-66 126l-67 -126h-145z" />
    <glyph glyph-name="otilde" unicode="&#xf5;" horiz-adv-x="835" 
d="M418 -17q-180 0 -253.5 76t-82.5 255q-2 76 -3.5 180t-0.5 208.5t4 184.5q9 177 82 253.5t254 76.5q182 0 253.5 -77t81.5 -253q2 -77 3.5 -180.5t0.5 -208t-4 -184.5q-10 -176 -81.5 -253.5t-253.5 -77.5zM418 148q63 0 90 27t28 87q6 176 6 338.5t-6 338.5
q-1 59 -27.5 86t-90.5 27q-62 0 -90 -27t-30 -86q-5 -176 -5 -339.5t5 -337.5q2 -60 30 -87t90 -27zM607 1456h89q-3 -96 -49.5 -140.5t-120.5 -42.5q-51 2 -84.5 22.5t-61.5 42t-63 23.5q-30 2 -52.5 -16.5t-26.5 -59.5h-88q7 106 55.5 149.5t118.5 40.5q55 -3 87.5 -24
t58 -41.5t59.5 -21.5q37 -2 57.5 17t20.5 51z" />
    <glyph glyph-name="odieresis" unicode="&#xf6;" horiz-adv-x="835" 
d="M418 -17q-180 0 -253.5 76t-82.5 255q-2 76 -3.5 180t-0.5 208.5t4 184.5q9 177 82 253.5t254 76.5q182 0 253.5 -77t81.5 -253q2 -77 3.5 -180.5t0.5 -208t-4 -184.5q-10 -176 -81.5 -253.5t-253.5 -77.5zM418 148q63 0 90 27t28 87q6 176 6 338.5t-6 338.5
q-1 59 -27.5 86t-90.5 27q-62 0 -90 -27t-30 -86q-5 -176 -5 -339.5t5 -337.5q2 -60 30 -87t90 -27zM465 1310v154h154v-154h-154zM219 1310v154h153v-154h-153z" />
    <glyph glyph-name="divide" unicode="&#xf7;" horiz-adv-x="988" 
d="M405 941v180h180v-180h-180zM93 663v164h802v-164h-802zM405 369v180h180v-180h-180z" />
    <glyph glyph-name="oslash" unicode="&#xf8;" horiz-adv-x="835" 
d="M418 -17q-180 0 -253.5 76t-82.5 255q-2 76 -3.5 180t-0.5 208.5t4 184.5q9 177 82 253.5t254 76.5q182 0 253.5 -77t81.5 -253q2 -77 3.5 -180.5t0.5 -208t-4 -184.5q-10 -176 -81.5 -253.5t-253.5 -77.5zM298 939q-6 -208 -5 -403l247 274q-2 63 -4 129q-1 59 -27.5 86
t-90.5 27q-62 0 -90 -27t-30 -86zM418 148q63 0 90 27t28 87q7 198 6 383l-246 -273q1 -54 2 -110q2 -60 30 -87t90 -27z" />
    <glyph glyph-name="ugrave" unicode="&#xf9;" horiz-adv-x="867" 
d="M321 -17q-109 0 -171 67t-62 221v929h216v-947q0 -109 97 -109q46 0 90.5 27.5t63.5 76.5v952h216v-1200h-216v118h-32q-73 -135 -202 -135zM330 1280l-160 252h157l153 -252h-150z" />
    <glyph glyph-name="uacute" unicode="&#xfa;" horiz-adv-x="867" 
d="M321 -17q-109 0 -171 67t-62 221v929h216v-947q0 -109 97 -109q46 0 90.5 27.5t63.5 76.5v952h216v-1200h-216v118h-32q-73 -135 -202 -135zM357 1280l167 252h158l-174 -252h-151z" />
    <glyph glyph-name="ucircumflex" unicode="&#xfb;" horiz-adv-x="867" 
d="M321 -17q-109 0 -171 67t-62 221v929h216v-947q0 -109 97 -109q46 0 90.5 27.5t63.5 76.5v952h216v-1200h-216v118h-32q-73 -135 -202 -135zM214 1282l147 252h130l146 -252h-145l-66 126l-67 -126h-145z" />
    <glyph glyph-name="udieresis" unicode="&#xfc;" horiz-adv-x="867" 
d="M321 -17q-109 0 -171 67t-62 221v929h216v-947q0 -109 97 -109q46 0 90.5 27.5t63.5 76.5v952h216v-1200h-216v118h-32q-73 -135 -202 -135zM473 1310v154h154v-154h-154zM227 1310v154h153v-154h-153z" />
    <glyph glyph-name="yacute" unicode="&#xfd;" horiz-adv-x="769" 
d="M191 -414q-30 0 -66 3.5t-67 8.5v163q25 -2 64 -4t68 -2q77 0 105.5 25.5t37.5 88.5l17 131h-114l-200 1200h220l71 -563l46 -475h45l43 475l59 563h219l-191 -1315q-16 -106 -53.5 -172t-109.5 -96.5t-194 -30.5zM323 1280l167 252h158l-174 -252h-151z" />
    <glyph glyph-name="thorn" unicode="&#xfe;" horiz-adv-x="873" 
d="M93 -400v2000h216v-518h34q35 66 77 100.5t124 34.5q110 0 168 -66.5t64 -221.5q2 -58 3 -143t1 -179.5t-1 -183t-3 -152.5q-6 -154 -69.5 -221t-173.5 -67q-63 0 -107 31.5t-83 103.5h-34v-518h-216zM449 144q107 0 111 109q7 168 6.5 354t-6.5 340q-2 57 -24.5 83
t-72.5 26q-49 0 -92 -26.5t-62 -77.5v-704q21 -56 54 -80t86 -24z" />
    <glyph glyph-name="ydieresis" unicode="&#xff;" horiz-adv-x="769" 
d="M191 -414q-30 0 -66 3.5t-67 8.5v163q25 -2 64 -4t68 -2q77 0 105.5 25.5t37.5 88.5l17 131h-114l-200 1200h220l71 -563l46 -475h45l43 475l59 563h219l-191 -1315q-16 -106 -53.5 -172t-109.5 -96.5t-194 -30.5zM439 1310v154h154v-154h-154zM193 1310v154h153v-154
h-153z" />
    <glyph glyph-name="Amacron" unicode="&#x100;" horiz-adv-x="816" 
d="M32 0l196 1600h360l196 -1600h-221l-38 399h-234l-37 -399h-222zM312 591h193l-34 352l-35 465h-56l-34 -465zM130 1790h556v-110h-556v110z" />
    <glyph glyph-name="amacron" unicode="&#x101;" horiz-adv-x="823" 
d="M302 -14q-115 0 -169.5 60.5t-65.5 196.5q-1 22 -1.5 47.5t0.5 47.5q9 114 64 187t192 134q48 22 96 40.5t99 34.5v205q0 57 -22 85t-84 28q-54 0 -77 -23.5t-26 -82.5q-2 -29 -2 -87.5t2 -93.5h-210q-2 24 -3 72.5t1 85.5q6 154 77 224t244 70q180 0 247.5 -77
t67.5 -250l-1 -890h-216v119h-30q-29 -67 -70 -100t-113 -33zM387 144q88 0 129 98v342q-35 -11 -70 -26t-71 -38q-55 -33 -73.5 -78.5t-21.5 -103.5q-2 -42 0 -79q10 -115 107 -115zM137 1390h556v-110h-556v110z" />
    <glyph glyph-name="Abreve" unicode="&#x102;" horiz-adv-x="816" 
d="M32 0l196 1600h360l196 -1600h-221l-38 399h-234l-37 -399h-222zM312 591h193l-34 352l-35 465h-56l-34 -465zM408 1672q-130 0 -189.5 58.5t-66.5 194.5h132q1 -75 29.5 -107.5t94.5 -32.5q67 0 95.5 32.5t28.5 107.5h132q-7 -136 -66.5 -194.5t-189.5 -58.5z" />
    <glyph glyph-name="abreve" unicode="&#x103;" horiz-adv-x="823" 
d="M302 -14q-115 0 -169.5 60.5t-65.5 196.5q-1 22 -1.5 47.5t0.5 47.5q9 114 64 187t192 134q48 22 96 40.5t99 34.5v205q0 57 -22 85t-84 28q-54 0 -77 -23.5t-26 -82.5q-2 -29 -2 -87.5t2 -93.5h-210q-2 24 -3 72.5t1 85.5q6 154 77 224t244 70q180 0 247.5 -77
t67.5 -250l-1 -890h-216v119h-30q-29 -67 -70 -100t-113 -33zM387 144q88 0 129 98v342q-35 -11 -70 -26t-71 -38q-55 -33 -73.5 -78.5t-21.5 -103.5q-2 -42 0 -79q10 -115 107 -115zM416 1272q-130 0 -189.5 58.5t-66.5 194.5h132q1 -75 29.5 -107.5t94.5 -32.5
q67 0 95.5 32.5t28.5 107.5h132q-7 -136 -66.5 -194.5t-189.5 -58.5z" />
    <glyph glyph-name="Aogonek" unicode="&#x104;" horiz-adv-x="816" 
d="M32 0l196 1600h360l196 -1600h-221l-38 399h-234l-37 -399h-222zM312 591h193l-34 352l-35 465h-56l-34 -465zM814 -298h-61q-120 0 -171 48.5t-35 155.5l16 95h116l-16 -95q-7 -52 14.5 -74.5t75.5 -22.5h61v-107z" />
    <glyph glyph-name="aogonek" unicode="&#x105;" horiz-adv-x="823" 
d="M302 -14q-115 0 -169.5 60.5t-65.5 196.5q-1 22 -1.5 47.5t0.5 47.5q9 114 64 187t192 134q48 22 96 40.5t99 34.5v205q0 57 -22 85t-84 28q-54 0 -77 -23.5t-26 -82.5q-2 -29 -2 -87.5t2 -93.5h-210q-2 24 -3 72.5t1 85.5q6 154 77 224t244 70q180 0 247.5 -77
t67.5 -250l-1 -890h-216v119h-30q-29 -67 -70 -100t-113 -33zM387 144q88 0 129 98v342q-35 -11 -70 -26t-71 -38q-55 -33 -73.5 -78.5t-21.5 -103.5q-2 -42 0 -79q10 -115 107 -115zM762 -293h-61q-120 0 -171 48.5t-35 155.5l16 95h116l-16 -95q-7 -52 14.5 -74.5
t75.5 -22.5h61v-107z" />
    <glyph glyph-name="Cacute" unicode="&#x106;" horiz-adv-x="839" 
d="M425 -17q-182 0 -259.5 77t-80.5 255q-3 150 -4 317.5t0 335.5t4 319q2 156 82 242.5t257 86.5q176 0 255 -77t85 -254q1 -53 0 -131.5t-2 -131.5h-216q1 66 2 150.5t-1 150.5q-3 115 -123 115t-123 -115q-7 -253 -7 -523t7 -523q3 -116 124 -116q127 0 130 116
q2 68 1.5 156t-1.5 155h216q2 -66 2 -136.5t-1 -136.5q-6 -178 -86.5 -255t-260.5 -77zM348 1680l167 252h158l-174 -252h-151z" />
    <glyph glyph-name="cacute" unicode="&#x107;" horiz-adv-x="799" 
d="M519 765q2 38 2 95t-1 86q-2 59 -28 82.5t-83 23.5q-58 0 -84 -23.5t-27 -82.5q-5 -179 -5 -344t5 -341q1 -63 27.5 -88t86.5 -25q56 0 81 25t27 88q1 31 1 76.5t-2 101.5h211q2 -28 2.5 -74t-0.5 -82q-7 -161 -81 -230.5t-239 -69.5q-170 0 -246.5 69.5t-84.5 230.5
q-2 57 -3 139.5t-1 173.5t1 174.5t3 143.5q10 163 86 233t242 70q167 0 241.5 -68.5t81.5 -226.5q1 -36 0.5 -82.5t-2.5 -74.5h-211zM339 1280l167 252h158l-174 -252h-151z" />
    <glyph glyph-name="Ccircumflex" unicode="&#x108;" horiz-adv-x="839" 
d="M425 -17q-182 0 -259.5 77t-80.5 255q-3 150 -4 317.5t0 335.5t4 319q2 156 82 242.5t257 86.5q176 0 255 -77t85 -254q1 -53 0 -131.5t-2 -131.5h-216q1 66 2 150.5t-1 150.5q-3 115 -123 115t-123 -115q-7 -253 -7 -523t7 -523q3 -116 124 -116q127 0 130 116
q2 68 1.5 156t-1.5 155h216q2 -66 2 -136.5t-1 -136.5q-6 -178 -86.5 -255t-260.5 -77zM205 1682l147 252h130l146 -252h-145l-66 126l-67 -126h-145z" />
    <glyph glyph-name="ccircumflex" unicode="&#x109;" horiz-adv-x="799" 
d="M519 765q2 38 2 95t-1 86q-2 59 -28 82.5t-83 23.5q-58 0 -84 -23.5t-27 -82.5q-5 -179 -5 -344t5 -341q1 -63 27.5 -88t86.5 -25q56 0 81 25t27 88q1 31 1 76.5t-2 101.5h211q2 -28 2.5 -74t-0.5 -82q-7 -161 -81 -230.5t-239 -69.5q-170 0 -246.5 69.5t-84.5 230.5
q-2 57 -3 139.5t-1 173.5t1 174.5t3 143.5q10 163 86 233t242 70q167 0 241.5 -68.5t81.5 -226.5q1 -36 0.5 -82.5t-2.5 -74.5h-211zM196 1282l147 252h130l146 -252h-145l-66 126l-67 -126h-145z" />
    <glyph glyph-name="Cdotaccent" unicode="&#x10a;" horiz-adv-x="839" 
d="M425 -17q-182 0 -259.5 77t-80.5 255q-3 150 -4 317.5t0 335.5t4 319q2 156 82 242.5t257 86.5q176 0 255 -77t85 -254q1 -53 0 -131.5t-2 -131.5h-216q1 66 2 150.5t-1 150.5q-3 115 -123 115t-123 -115q-7 -253 -7 -523t7 -523q3 -116 124 -116q127 0 130 116
q2 68 1.5 156t-1.5 155h216q2 -66 2 -136.5t-1 -136.5q-6 -178 -86.5 -255t-260.5 -77zM341 1680v154h153v-154h-153z" />
    <glyph glyph-name="cdotaccent" unicode="&#x10b;" horiz-adv-x="799" 
d="M519 765q2 38 2 95t-1 86q-2 59 -28 82.5t-83 23.5q-58 0 -84 -23.5t-27 -82.5q-5 -179 -5 -344t5 -341q1 -63 27.5 -88t86.5 -25q56 0 81 25t27 88q1 31 1 76.5t-2 101.5h211q2 -28 2.5 -74t-0.5 -82q-7 -161 -81 -230.5t-239 -69.5q-170 0 -246.5 69.5t-84.5 230.5
q-2 57 -3 139.5t-1 173.5t1 174.5t3 143.5q10 163 86 233t242 70q167 0 241.5 -68.5t81.5 -226.5q1 -36 0.5 -82.5t-2.5 -74.5h-211zM332 1280v154h153v-154h-153z" />
    <glyph glyph-name="Ccaron" unicode="&#x10c;" horiz-adv-x="839" 
d="M425 -17q-182 0 -259.5 77t-80.5 255q-3 150 -4 317.5t0 335.5t4 319q2 156 82 242.5t257 86.5q176 0 255 -77t85 -254q1 -53 0 -131.5t-2 -131.5h-216q1 66 2 150.5t-1 150.5q-3 115 -123 115t-123 -115q-7 -253 -7 -523t7 -523q3 -116 124 -116q127 0 130 116
q2 68 1.5 156t-1.5 155h216q2 -66 2 -136.5t-1 -136.5q-6 -178 -86.5 -255t-260.5 -77zM359 1682l-147 252h130l75 -141l75 141h130l-147 -252h-116z" />
    <glyph glyph-name="ccaron" unicode="&#x10d;" horiz-adv-x="799" 
d="M519 765q2 38 2 95t-1 86q-2 59 -28 82.5t-83 23.5q-58 0 -84 -23.5t-27 -82.5q-5 -179 -5 -344t5 -341q1 -63 27.5 -88t86.5 -25q56 0 81 25t27 88q1 31 1 76.5t-2 101.5h211q2 -28 2.5 -74t-0.5 -82q-7 -161 -81 -230.5t-239 -69.5q-170 0 -246.5 69.5t-84.5 230.5
q-2 57 -3 139.5t-1 173.5t1 174.5t3 143.5q10 163 86 233t242 70q167 0 241.5 -68.5t81.5 -226.5q1 -36 0.5 -82.5t-2.5 -74.5h-211zM350 1282l-147 252h130l75 -141l75 141h130l-147 -252h-116z" />
    <glyph glyph-name="Dcaron" unicode="&#x10e;" horiz-adv-x="855" 
d="M93 0v1600h331q181 0 262 -78.5t84 -259.5q3 -165 4 -313t0 -296.5t-4 -313.5q-3 -181 -84 -260t-263 -79h-330zM309 192h114q128 0 131 123q10 486 0 972q-3 121 -130 121h-115v-1216zM369 1682l-147 252h130l75 -141l75 141h130l-147 -252h-116z" />
    <glyph glyph-name="dcaron" unicode="&#x10f;" horiz-adv-x="1021" 
d="M311 -17q-110 0 -166.5 67t-63.5 221q-2 89 -3 206.5t0 237t3 214.5q7 155 65.5 221.5t167.5 66.5q82 0 124 -34.5t78 -100.5h33v518h216v-1600h-216v118h-34q-36 -65 -79 -100t-125 -35zM395 144q48 0 91.5 26.5t62.5 77.5v704q-19 51 -62.5 77.5t-91.5 26.5
q-50 0 -72.5 -26t-24.5 -83q-5 -112 -6 -235t0 -241.5t6 -217.5q2 -57 24.5 -83t72.5 -26zM827 1348l51 252h144l-58 -252h-137z" />
    <glyph glyph-name="Dcroat" unicode="&#x110;" horiz-adv-x="940" 
d="M178 0v836h-78v110h78v654h331q181 0 262 -78.5t84 -259.5q3 -165 4 -313t0 -296.5t-4 -313.5q-3 -181 -84 -260t-263 -79h-330zM394 192h114q128 0 131 123q10 486 0 972q-3 121 -130 121h-115v-462h133v-110h-133v-644z" />
    <glyph glyph-name="dcroat" unicode="&#x111;" horiz-adv-x="861" 
d="M311 -17q-110 0 -166.5 67t-63.5 221q-2 89 -3 206.5t0 237t3 214.5q7 155 65.5 221.5t167.5 66.5q82 0 124 -34.5t78 -100.5h33v258h-171v119h171v141h216v-141h67v-119h-67v-1340h-216v118h-34q-36 -65 -79 -100t-125 -35zM395 144q48 0 91.5 26.5t62.5 77.5v704
q-19 51 -62.5 77.5t-91.5 26.5q-50 0 -72.5 -26t-24.5 -83q-5 -112 -6 -235t0 -241.5t6 -217.5q2 -57 24.5 -83t72.5 -26z" />
    <glyph glyph-name="Emacron" unicode="&#x112;" horiz-adv-x="709" 
d="M93 0v1600h572v-192h-356v-502h336v-192h-336v-522h356v-192h-572zM86 1790h556v-110h-556v110z" />
    <glyph glyph-name="emacron" unicode="&#x113;" horiz-adv-x="801" 
d="M413 -17q-170 0 -247 69.5t-85 230.5q-2 57 -3 139.5t-1 173t1 174.5t3 144q10 163 86.5 233t243.5 70q164 0 238.5 -68.5t82.5 -225.5q1 -27 1.5 -84.5t0 -131t-3.5 -146.5h-436q0 -73 1.5 -147.5t2.5 -152.5q2 -63 28.5 -88t85.5 -25q56 0 80 25t27 88t0 178h211
q2 -28 2.5 -74t-0.5 -82q-8 -161 -81 -230.5t-238 -69.5zM294 716h227q1 74 0.5 140t-2.5 90q-3 57 -28 81.5t-80 24.5q-60 0 -85.5 -24.5t-27.5 -81.5q-1 -62 -2 -118.5t-2 -111.5zM128 1390h556v-110h-556v110z" />
    <glyph glyph-name="Ebreve" unicode="&#x114;" horiz-adv-x="709" 
d="M93 0v1600h572v-192h-356v-502h336v-192h-336v-522h356v-192h-572zM364 1672q-130 0 -189.5 58.5t-66.5 194.5h132q1 -75 29.5 -107.5t94.5 -32.5q67 0 95.5 32.5t28.5 107.5h132q-7 -136 -66.5 -194.5t-189.5 -58.5z" />
    <glyph glyph-name="ebreve" unicode="&#x115;" horiz-adv-x="801" 
d="M413 -17q-170 0 -247 69.5t-85 230.5q-2 57 -3 139.5t-1 173t1 174.5t3 144q10 163 86.5 233t243.5 70q164 0 238.5 -68.5t82.5 -225.5q1 -27 1.5 -84.5t0 -131t-3.5 -146.5h-436q0 -73 1.5 -147.5t2.5 -152.5q2 -63 28.5 -88t85.5 -25q56 0 80 25t27 88t0 178h211
q2 -28 2.5 -74t-0.5 -82q-8 -161 -81 -230.5t-238 -69.5zM294 716h227q1 74 0.5 140t-2.5 90q-3 57 -28 81.5t-80 24.5q-60 0 -85.5 -24.5t-27.5 -81.5q-1 -62 -2 -118.5t-2 -111.5zM407 1272q-130 0 -189.5 58.5t-66.5 194.5h132q1 -75 29.5 -107.5t94.5 -32.5
q67 0 95.5 32.5t28.5 107.5h132q-7 -136 -66.5 -194.5t-189.5 -58.5z" />
    <glyph glyph-name="Edotaccent" unicode="&#x116;" horiz-adv-x="709" 
d="M93 0v1600h572v-192h-356v-502h336v-192h-336v-522h356v-192h-572zM288 1680v154h153v-154h-153z" />
    <glyph glyph-name="edotaccent" unicode="&#x117;" horiz-adv-x="801" 
d="M413 -17q-170 0 -247 69.5t-85 230.5q-2 57 -3 139.5t-1 173t1 174.5t3 144q10 163 86.5 233t243.5 70q164 0 238.5 -68.5t82.5 -225.5q1 -27 1.5 -84.5t0 -131t-3.5 -146.5h-436q0 -73 1.5 -147.5t2.5 -152.5q2 -63 28.5 -88t85.5 -25q56 0 80 25t27 88t0 178h211
q2 -28 2.5 -74t-0.5 -82q-8 -161 -81 -230.5t-238 -69.5zM294 716h227q1 74 0.5 140t-2.5 90q-3 57 -28 81.5t-80 24.5q-60 0 -85.5 -24.5t-27.5 -81.5q-1 -62 -2 -118.5t-2 -111.5zM330 1280v154h153v-154h-153z" />
    <glyph glyph-name="Eogonek" unicode="&#x118;" horiz-adv-x="709" 
d="M93 0v1600h572v-192h-356v-502h336v-192h-336v-522h356v-192h-572zM667 -293h-61q-120 0 -171 48.5t-35 155.5l16 95h116l-16 -95q-7 -52 14.5 -74.5t75.5 -22.5h61v-107z" />
    <glyph glyph-name="eogonek" unicode="&#x119;" horiz-adv-x="801" 
d="M413 -17q-170 0 -247 69.5t-85 230.5q-2 57 -3 139.5t-1 173t1 174.5t3 144q10 163 86.5 233t243.5 70q164 0 238.5 -68.5t82.5 -225.5q1 -27 1.5 -84.5t0 -131t-3.5 -146.5h-436q0 -73 1.5 -147.5t2.5 -152.5q2 -63 28.5 -88t85.5 -25q56 0 80 25t27 88t0 178h211
q2 -28 2.5 -74t-0.5 -82q-8 -161 -81 -230.5t-238 -69.5zM294 716h227q1 74 0.5 140t-2.5 90q-3 57 -28 81.5t-80 24.5q-60 0 -85.5 -24.5t-27.5 -81.5q-1 -62 -2 -118.5t-2 -111.5zM734 -277h-61q-120 0 -171 48.5t-35 155.5l16 95h116l-16 -95q-7 -52 14.5 -74.5
t75.5 -22.5h61v-107z" />
    <glyph glyph-name="Ecaron" unicode="&#x11a;" horiz-adv-x="709" 
d="M93 0v1600h572v-192h-356v-502h336v-192h-336v-522h356v-192h-572zM306 1682l-147 252h130l75 -141l75 141h130l-147 -252h-116z" />
    <glyph glyph-name="ecaron" unicode="&#x11b;" horiz-adv-x="801" 
d="M413 -17q-170 0 -247 69.5t-85 230.5q-2 57 -3 139.5t-1 173t1 174.5t3 144q10 163 86.5 233t243.5 70q164 0 238.5 -68.5t82.5 -225.5q1 -27 1.5 -84.5t0 -131t-3.5 -146.5h-436q0 -73 1.5 -147.5t2.5 -152.5q2 -63 28.5 -88t85.5 -25q56 0 80 25t27 88t0 178h211
q2 -28 2.5 -74t-0.5 -82q-8 -161 -81 -230.5t-238 -69.5zM294 716h227q1 74 0.5 140t-2.5 90q-3 57 -28 81.5t-80 24.5q-60 0 -85.5 -24.5t-27.5 -81.5q-1 -62 -2 -118.5t-2 -111.5zM348 1282l-147 252h130l75 -141l75 141h130l-147 -252h-116z" />
    <glyph glyph-name="Gcircumflex" unicode="&#x11c;" horiz-adv-x="842" 
d="M428 -17q-183 0 -259.5 77.5t-82.5 255.5q-3 147 -4.5 314t0 333t4.5 311q7 186 84.5 264.5t256.5 78.5q171 0 249.5 -77t88.5 -254q6 -132 0 -263h-216q3 68 3 150.5t-3 150.5q-6 115 -122 115q-120 0 -125 -115q-9 -250 -9 -523t9 -523q4 -116 126 -116q126 0 133 116
q2 58 2 130.5t-2 130.5h-122v189h333q3 -84 2.5 -190.5t-4.5 -221.5q-8 -178 -87.5 -255.5t-254.5 -77.5zM208 1682l147 252h130l146 -252h-145l-66 126l-67 -126h-145z" />
    <glyph glyph-name="gcircumflex" unicode="&#x11d;" horiz-adv-x="865" 
d="M392 -364q-290 0 -319 176q-2 11 -3.5 28t-0.5 31q7 55 41 88t87 40v34q-102 22 -112 110q-1 16 -0.5 26.5t0.5 22.5q5 42 40 69.5t86 35.5v34q-133 60 -144 267q-2 65 -3 112.5t0 94.5t3 109q11 163 85 233t248 70q118 0 185 -30.5t103 -96.5h34q13 110 141 110v-166
h-32q-45 0 -70 -27.5t-26 -91.5l-1 -84q1 -62 1 -111t-3 -122q-9 -162 -82.5 -232t-249.5 -70q-85 0 -118.5 -16t-33.5 -51v-9q0 -34 26.5 -47.5t126.5 -16.5q176 -4 260.5 -56t100.5 -166q5 -37 0 -75q-16 -124 -107.5 -173.5t-262.5 -49.5zM400 460q63 0 90 26.5t30 83.5
q9 172 0 371q-3 58 -29.5 84.5t-90.5 26.5q-65 0 -92 -26.5t-29 -86.5q-4 -99 -4.5 -188.5t4.5 -176.5q3 -60 30 -87t91 -27zM406 -211q78 0 123 19t54 66q6 25 -1 52q-9 47 -52.5 63t-123.5 18q-74 2 -113.5 -16.5t-48.5 -65.5q-5 -27 0 -51q9 -49 48.5 -67t113.5 -18z
M190 1282l147 252h130l146 -252h-145l-66 126l-67 -126h-145z" />
    <glyph glyph-name="Gbreve" unicode="&#x11e;" horiz-adv-x="842" 
d="M428 -17q-183 0 -259.5 77.5t-82.5 255.5q-3 147 -4.5 314t0 333t4.5 311q7 186 84.5 264.5t256.5 78.5q171 0 249.5 -77t88.5 -254q6 -132 0 -263h-216q3 68 3 150.5t-3 150.5q-6 115 -122 115q-120 0 -125 -115q-9 -250 -9 -523t9 -523q4 -116 126 -116q126 0 133 116
q2 58 2 130.5t-2 130.5h-122v189h333q3 -84 2.5 -190.5t-4.5 -221.5q-8 -178 -87.5 -255.5t-254.5 -77.5zM420 1672q-130 0 -189.5 58.5t-66.5 194.5h132q1 -75 29.5 -107.5t94.5 -32.5q67 0 95.5 32.5t28.5 107.5h132q-7 -136 -66.5 -194.5t-189.5 -58.5z" />
    <glyph glyph-name="gbreve" unicode="&#x11f;" horiz-adv-x="865" 
d="M392 -364q-290 0 -319 176q-2 11 -3.5 28t-0.5 31q7 55 41 88t87 40v34q-102 22 -112 110q-1 16 -0.5 26.5t0.5 22.5q5 42 40 69.5t86 35.5v34q-133 60 -144 267q-2 65 -3 112.5t0 94.5t3 109q11 163 85 233t248 70q118 0 185 -30.5t103 -96.5h34q13 110 141 110v-166
h-32q-45 0 -70 -27.5t-26 -91.5l-1 -84q1 -62 1 -111t-3 -122q-9 -162 -82.5 -232t-249.5 -70q-85 0 -118.5 -16t-33.5 -51v-9q0 -34 26.5 -47.5t126.5 -16.5q176 -4 260.5 -56t100.5 -166q5 -37 0 -75q-16 -124 -107.5 -173.5t-262.5 -49.5zM400 460q63 0 90 26.5t30 83.5
q9 172 0 371q-3 58 -29.5 84.5t-90.5 26.5q-65 0 -92 -26.5t-29 -86.5q-4 -99 -4.5 -188.5t4.5 -176.5q3 -60 30 -87t91 -27zM406 -211q78 0 123 19t54 66q6 25 -1 52q-9 47 -52.5 63t-123.5 18q-74 2 -113.5 -16.5t-48.5 -65.5q-5 -27 0 -51q9 -49 48.5 -67t113.5 -18z
M402 1272q-130 0 -189.5 58.5t-66.5 194.5h132q1 -75 29.5 -107.5t94.5 -32.5q67 0 95.5 32.5t28.5 107.5h132q-7 -136 -66.5 -194.5t-189.5 -58.5z" />
    <glyph glyph-name="Gdotaccent" unicode="&#x120;" horiz-adv-x="842" 
d="M428 -17q-183 0 -259.5 77.5t-82.5 255.5q-3 147 -4.5 314t0 333t4.5 311q7 186 84.5 264.5t256.5 78.5q171 0 249.5 -77t88.5 -254q6 -132 0 -263h-216q3 68 3 150.5t-3 150.5q-6 115 -122 115q-120 0 -125 -115q-9 -250 -9 -523t9 -523q4 -116 126 -116q126 0 133 116
q2 58 2 130.5t-2 130.5h-122v189h333q3 -84 2.5 -190.5t-4.5 -221.5q-8 -178 -87.5 -255.5t-254.5 -77.5zM344 1680v154h153v-154h-153z" />
    <glyph glyph-name="gdotaccent" unicode="&#x121;" horiz-adv-x="865" 
d="M392 -364q-290 0 -319 176q-2 11 -3.5 28t-0.5 31q7 55 41 88t87 40v34q-102 22 -112 110q-1 16 -0.5 26.5t0.5 22.5q5 42 40 69.5t86 35.5v34q-133 60 -144 267q-2 65 -3 112.5t0 94.5t3 109q11 163 85 233t248 70q118 0 185 -30.5t103 -96.5h34q13 110 141 110v-166
h-32q-45 0 -70 -27.5t-26 -91.5l-1 -84q1 -62 1 -111t-3 -122q-9 -162 -82.5 -232t-249.5 -70q-85 0 -118.5 -16t-33.5 -51v-9q0 -34 26.5 -47.5t126.5 -16.5q176 -4 260.5 -56t100.5 -166q5 -37 0 -75q-16 -124 -107.5 -173.5t-262.5 -49.5zM400 460q63 0 90 26.5t30 83.5
q9 172 0 371q-3 58 -29.5 84.5t-90.5 26.5q-65 0 -92 -26.5t-29 -86.5q-4 -99 -4.5 -188.5t4.5 -176.5q3 -60 30 -87t91 -27zM406 -211q78 0 123 19t54 66q6 25 -1 52q-9 47 -52.5 63t-123.5 18q-74 2 -113.5 -16.5t-48.5 -65.5q-5 -27 0 -51q9 -49 48.5 -67t113.5 -18z
M326 1280v154h153v-154h-153z" />
    <glyph glyph-name="uni0122" unicode="&#x122;" horiz-adv-x="842" 
d="M428 -17q-183 0 -259.5 77.5t-82.5 255.5q-3 147 -4.5 314t0 333t4.5 311q7 186 84.5 264.5t256.5 78.5q171 0 249.5 -77t88.5 -254q6 -132 0 -263h-216q3 68 3 150.5t-3 150.5q-6 115 -122 115q-120 0 -125 -115q-9 -250 -9 -523t9 -523q4 -116 126 -116q126 0 133 116
q2 58 2 130.5t-2 130.5h-122v189h333q3 -84 2.5 -190.5t-4.5 -221.5q-8 -178 -87.5 -255.5t-254.5 -77.5zM346 -403l59 139h-86v184h218v-163l-80 -160h-111z" />
    <glyph glyph-name="uni0123" unicode="&#x123;" horiz-adv-x="865" 
d="M392 -364q-290 0 -319 176q-2 11 -3.5 28t-0.5 31q7 55 41 88t87 40v34q-102 22 -112 110q-1 16 -0.5 26.5t0.5 22.5q5 42 40 69.5t86 35.5v34q-133 60 -144 267q-2 65 -3 112.5t0 94.5t3 109q11 163 85 233t248 70q118 0 185 -30.5t103 -96.5h34q13 110 141 110v-166
h-32q-45 0 -70 -27.5t-26 -91.5l-1 -84q1 -62 1 -111t-3 -122q-9 -162 -82.5 -232t-249.5 -70q-85 0 -118.5 -16t-33.5 -51v-9q0 -34 26.5 -47.5t126.5 -16.5q176 -4 260.5 -56t100.5 -166q5 -37 0 -75q-16 -124 -107.5 -173.5t-262.5 -49.5zM400 460q63 0 90 26.5t30 83.5
q9 172 0 371q-3 58 -29.5 84.5t-90.5 26.5q-65 0 -92 -26.5t-29 -86.5q-4 -99 -4.5 -188.5t4.5 -176.5q3 -60 30 -87t91 -27zM406 -211q78 0 123 19t54 66q6 25 -1 52q-9 47 -52.5 63t-123.5 18q-74 2 -113.5 -16.5t-48.5 -65.5q-5 -27 0 -51q9 -49 48.5 -67t113.5 -18z
M490 1619l-59 -140h87v-184h-218v163l80 161h110z" />
    <glyph glyph-name="Hcircumflex" unicode="&#x124;" horiz-adv-x="851" 
d="M93 0v1600h216v-694h233v694h216v-1600h-216v714h-233v-714h-216zM213 1682l147 252h130l146 -252h-145l-66 126l-67 -126h-145z" />
    <glyph glyph-name="hcircumflex" unicode="&#x125;" horiz-adv-x="873" 
d="M96 0v1600h216v-518h40q36 66 78 100.5t124 34.5q109 0 168.5 -66.5t59.5 -221.5v-929h-216v947q0 109 -100 109q-49 0 -92 -26.5t-62 -77.5v-952h-216zM245 1682l147 252h130l146 -252h-145l-66 126l-67 -126h-145z" />
    <glyph glyph-name="Hbar" unicode="&#x126;" horiz-adv-x="1006" 
d="M171 0v1144h-107v110h107v346h216v-346h232v346h217v-346h106v-110h-106v-1144h-217v714h-232v-714h-216zM387 906h232v238h-232v-238z" />
    <glyph glyph-name="hbar" unicode="&#x127;" horiz-adv-x="873" 
d="M96 0v1600h216v-518h40q36 66 78 100.5t124 34.5q109 0 168.5 -66.5t59.5 -221.5v-929h-216v947q0 109 -100 109q-49 0 -92 -26.5t-62 -77.5v-952h-216zM38 1443h454v-119h-454v119z" />
    <glyph glyph-name="Itilde" unicode="&#x128;" horiz-adv-x="402" 
d="M93 0v1600h216v-1600h-216zM390 1856h89q-3 -96 -49.5 -140.5t-120.5 -42.5q-51 2 -84.5 22.5t-61.5 42t-63 23.5q-30 2 -52.5 -16.5t-26.5 -59.5h-88q7 106 55.5 149.5t118.5 40.5q55 -3 87.5 -24t58 -41.5t59.5 -21.5q37 -2 57.5 17t20.5 51z" />
    <glyph glyph-name="itilde" unicode="&#x129;" horiz-adv-x="408" 
d="M96 0v1200h216v-1200h-216zM392 1456h89q-3 -96 -49.5 -140.5t-120.5 -42.5q-51 2 -84.5 22.5t-61.5 42t-63 23.5q-30 2 -52.5 -16.5t-26.5 -59.5h-88q7 106 55.5 149.5t118.5 40.5q55 -3 87.5 -24t58 -41.5t59.5 -21.5q37 -2 57.5 17t20.5 51z" />
    <glyph glyph-name="Imacron" unicode="&#x12a;" horiz-adv-x="402" 
d="M93 0v1600h216v-1600h-216zM-78 1790h556v-110h-556v110z" />
    <glyph glyph-name="imacron" unicode="&#x12b;" horiz-adv-x="408" 
d="M96 0v1200h216v-1200h-216zM-75 1390h556v-110h-556v110z" />
    <glyph glyph-name="Ibreve" unicode="&#x12c;" horiz-adv-x="402" 
d="M93 0v1600h216v-1600h-216zM201 1672q-130 0 -189.5 58.5t-66.5 194.5h132q1 -75 29.5 -107.5t94.5 -32.5q67 0 95.5 32.5t28.5 107.5h132q-7 -136 -66.5 -194.5t-189.5 -58.5z" />
    <glyph glyph-name="ibreve" unicode="&#x12d;" horiz-adv-x="408" 
d="M96 0v1200h216v-1200h-216zM204 1272q-130 0 -189.5 58.5t-66.5 194.5h132q1 -75 29.5 -107.5t94.5 -32.5q67 0 95.5 32.5t28.5 107.5h132q-7 -136 -66.5 -194.5t-189.5 -58.5z" />
    <glyph glyph-name="Iogonek" unicode="&#x12e;" horiz-adv-x="402" 
d="M93 0v1600h216v-1600h-216zM345 -299h-61q-120 0 -171 48.5t-35 155.5l16 95h116l-16 -95q-7 -52 14.5 -74.5t75.5 -22.5h61v-107z" />
    <glyph glyph-name="iogonek" unicode="&#x12f;" horiz-adv-x="402" 
d="M75 1407v193h255v-193h-255zM96 0v1200h216v-1200h-103l-16 -95q-8 -52 14 -74.5t76 -22.5h61v-107h-61q-121 0 -171.5 48.5t-34.5 155.5l16 95h3z" />
    <glyph glyph-name="Idotaccent" unicode="&#x130;" horiz-adv-x="402" 
d="M93 0v1600h216v-1600h-216zM124 1680v154h153v-154h-153z" />
    <glyph glyph-name="dotlessi" unicode="&#x131;" horiz-adv-x="408" 
d="M96 0v1200h216v-1200h-216z" />
    <glyph glyph-name="Jcircumflex" unicode="&#x134;" horiz-adv-x="781" 
d="M373 -17q-179 0 -250.5 77.5t-75.5 255.5q-4 137 0 273h204q-2 -68 -2 -155.5t2 -155.5q2 -59 30.5 -87.5t91.5 -28.5t90 28.5t27 87.5v1322h216v-1284q0 -178 -75 -255.5t-258 -77.5zM214 1682l147 252h130l146 -252h-145l-66 126l-67 -126h-145z" />
    <glyph glyph-name="jcircumflex" unicode="&#x135;" horiz-adv-x="410" 
d="M-17 -418q-30 0 -66 4t-67 9v163q25 -3 64 -4.5t68 -1.5q115 0 115 113v1335h216v-1319q0 -159 -80 -229t-250 -70zM-6 1282l147 252h130l146 -252h-145l-66 126l-67 -126h-145z" />
    <glyph glyph-name="uni0136" unicode="&#x136;" horiz-adv-x="842" 
d="M93 0v1600h230l-3 -383l-36 -384h43l112 402l127 365h237l-252 -687l270 -913h-220l-192 668l-96 -226v-442h-220zM381 -403l59 139h-86v184h218v-163l-80 -160h-111z" />
    <glyph glyph-name="uni0137" unicode="&#x137;" horiz-adv-x="776" 
d="M96 0v1600h202v-367l-24 -532h37l85 240l111 259h224l-224 -473l267 -727h-222l-181 506l-68 -125v-381h-207zM340 -403l59 139h-86v184h218v-163l-80 -160h-111z" />
    <glyph glyph-name="kgreenlandic" unicode="&#x138;" horiz-adv-x="834" 
d="M96 0v1200h202v-182l-24 -344h37l88 240l140 286h224l-256 -501l267 -699h-222l-178 477l-71 -134v-343h-207z" />
    <glyph glyph-name="Lacute" unicode="&#x139;" horiz-adv-x="691" 
d="M93 0v1600h216v-1408h357v-192h-573zM307 1680l167 252h158l-174 -252h-151z" />
    <glyph glyph-name="lacute" unicode="&#x13a;" horiz-adv-x="408" 
d="M96 0v1600h216v-1600h-216zM134 1680l167 252h158l-174 -252h-151z" />
    <glyph glyph-name="uni013B" unicode="&#x13b;" horiz-adv-x="691" 
d="M93 0v1600h216v-1408h357v-192h-573zM306 -403l59 139h-86v184h218v-163l-80 -160h-111z" />
    <glyph glyph-name="uni013C" unicode="&#x13c;" horiz-adv-x="408" 
d="M96 0v1600h216v-1600h-216zM129 -403l59 139h-86v184h218v-163l-80 -160h-111z" />
    <glyph glyph-name="Lcaron" unicode="&#x13d;" horiz-adv-x="691" 
d="M93 0v1600h216v-1408h357v-192h-573zM453 1345l51 252h144l-58 -252h-137z" />
    <glyph glyph-name="lcaron" unicode="&#x13e;" horiz-adv-x="553" 
d="M96 0v1600h216v-1600h-216zM358 1348l51 252h144l-58 -252h-137z" />
    <glyph glyph-name="Ldot" unicode="&#x13f;" horiz-adv-x="691" 
d="M93 0v1600h216v-1408h357v-192h-573zM497 751v167h168v-167h-168z" />
    <glyph glyph-name="ldot" unicode="&#x140;" horiz-adv-x="607" 
d="M96 0v1600h216v-1600h-216zM405 746v167h168v-167h-168z" />
    <glyph glyph-name="Lslash" unicode="&#x141;" horiz-adv-x="798" 
d="M199 0v485l-33 -112h-153l186 387v840h217v-513l38 113h165l-203 -410v-598h356v-192h-573z" />
    <glyph glyph-name="lslash" unicode="&#x142;" horiz-adv-x="632" 
d="M203 0v490l-37 -117h-153l190 390v837h216v-508l35 108h165l-200 -407v-793h-216z" />
    <glyph glyph-name="Nacute" unicode="&#x143;" horiz-adv-x="946" 
d="M93 0v1600h330l104 -508l123 -900h49l-40 782l-16 626h210v-1600h-345l-110 549l-98 860h-52l37 -803l17 -606h-209zM407 1680l167 252h158l-174 -252h-151z" />
    <glyph glyph-name="nacute" unicode="&#x144;" horiz-adv-x="873" 
d="M96 0v1200h216v-118h40q35 65 78 100t124 35q109 0 168 -66.5t60 -221.5v-929h-216v947q-1 109 -100 109q-47 0 -91 -27.5t-63 -76.5v-952h-216zM371 1280l167 252h158l-174 -252h-151z" />
    <glyph glyph-name="uni0145" unicode="&#x145;" horiz-adv-x="946" 
d="M93 0v1600h330l104 -508l123 -900h49l-40 782l-16 626h210v-1600h-345l-110 549l-98 860h-52l37 -803l17 -606h-209zM398 -403l59 139h-86v184h218v-163l-80 -160h-111z" />
    <glyph glyph-name="uni0146" unicode="&#x146;" horiz-adv-x="873" 
d="M96 0v1200h216v-118h40q35 65 78 100t124 35q109 0 168 -66.5t60 -221.5v-929h-216v947q-1 109 -100 109q-47 0 -91 -27.5t-63 -76.5v-952h-216zM366 -403l59 139h-86v184h218v-163l-80 -160h-111z" />
    <glyph glyph-name="Ncaron" unicode="&#x147;" horiz-adv-x="946" 
d="M93 0v1600h330l104 -508l123 -900h49l-40 782l-16 626h210v-1600h-345l-110 549l-98 860h-52l37 -803l17 -606h-209zM418 1682l-147 252h130l75 -141l75 141h130l-147 -252h-116z" />
    <glyph glyph-name="ncaron" unicode="&#x148;" horiz-adv-x="873" 
d="M96 0v1200h216v-118h40q35 65 78 100t124 35q109 0 168 -66.5t60 -221.5v-929h-216v947q-1 109 -100 109q-47 0 -91 -27.5t-63 -76.5v-952h-216zM382 1282l-147 252h130l75 -141l75 141h130l-147 -252h-116z" />
    <glyph glyph-name="Eng" unicode="&#x14a;" horiz-adv-x="946" 
d="M93 0v1600h330l104 -508l123 -900h49l-40 782l-16 626h210v-1732q0 -150 -78.5 -215.5t-247.5 -65.5q-30 0 -65 3.5t-64 9.5v155q24 -3 60.5 -4.5t66.5 -1.5q68 0 106.5 22.5t38.5 80.5v148h-162l-110 549l-98 860h-52l37 -803l17 -606h-209z" />
    <glyph glyph-name="eng" unicode="&#x14b;" horiz-adv-x="871" 
d="M423 -415q-31 0 -67 3.5t-66 9.5v160q25 -3 63.5 -4.5t67.5 -1.5q78 0 110.5 25t32.5 88v1082q0 109 -98 109q-47 0 -91 -27.5t-63 -76.5v-952h-216v1200h216v-118h40q35 65 78 100t124 35q109 0 167.5 -66.5t58.5 -221.5v-1045q0 -160 -86.5 -229.5t-270.5 -69.5z" />
    <glyph glyph-name="Omacron" unicode="&#x14c;" horiz-adv-x="856" 
d="M428 -17q-180 0 -259.5 76.5t-82.5 254.5q-11 486 0 973q3 177 82.5 253.5t259.5 76.5t258 -76.5t83 -253.5q13 -489 0 -973q-5 -178 -83 -254.5t-258 -76.5zM428 162q122 0 125 114q6 166 7.5 346.5t-0.5 360t-7 342.5q-3 114 -125 114q-123 0 -126 -114
q-6 -163 -8 -342.5t0 -360t8 -346.5q3 -114 126 -114zM151 1790h556v-110h-556v110z" />
    <glyph glyph-name="omacron" unicode="&#x14d;" horiz-adv-x="835" 
d="M418 -17q-180 0 -253.5 76t-82.5 255q-2 76 -3.5 180t-0.5 208.5t4 184.5q9 177 82 253.5t254 76.5q182 0 253.5 -77t81.5 -253q2 -77 3.5 -180.5t0.5 -208t-4 -184.5q-10 -176 -81.5 -253.5t-253.5 -77.5zM418 148q63 0 90 27t28 87q6 176 6 338.5t-6 338.5
q-1 59 -27.5 86t-90.5 27q-62 0 -90 -27t-30 -86q-5 -176 -5 -339.5t5 -337.5q2 -60 30 -87t90 -27zM139 1390h556v-110h-556v110z" />
    <glyph glyph-name="Obreve" unicode="&#x14e;" horiz-adv-x="856" 
d="M428 -17q-180 0 -259.5 76.5t-82.5 254.5q-11 486 0 973q3 177 82.5 253.5t259.5 76.5t258 -76.5t83 -253.5q13 -489 0 -973q-5 -178 -83 -254.5t-258 -76.5zM428 162q122 0 125 114q6 166 7.5 346.5t-0.5 360t-7 342.5q-3 114 -125 114q-123 0 -126 -114
q-6 -163 -8 -342.5t0 -360t8 -346.5q3 -114 126 -114zM429 1672q-130 0 -189.5 58.5t-66.5 194.5h132q1 -75 29.5 -107.5t94.5 -32.5q67 0 95.5 32.5t28.5 107.5h132q-7 -136 -66.5 -194.5t-189.5 -58.5z" />
    <glyph glyph-name="obreve" unicode="&#x14f;" horiz-adv-x="835" 
d="M418 -17q-180 0 -253.5 76t-82.5 255q-2 76 -3.5 180t-0.5 208.5t4 184.5q9 177 82 253.5t254 76.5q182 0 253.5 -77t81.5 -253q2 -77 3.5 -180.5t0.5 -208t-4 -184.5q-10 -176 -81.5 -253.5t-253.5 -77.5zM418 148q63 0 90 27t28 87q6 176 6 338.5t-6 338.5
q-1 59 -27.5 86t-90.5 27q-62 0 -90 -27t-30 -86q-5 -176 -5 -339.5t5 -337.5q2 -60 30 -87t90 -27zM418 1272q-130 0 -189.5 58.5t-66.5 194.5h132q1 -75 29.5 -107.5t94.5 -32.5q67 0 95.5 32.5t28.5 107.5h132q-7 -136 -66.5 -194.5t-189.5 -58.5z" />
    <glyph glyph-name="Ohungarumlaut" unicode="&#x150;" horiz-adv-x="856" 
d="M428 -17q-180 0 -259.5 76.5t-82.5 254.5q-11 486 0 973q3 177 82.5 253.5t259.5 76.5t258 -76.5t83 -253.5q13 -489 0 -973q-5 -178 -83 -254.5t-258 -76.5zM428 162q122 0 125 114q6 166 7.5 346.5t-0.5 360t-7 342.5q-3 114 -125 114q-123 0 -126 -114
q-6 -163 -8 -342.5t0 -360t8 -346.5q3 -114 126 -114zM229 1682l193 252h152l-193 -252h-152zM471 1682l193 252h152l-193 -252h-152z" />
    <glyph glyph-name="ohungarumlaut" unicode="&#x151;" horiz-adv-x="835" 
d="M418 -17q-180 0 -253.5 76t-82.5 255q-2 76 -3.5 180t-0.5 208.5t4 184.5q9 177 82 253.5t254 76.5q182 0 253.5 -77t81.5 -253q2 -77 3.5 -180.5t0.5 -208t-4 -184.5q-10 -176 -81.5 -253.5t-253.5 -77.5zM418 148q63 0 90 27t28 87q6 176 6 338.5t-6 338.5
q-1 59 -27.5 86t-90.5 27q-62 0 -90 -27t-30 -86q-5 -176 -5 -339.5t5 -337.5q2 -60 30 -87t90 -27zM217 1282l193 252h152l-193 -252h-152zM459 1282l193 252h152l-193 -252h-152z" />
    <glyph glyph-name="OE" unicode="&#x152;" horiz-adv-x="1178" 
d="M428 -17q-180 0 -259.5 76.5t-82.5 254.5q-11 486 0 973q3 177 82.5 253.5t259.5 76.5q105 0 168 -30l1 13h537v-192h-356v-502h336v-192h-336v-522h356v-192h-537l-1 13q-63 -30 -168 -30zM428 162q122 0 125 114q4 109 6 243.5t2 277.5t-2 279.5t-6 248.5
q-3 114 -125 114q-123 0 -126 -114q-6 -163 -8 -342.5t0 -360t8 -346.5q3 -114 126 -114z" />
    <glyph glyph-name="oe" unicode="&#x153;" horiz-adv-x="1266" 
d="M418 -17q-180 0 -253.5 76t-82.5 255q-2 76 -3.5 180t-0.5 208.5t4 184.5q9 177 82 253.5t254 76.5q182 0 253.5 -77t81.5 -253q2 -77 3.5 -180.5t0.5 -208t-4 -184.5q-10 -176 -81.5 -253.5t-253.5 -77.5zM418 148q63 0 90 27t28 87q6 176 6 338.5t-6 338.5
q-1 59 -27.5 86t-90.5 27q-62 0 -90 -27t-30 -86q-5 -176 -5 -339.5t5 -337.5q2 -60 30 -87t90 -27zM877 -17q-170 0 -247 69.5t-85 230.5q-2 57 -3 139.5t-1 173t1 174.5t3 144q10 163 86.5 233t243.5 70q164 0 238.5 -68.5t82.5 -225.5q1 -27 1.5 -84.5t0 -131
t-3.5 -146.5h-436q0 -73 1.5 -147.5t2.5 -152.5q2 -63 28.5 -88t85.5 -25q56 0 80 25t27 88t0 178h211q2 -28 2.5 -74t-0.5 -82q-8 -161 -81 -230.5t-238 -69.5zM758 716h227q1 74 0.5 140t-2.5 90q-3 57 -28 81.5t-80 24.5q-60 0 -85.5 -24.5t-27.5 -81.5q-1 -62 -2 -118.5
t-2 -111.5z" />
    <glyph glyph-name="Racute" unicode="&#x154;" horiz-adv-x="825" 
d="M93 0v1600h315q179 0 259.5 -75.5t86.5 -248.5q4 -109 4 -194t-4 -182q-7 -223 -148 -288l175 -612h-230l-149 576h-93v-576h-216zM309 767h98q125 0 131 122q9 199 0 398q-6 121 -130 121h-99v-641zM335 1680l167 252h158l-174 -252h-151z" />
    <glyph glyph-name="racute" unicode="&#x155;" horiz-adv-x="598" 
d="M96 0v1200h216v-132h40q13 77 52.5 107t104.5 30q21 0 41.5 -1.5t32.5 -1.5v-168h-72q-100 0 -143 -33t-56 -98v-903h-216zM261 1280l167 252h158l-174 -252h-151z" />
    <glyph glyph-name="uni0156" unicode="&#x156;" horiz-adv-x="825" 
d="M93 0v1600h315q179 0 259.5 -75.5t86.5 -248.5q4 -109 4 -194t-4 -182q-7 -223 -148 -288l175 -612h-230l-149 576h-93v-576h-216zM309 767h98q125 0 131 122q9 199 0 398q-6 121 -130 121h-99v-641zM359 -403l59 139h-86v184h218v-163l-80 -160h-111z" />
    <glyph glyph-name="uni0157" unicode="&#x157;" horiz-adv-x="598" 
d="M96 0v1200h216v-132h40q13 77 52.5 107t104.5 30q21 0 41.5 -1.5t32.5 -1.5v-168h-72q-100 0 -143 -33t-56 -98v-903h-216zM129 -403l59 139h-86v184h218v-163l-80 -160h-111z" />
    <glyph glyph-name="Rcaron" unicode="&#x158;" horiz-adv-x="825" 
d="M93 0v1600h315q179 0 259.5 -75.5t86.5 -248.5q4 -109 4 -194t-4 -182q-7 -223 -148 -288l175 -612h-230l-149 576h-93v-576h-216zM309 767h98q125 0 131 122q9 199 0 398q-6 121 -130 121h-99v-641zM346 1682l-147 252h130l75 -141l75 141h130l-147 -252h-116z" />
    <glyph glyph-name="rcaron" unicode="&#x159;" horiz-adv-x="598" 
d="M96 0v1200h216v-132h40q13 77 52.5 107t104.5 30q21 0 41.5 -1.5t32.5 -1.5v-168h-72q-100 0 -143 -33t-56 -98v-903h-216zM272 1282l-147 252h130l75 -141l75 141h130l-147 -252h-116z" />
    <glyph glyph-name="Sacute" unicode="&#x15a;" horiz-adv-x="815" 
d="M410 -17q-180 0 -256.5 77.5t-83.5 255.5q-2 70 -1.5 136t6.5 137h204q-4 -81 -4.5 -160.5t4.5 -150.5q4 -59 35 -87.5t95 -28.5q63 0 91 28.5t34 87.5q5 68 4.5 123.5t-4.5 127.5q-4 59 -24 101t-73 56l-134 34q-136 35 -185 118.5t-54 227.5q-1 54 -0.5 110t1.5 111
q6 177 83 253.5t261 76.5q173 0 250.5 -77t84.5 -254q1 -50 0.5 -121t-3.5 -142h-208q3 75 4 150.5t-2 150.5q-5 115 -127 115q-64 0 -93 -29t-34 -86q-5 -64 -4.5 -129t4.5 -129q4 -65 25 -103.5t76 -52.5l121 -29q142 -34 192.5 -121t55.5 -231q2 -63 1.5 -109t-2.5 -104
q-7 -178 -84.5 -255.5t-255.5 -77.5zM337 1680l167 252h158l-174 -252h-151z" />
    <glyph glyph-name="sacute" unicode="&#x15b;" horiz-adv-x="759" 
d="M373 -17q-161 0 -229.5 69.5t-74.5 230.5q-1 36 -0.5 82t2.5 74h190q-2 -56 -1.5 -101.5t1.5 -76.5q2 -63 29.5 -88t82.5 -25q65 0 93.5 25t29.5 88q0 41 0.5 53.5t-0.5 50.5q-1 52 -16.5 82.5t-58.5 43.5l-118 36q-119 37 -178 103.5t-61 198.5v42t1 42
q1 163 71.5 233.5t247.5 70.5q163 0 229.5 -68.5t73.5 -226.5q1 -36 0.5 -82.5t-2.5 -74.5h-197q2 38 1.5 95t-1.5 86q-2 59 -24.5 82.5t-79.5 23.5q-60 0 -83.5 -23.5t-24.5 -82.5q-2 -29 -2.5 -46.5t0.5 -53.5q1 -56 14 -92t66 -52l106 -29q118 -31 177.5 -98t59.5 -199
q0 -23 -0.5 -49.5t-1.5 -49.5q-2 -157 -75 -225.5t-247 -68.5zM307 1280l167 252h158l-174 -252h-151z" />
    <glyph glyph-name="Scircumflex" unicode="&#x15c;" horiz-adv-x="815" 
d="M410 -17q-180 0 -256.5 77.5t-83.5 255.5q-2 70 -1.5 136t6.5 137h204q-4 -81 -4.5 -160.5t4.5 -150.5q4 -59 35 -87.5t95 -28.5q63 0 91 28.5t34 87.5q5 68 4.5 123.5t-4.5 127.5q-4 59 -24 101t-73 56l-134 34q-136 35 -185 118.5t-54 227.5q-1 54 -0.5 110t1.5 111
q6 177 83 253.5t261 76.5q173 0 250.5 -77t84.5 -254q1 -50 0.5 -121t-3.5 -142h-208q3 75 4 150.5t-2 150.5q-5 115 -127 115q-64 0 -93 -29t-34 -86q-5 -64 -4.5 -129t4.5 -129q4 -65 25 -103.5t76 -52.5l121 -29q142 -34 192.5 -121t55.5 -231q2 -63 1.5 -109t-2.5 -104
q-7 -178 -84.5 -255.5t-255.5 -77.5zM194 1682l147 252h130l146 -252h-145l-66 126l-67 -126h-145z" />
    <glyph glyph-name="scircumflex" unicode="&#x15d;" horiz-adv-x="759" 
d="M373 -17q-161 0 -229.5 69.5t-74.5 230.5q-1 36 -0.5 82t2.5 74h190q-2 -56 -1.5 -101.5t1.5 -76.5q2 -63 29.5 -88t82.5 -25q65 0 93.5 25t29.5 88q0 41 0.5 53.5t-0.5 50.5q-1 52 -16.5 82.5t-58.5 43.5l-118 36q-119 37 -178 103.5t-61 198.5v42t1 42
q1 163 71.5 233.5t247.5 70.5q163 0 229.5 -68.5t73.5 -226.5q1 -36 0.5 -82.5t-2.5 -74.5h-197q2 38 1.5 95t-1.5 86q-2 59 -24.5 82.5t-79.5 23.5q-60 0 -83.5 -23.5t-24.5 -82.5q-2 -29 -2.5 -46.5t0.5 -53.5q1 -56 14 -92t66 -52l106 -29q118 -31 177.5 -98t59.5 -199
q0 -23 -0.5 -49.5t-1.5 -49.5q-2 -157 -75 -225.5t-247 -68.5zM164 1282l147 252h130l146 -252h-145l-66 126l-67 -126h-145z" />
    <glyph glyph-name="Scedilla" unicode="&#x15e;" horiz-adv-x="815" 
d="M410 -17q-180 0 -256.5 77.5t-83.5 255.5q-2 70 -1.5 136t6.5 137h204q-4 -81 -4.5 -160.5t4.5 -150.5q4 -59 35 -87.5t95 -28.5q63 0 91 28.5t34 87.5q5 68 4.5 123.5t-4.5 127.5q-4 59 -24 101t-73 56l-134 34q-136 35 -185 118.5t-54 227.5q-1 54 -0.5 110t1.5 111
q6 177 83 253.5t261 76.5q173 0 250.5 -77t84.5 -254q1 -50 0.5 -121t-3.5 -142h-208q3 75 4 150.5t-2 150.5q-5 115 -127 115q-64 0 -93 -29t-34 -86q-5 -64 -4.5 -129t4.5 -129q4 -65 25 -103.5t76 -52.5l121 -29q142 -34 192.5 -121t55.5 -231q2 -63 1.5 -109t-2.5 -104
q-7 -178 -84.5 -255.5t-255.5 -77.5zM214 -285v107h61q54 0 76 22.5t15 74.5l-16 95h116l15 -95q16 -107 -34.5 -155.5t-171.5 -48.5h-61z" />
    <glyph glyph-name="scedilla" unicode="&#x15f;" horiz-adv-x="759" 
d="M373 -17q-161 0 -229.5 69.5t-74.5 230.5q-1 36 -0.5 82t2.5 74h190q-2 -56 -1.5 -101.5t1.5 -76.5q2 -63 29.5 -88t82.5 -25q65 0 93.5 25t29.5 88q0 41 0.5 53.5t-0.5 50.5q-1 52 -16.5 82.5t-58.5 43.5l-118 36q-119 37 -178 103.5t-61 198.5v42t1 42
q1 163 71.5 233.5t247.5 70.5q163 0 229.5 -68.5t73.5 -226.5q1 -36 0.5 -82.5t-2.5 -74.5h-197q2 38 1.5 95t-1.5 86q-2 59 -24.5 82.5t-79.5 23.5q-60 0 -83.5 -23.5t-24.5 -82.5q-2 -29 -2.5 -46.5t0.5 -53.5q1 -56 14 -92t66 -52l106 -29q118 -31 177.5 -98t59.5 -199
q0 -23 -0.5 -49.5t-1.5 -49.5q-2 -157 -75 -225.5t-247 -68.5zM185 -285v107h61q54 0 76 22.5t15 74.5l-16 95h116l15 -95q16 -107 -34.5 -155.5t-171.5 -48.5h-61z" />
    <glyph glyph-name="Scaron" unicode="&#x160;" horiz-adv-x="815" 
d="M410 -17q-180 0 -256.5 77.5t-83.5 255.5q-2 70 -1.5 136t6.5 137h204q-4 -81 -4.5 -160.5t4.5 -150.5q4 -59 35 -87.5t95 -28.5q63 0 91 28.5t34 87.5q5 68 4.5 123.5t-4.5 127.5q-4 59 -24 101t-73 56l-134 34q-136 35 -185 118.5t-54 227.5q-1 54 -0.5 110t1.5 111
q6 177 83 253.5t261 76.5q173 0 250.5 -77t84.5 -254q1 -50 0.5 -121t-3.5 -142h-208q3 75 4 150.5t-2 150.5q-5 115 -127 115q-64 0 -93 -29t-34 -86q-5 -64 -4.5 -129t4.5 -129q4 -65 25 -103.5t76 -52.5l121 -29q142 -34 192.5 -121t55.5 -231q2 -63 1.5 -109t-2.5 -104
q-7 -178 -84.5 -255.5t-255.5 -77.5zM348 1682l-147 252h130l75 -141l75 141h130l-147 -252h-116z" />
    <glyph glyph-name="scaron" unicode="&#x161;" horiz-adv-x="759" 
d="M373 -17q-161 0 -229.5 69.5t-74.5 230.5q-1 36 -0.5 82t2.5 74h190q-2 -56 -1.5 -101.5t1.5 -76.5q2 -63 29.5 -88t82.5 -25q65 0 93.5 25t29.5 88q0 41 0.5 53.5t-0.5 50.5q-1 52 -16.5 82.5t-58.5 43.5l-118 36q-119 37 -178 103.5t-61 198.5v42t1 42
q1 163 71.5 233.5t247.5 70.5q163 0 229.5 -68.5t73.5 -226.5q1 -36 0.5 -82.5t-2.5 -74.5h-197q2 38 1.5 95t-1.5 86q-2 59 -24.5 82.5t-79.5 23.5q-60 0 -83.5 -23.5t-24.5 -82.5q-2 -29 -2.5 -46.5t0.5 -53.5q1 -56 14 -92t66 -52l106 -29q118 -31 177.5 -98t59.5 -199
q0 -23 -0.5 -49.5t-1.5 -49.5q-2 -157 -75 -225.5t-247 -68.5zM318 1282l-147 252h130l75 -141l75 141h130l-147 -252h-116z" />
    <glyph glyph-name="uni0162" unicode="&#x162;" horiz-adv-x="699" 
d="M241 0v1408h-230v192h677v-192h-230v-1408h-217zM157 -285v107h61q54 0 76 22.5t15 74.5l-16 95h116l15 -95q16 -107 -34.5 -155.5t-171.5 -48.5h-61z" />
    <glyph glyph-name="uni0163" unicode="&#x163;" horiz-adv-x="588" 
d="M473 -17q-185 0 -261 69.5t-76 230.5v751h-98v166h100v340h217v-340h191v-166h-194v-775q0 -63 22.5 -87.5t99.5 -24.5q26 0 46 1t46 3v-158q-39 -10 -93 -10zM173 -285v107h61q54 0 76 22.5t15 74.5l-16 95h116l15 -95q16 -107 -34.5 -155.5t-171.5 -48.5h-61z" />
    <glyph glyph-name="Tcaron" unicode="&#x164;" horiz-adv-x="699" 
d="M241 0v1408h-230v192h677v-192h-230v-1408h-217zM292 1682l-147 252h130l75 -141l75 141h130l-147 -252h-116z" />
    <glyph glyph-name="tcaron" unicode="&#x165;" horiz-adv-x="624" 
d="M473 -17q-185 0 -261 69.5t-76 230.5v751h-98v166h100v340h217v-340h191v-166h-194v-775q0 -63 22.5 -87.5t99.5 -24.5q26 0 46 1t46 3v-158q-39 -10 -93 -10zM407 1348l51 252h144l-58 -252h-137z" />
    <glyph glyph-name="Tbar" unicode="&#x166;" horiz-adv-x="699" 
d="M241 0v1408h-230v192h677v-192h-230v-1408h-217zM123 791h454v-119h-454v119z" />
    <glyph glyph-name="tbar" unicode="&#x167;" horiz-adv-x="588" 
d="M473 -17q-185 0 -261 69.5t-76 230.5v751h-98v166h100v340h217v-340h191v-166h-194v-775q0 -63 22.5 -87.5t99.5 -24.5q26 0 46 1t46 3v-158q-39 -10 -93 -10zM62 748h454v-119h-454v119z" />
    <glyph glyph-name="Utilde" unicode="&#x168;" horiz-adv-x="839" 
d="M420 -17q-181 0 -260 76.5t-81 254.5q-8 643 0 1286h216q-5 -320 -4.5 -662t3.5 -662q0 -114 126 -114q124 0 124 114q3 320 4 662t-4 662h216q8 -643 0 -1286q-2 -178 -80.5 -254.5t-259.5 -76.5zM608 1856h89q-3 -96 -49.5 -140.5t-120.5 -42.5q-51 2 -84.5 22.5
t-61.5 42t-63 23.5q-30 2 -52.5 -16.5t-26.5 -59.5h-88q7 106 55.5 149.5t118.5 40.5q55 -3 87.5 -24t58 -41.5t59.5 -21.5q37 -2 57.5 17t20.5 51z" />
    <glyph glyph-name="utilde" unicode="&#x169;" horiz-adv-x="867" 
d="M321 -17q-109 0 -171 67t-62 221v929h216v-947q0 -109 97 -109q46 0 90.5 27.5t63.5 76.5v952h216v-1200h-216v118h-32q-73 -135 -202 -135zM615 1456h89q-3 -96 -49.5 -140.5t-120.5 -42.5q-51 2 -84.5 22.5t-61.5 42t-63 23.5q-30 2 -52.5 -16.5t-26.5 -59.5h-88
q7 106 55.5 149.5t118.5 40.5q55 -3 87.5 -24t58 -41.5t59.5 -21.5q37 -2 57.5 17t20.5 51z" />
    <glyph glyph-name="Umacron" unicode="&#x16a;" horiz-adv-x="839" 
d="M420 -17q-181 0 -260 76.5t-81 254.5q-8 643 0 1286h216q-5 -320 -4.5 -662t3.5 -662q0 -114 126 -114q124 0 124 114q3 320 4 662t-4 662h216q8 -643 0 -1286q-2 -178 -80.5 -254.5t-259.5 -76.5zM141 1790h556v-110h-556v110z" />
    <glyph glyph-name="umacron" unicode="&#x16b;" horiz-adv-x="867" 
d="M321 -17q-109 0 -171 67t-62 221v929h216v-947q0 -109 97 -109q46 0 90.5 27.5t63.5 76.5v952h216v-1200h-216v118h-32q-73 -135 -202 -135zM148 1390h556v-110h-556v110z" />
    <glyph glyph-name="Ubreve" unicode="&#x16c;" horiz-adv-x="839" 
d="M420 -17q-181 0 -260 76.5t-81 254.5q-8 643 0 1286h216q-5 -320 -4.5 -662t3.5 -662q0 -114 126 -114q124 0 124 114q3 320 4 662t-4 662h216q8 -643 0 -1286q-2 -178 -80.5 -254.5t-259.5 -76.5zM420 1672q-130 0 -189.5 58.5t-66.5 194.5h132q1 -75 29.5 -107.5
t94.5 -32.5q67 0 95.5 32.5t28.5 107.5h132q-7 -136 -66.5 -194.5t-189.5 -58.5z" />
    <glyph glyph-name="ubreve" unicode="&#x16d;" horiz-adv-x="867" 
d="M321 -17q-109 0 -171 67t-62 221v929h216v-947q0 -109 97 -109q46 0 90.5 27.5t63.5 76.5v952h216v-1200h-216v118h-32q-73 -135 -202 -135zM427 1272q-130 0 -189.5 58.5t-66.5 194.5h132q1 -75 29.5 -107.5t94.5 -32.5q67 0 95.5 32.5t28.5 107.5h132
q-7 -136 -66.5 -194.5t-189.5 -58.5z" />
    <glyph glyph-name="Uring" unicode="&#x16e;" horiz-adv-x="839" 
d="M420 -17q-181 0 -260 76.5t-81 254.5q-8 643 0 1286h216q-5 -320 -4.5 -662t3.5 -662q0 -114 126 -114q124 0 124 114q3 320 4 662t-4 662h216q8 -643 0 -1286q-2 -178 -80.5 -254.5t-259.5 -76.5zM420 1672q-72 0 -123 51t-51 124q0 72 51 123t123 51t123.5 -51
t51.5 -123q0 -73 -51.5 -124t-123.5 -51zM420 1789q25 0 42 16.5t17 41.5q0 24 -17 41t-42 17q-24 0 -40.5 -17t-16.5 -41q0 -25 16.5 -41.5t40.5 -16.5z" />
    <glyph glyph-name="uring" unicode="&#x16f;" horiz-adv-x="867" 
d="M321 -17q-109 0 -171 67t-62 221v929h216v-947q0 -109 97 -109q46 0 90.5 27.5t63.5 76.5v952h216v-1200h-216v118h-32q-73 -135 -202 -135zM427 1272q-72 0 -123 51t-51 124q0 72 51 123t123 51t123.5 -51t51.5 -123q0 -73 -51.5 -124t-123.5 -51zM427 1389
q25 0 42 16.5t17 41.5q0 24 -17 41t-42 17q-24 0 -40.5 -17t-16.5 -41q0 -25 16.5 -41.5t40.5 -16.5z" />
    <glyph glyph-name="Uhungarumlaut" unicode="&#x170;" horiz-adv-x="839" 
d="M420 -17q-181 0 -260 76.5t-81 254.5q-8 643 0 1286h216q-5 -320 -4.5 -662t3.5 -662q0 -114 126 -114q124 0 124 114q3 320 4 662t-4 662h216q8 -643 0 -1286q-2 -178 -80.5 -254.5t-259.5 -76.5zM219 1682l193 252h152l-193 -252h-152zM461 1682l193 252h152l-193 -252
h-152z" />
    <glyph glyph-name="uhungarumlaut" unicode="&#x171;" horiz-adv-x="867" 
d="M321 -17q-109 0 -171 67t-62 221v929h216v-947q0 -109 97 -109q46 0 90.5 27.5t63.5 76.5v952h216v-1200h-216v118h-32q-73 -135 -202 -135zM226 1282l193 252h152l-193 -252h-152zM468 1282l193 252h152l-193 -252h-152z" />
    <glyph glyph-name="Uogonek" unicode="&#x172;" horiz-adv-x="839" 
d="M420 -17q-181 0 -260 76.5t-81 254.5q-8 643 0 1286h216q-5 -320 -4.5 -662t3.5 -662q0 -114 126 -114q124 0 124 114q3 320 4 662t-4 662h216q8 -643 0 -1286q-2 -178 -80.5 -254.5t-259.5 -76.5zM723 -288h-61q-120 0 -171 48.5t-35 155.5l16 95h116l-16 -95
q-7 -52 14.5 -74.5t75.5 -22.5h61v-107z" />
    <glyph glyph-name="uogonek" unicode="&#x173;" horiz-adv-x="867" 
d="M321 -17q-109 0 -171 67t-62 221v929h216v-947q0 -109 97 -109q46 0 90.5 27.5t63.5 76.5v952h216v-1200h-216v118h-32q-73 -135 -202 -135zM806 -298h-61q-120 0 -171 48.5t-35 155.5l16 95h116l-16 -95q-7 -52 14.5 -74.5t75.5 -22.5h61v-107z" />
    <glyph glyph-name="Wcircumflex" unicode="&#x174;" horiz-adv-x="1331" 
d="M180 0l-131 1600h218l44 -667l36 -741h45l21 741l106 657h292l106 -657l21 -741h44l38 741l44 667h217l-131 -1600h-361l-64 486l-38 919h-43l-39 -919l-64 -486h-361zM453 1682l147 252h130l146 -252h-145l-66 126l-67 -126h-145z" />
    <glyph glyph-name="wcircumflex" unicode="&#x175;" horiz-adv-x="1278" 
d="M187 0l-150 1200h219l58 -604l24 -434h46l25 434l59 601h342l57 -601l25 -434h46l25 434l59 604h219l-151 -1200h-357l-42 464l-30 571h-46l-30 -571l-42 -464h-356zM427 1282l147 252h130l146 -252h-145l-66 126l-67 -126h-145z" />
    <glyph glyph-name="Ycircumflex" unicode="&#x176;" horiz-adv-x="791" 
d="M287 0v402l-259 1198h221l81 -420l43 -464h45l41 464l82 420h222l-260 -1199v-401h-216zM175 1682l147 252h130l146 -252h-145l-66 126l-67 -126h-145z" />
    <glyph glyph-name="ycircumflex" unicode="&#x177;" horiz-adv-x="769" 
d="M191 -414q-30 0 -66 3.5t-67 8.5v163q25 -2 64 -4t68 -2q77 0 105.5 25.5t37.5 88.5l17 131h-114l-200 1200h220l71 -563l46 -475h45l43 475l59 563h219l-191 -1315q-16 -106 -53.5 -172t-109.5 -96.5t-194 -30.5zM180 1282l147 252h130l146 -252h-145l-66 126l-67 -126
h-145z" />
    <glyph glyph-name="Ydieresis" unicode="&#x178;" horiz-adv-x="791" 
d="M287 0v402l-259 1198h221l81 -420l43 -464h45l41 464l82 420h222l-260 -1199v-401h-216zM434 1710v154h154v-154h-154zM188 1710v154h153v-154h-153z" />
    <glyph glyph-name="Zacute" unicode="&#x179;" horiz-adv-x="716" 
d="M34 0v179l416 1229h-393v192h624v-183l-430 -1225h397v-192h-614zM285 1680l167 252h158l-174 -252h-151z" />
    <glyph glyph-name="zacute" unicode="&#x17a;" horiz-adv-x="681" 
d="M38 0v138l375 900l-367 -1v162l598 1v-142l-380 -896h373v-162h-599zM271 1280l167 252h158l-174 -252h-151z" />
    <glyph glyph-name="Zdotaccent" unicode="&#x17b;" horiz-adv-x="716" 
d="M34 0v179l416 1229h-393v192h624v-183l-430 -1225h397v-192h-614zM278 1680v154h153v-154h-153z" />
    <glyph glyph-name="zdotaccent" unicode="&#x17c;" horiz-adv-x="681" 
d="M38 0v138l375 900l-367 -1v162l598 1v-142l-380 -896h373v-162h-599zM265 1280v154h153v-154h-153z" />
    <glyph glyph-name="Zcaron" unicode="&#x17d;" horiz-adv-x="716" 
d="M34 0v179l416 1229h-393v192h624v-183l-430 -1225h397v-192h-614zM296 1682l-147 252h130l75 -141l75 141h130l-147 -252h-116z" />
    <glyph glyph-name="zcaron" unicode="&#x17e;" horiz-adv-x="681" 
d="M38 0v138l375 900l-367 -1v162l598 1v-142l-380 -896h373v-162h-599zM283 1282l-147 252h130l75 -141l75 141h130l-147 -252h-116z" />
    <glyph glyph-name="uni018F" unicode="&#x18f;" horiz-adv-x="860" 
d="M433 -17q-179 0 -259.5 76.5t-83.5 254.5q-1 142 -1 267.5t1 283.5h477q-1 117 -3 232t-5 225q-3 116 -127 116q-131 0 -134 -116q-1 -59 -0.5 -144.5t1.5 -167.5h-216q-2 73 -2.5 143.5t1.5 130.5q5 178 86.5 255t263.5 77q184 0 262 -77t82 -255q2 -147 3 -316
t0 -338.5t-3 -317.5q-3 -156 -83.5 -242.5t-259.5 -86.5zM433 161q123 0 126 115q3 106 5 215t3 222h-265q0 -115 1 -220t3 -217q3 -115 127 -115z" />
    <glyph glyph-name="florin" unicode="&#x192;" horiz-adv-x="1309" 
d="M229 -17q-36 0 -71.5 4t-64.5 9l27 162q24 -3 61.5 -4t61.5 -1q129 0 163 124l131 487h-225v110h254l122 457q43 160 136 224t256 64q37 0 72 -4.5t64 -9.5l-26 -159q-58 3 -122 3q-131 0 -165 -125l-121 -450h270v-110h-300l-132 -493q-43 -161 -135 -224.5t-256 -63.5z
" />
    <glyph glyph-name="Ohorn" unicode="&#x1a0;" horiz-adv-x="1069" 
d="M428 -17q-180 0 -259.5 76.5t-82.5 254.5q-11 486 0 973q3 177 82.5 253.5t259.5 76.5t258 -76.5t83 -253.5q13 -489 0 -973q-5 -178 -83 -254.5t-258 -76.5zM428 162q122 0 125 114q6 166 7.5 346.5t-0.5 360t-7 342.5q-3 114 -125 114q-123 0 -126 -114
q-6 -163 -8 -342.5t0 -360t8 -346.5q3 -114 126 -114zM738 1173q-16 0 -34 0.5t-32 3.5v108q17 -1 33.5 -2t32.5 0q72 3 102.5 36t34.5 107q1 19 1.5 53t0 68t-1.5 53h120q1 -19 1 -53v-68t-1 -53q-8 -136 -67 -194.5t-190 -58.5z" />
    <glyph glyph-name="ohorn" unicode="&#x1a1;" horiz-adv-x="1008" 
d="M418 -17q-180 0 -253.5 76t-82.5 255q-2 76 -3.5 180t-0.5 208.5t4 184.5q9 177 82 253.5t254 76.5q182 0 253.5 -77t81.5 -253q2 -77 3.5 -180.5t0.5 -208t-4 -184.5q-10 -176 -81.5 -253.5t-253.5 -77.5zM418 148q63 0 90 27t28 87q6 176 6 338.5t-6 338.5
q-1 59 -27.5 86t-90.5 27q-62 0 -90 -27t-30 -86q-5 -176 -5 -339.5t5 -337.5q2 -60 30 -87t90 -27zM718 773q-16 0 -34 0.5t-32 3.5v108q17 -1 33.5 -2t32.5 0q72 3 102.5 36t34.5 107q1 19 1.5 53t0 68t-1.5 53h120q1 -19 1 -53v-68t-1 -53q-8 -136 -67 -194.5t-190 -58.5
z" />
    <glyph glyph-name="Uhorn" unicode="&#x1af;" horiz-adv-x="1052" 
d="M420 -17q-181 0 -260 76.5t-81 254.5q-8 643 0 1286h216q-5 -320 -4.5 -662t3.5 -662q0 -114 126 -114q124 0 124 114q3 320 4 662t-4 662h216q8 -643 0 -1286q-2 -178 -80.5 -254.5t-259.5 -76.5zM724 1173q-16 0 -34 0.5t-32 3.5v108q17 -1 33.5 -2t32.5 0
q72 3 102.5 36t34.5 107q1 19 1.5 53t0 68t-1.5 53h120q1 -19 1 -53v-68t-1 -53q-8 -136 -67 -194.5t-190 -58.5z" />
    <glyph glyph-name="uhorn" unicode="&#x1b0;" horiz-adv-x="1044" 
d="M321 -17q-109 0 -171 67t-62 221v929h216v-947q0 -109 97 -109q46 0 90.5 27.5t63.5 76.5v952h216v-1200h-216v118h-32q-73 -135 -202 -135zM733 773q-16 0 -34 0.5t-32 3.5v108q17 -1 33.5 -2t32.5 0q72 3 102.5 36t34.5 107q1 19 1.5 53t0 68t-1.5 53h120q1 -19 1 -53
v-68t-1 -53q-8 -136 -67 -194.5t-190 -58.5z" />
    <glyph glyph-name="uni01C4" unicode="&#x1c4;" horiz-adv-x="1554" 
d="M93 0v1600h331q181 0 262 -78.5t84 -259.5q3 -165 4 -313t0 -296.5t-4 -313.5q-3 -181 -84 -260t-263 -79h-330zM309 192h114q128 0 131 123q10 486 0 972q-3 121 -130 121h-115v-1216zM872 0v179l416 1229h-393v192h624v-183l-430 -1225h397v-192h-614zM1134 1682
l-147 252h130l75 -141l75 141h130l-147 -252h-116z" />
    <glyph glyph-name="uni01C5" unicode="&#x1c5;" horiz-adv-x="1536" 
d="M93 0v1600h331q181 0 262 -78.5t84 -259.5q3 -165 4 -313t0 -296.5t-4 -313.5q-3 -181 -84 -260t-263 -79h-330zM309 192h114q128 0 131 123q10 486 0 972q-3 121 -130 121h-115v-1216zM893 0v138l375 900l-367 -1v162l598 1v-142l-380 -896h373v-162h-599zM1138 1282
l-147 252h130l75 -141l75 141h130l-147 -252h-116z" />
    <glyph glyph-name="uni01C6" unicode="&#x1c6;" horiz-adv-x="1541" 
d="M311 -17q-110 0 -166.5 67t-63.5 221q-2 89 -3 206.5t0 237t3 214.5q7 155 65.5 221.5t167.5 66.5q82 0 124 -34.5t78 -100.5h33v518h216v-1600h-216v118h-34q-36 -65 -79 -100t-125 -35zM395 144q48 0 91.5 26.5t62.5 77.5v704q-19 51 -62.5 77.5t-91.5 26.5
q-50 0 -72.5 -26t-24.5 -83q-5 -112 -6 -235t0 -241.5t6 -217.5q2 -57 24.5 -83t72.5 -26zM899 0v138l375 900l-367 -1v162l598 1v-142l-380 -896h373v-162h-599zM1144 1282l-147 252h130l75 -141l75 141h130l-147 -252h-116z" />
    <glyph glyph-name="uni01C7" unicode="&#x1c7;" horiz-adv-x="1473" 
d="M93 0v1600h216v-1408h357v-192h-573zM1064 -17q-179 0 -250.5 77.5t-75.5 255.5q-4 137 0 273h204q-2 -68 -2 -155.5t2 -155.5q2 -59 30.5 -87.5t91.5 -28.5t90 28.5t27 87.5v1322h216v-1284q0 -178 -75 -255.5t-258 -77.5z" />
    <glyph glyph-name="uni01C8" unicode="&#x1c8;" horiz-adv-x="1098" 
d="M93 0v1600h216v-1408h357v-192h-573zM767 1407v193h255v-193h-255zM674 -418q-30 0 -66 4t-67 9v163q25 -3 64 -4.5t68 -1.5q115 0 115 113v1335h216v-1319q0 -159 -80 -229t-250 -70z" />
    <glyph glyph-name="uni01C9" unicode="&#x1c9;" horiz-adv-x="814" 
d="M96 0v1600h216v-1600h-216zM484 1407v193h255v-193h-255zM391 -418q-30 0 -66 4t-67 9v163q25 -3 64 -4.5t68 -1.5q115 0 115 113v1335h216v-1319q0 -159 -80 -229t-250 -70z" />
    <glyph glyph-name="uni01CA" unicode="&#x1ca;" horiz-adv-x="1727" 
d="M93 0v1600h330l104 -508l123 -900h49l-40 782l-16 626h210v-1600h-345l-110 549l-98 860h-52l37 -803l17 -606h-209zM1319 -17q-179 0 -250.5 77.5t-75.5 255.5q-4 137 0 273h204q-2 -68 -2 -155.5t2 -155.5q2 -59 30.5 -87.5t91.5 -28.5t90 28.5t27 87.5v1322h216v-1284
q0 -178 -75 -255.5t-258 -77.5z" />
    <glyph glyph-name="uni01CB" unicode="&#x1cb;" horiz-adv-x="1352" 
d="M93 0v1600h330l104 -508l123 -900h49l-40 782l-16 626h210v-1600h-345l-110 549l-98 860h-52l37 -803l17 -606h-209zM1022 1407v193h255v-193h-255zM929 -418q-30 0 -66 4t-67 9v163q25 -3 64 -4.5t68 -1.5q115 0 115 113v1335h216v-1319q0 -159 -80 -229t-250 -70z" />
    <glyph glyph-name="uni01CC" unicode="&#x1cc;" horiz-adv-x="1279" 
d="M96 0v1200h216v-118h40q35 65 78 100t124 35q109 0 168 -66.5t60 -221.5v-929h-216v947q-1 109 -100 109q-47 0 -91 -27.5t-63 -76.5v-952h-216zM949 1407v193h255v-193h-255zM856 -418q-30 0 -66 4t-67 9v163q25 -3 64 -4.5t68 -1.5q115 0 115 113v1335h216v-1319
q0 -159 -80 -229t-250 -70z" />
    <glyph glyph-name="uni01CD" unicode="&#x1cd;" horiz-adv-x="816" 
d="M32 0l196 1600h360l196 -1600h-221l-38 399h-234l-37 -399h-222zM312 591h193l-34 352l-35 465h-56l-34 -465zM350 1682l-147 252h130l75 -141l75 141h130l-147 -252h-116z" />
    <glyph glyph-name="uni01CE" unicode="&#x1ce;" horiz-adv-x="823" 
d="M302 -14q-115 0 -169.5 60.5t-65.5 196.5q-1 22 -1.5 47.5t0.5 47.5q9 114 64 187t192 134q48 22 96 40.5t99 34.5v205q0 57 -22 85t-84 28q-54 0 -77 -23.5t-26 -82.5q-2 -29 -2 -87.5t2 -93.5h-210q-2 24 -3 72.5t1 85.5q6 154 77 224t244 70q180 0 247.5 -77
t67.5 -250l-1 -890h-216v119h-30q-29 -67 -70 -100t-113 -33zM387 144q88 0 129 98v342q-35 -11 -70 -26t-71 -38q-55 -33 -73.5 -78.5t-21.5 -103.5q-2 -42 0 -79q10 -115 107 -115zM357 1282l-147 252h130l75 -141l75 141h130l-147 -252h-116z" />
    <glyph glyph-name="uni01CF" unicode="&#x1cf;" horiz-adv-x="402" 
d="M93 0v1600h216v-1600h-216zM142 1682l-147 252h130l75 -141l75 141h130l-147 -252h-116z" />
    <glyph glyph-name="uni01D0" unicode="&#x1d0;" horiz-adv-x="408" 
d="M96 0v1200h216v-1200h-216zM145 1282l-147 252h130l75 -141l75 141h130l-147 -252h-116z" />
    <glyph glyph-name="uni01D1" unicode="&#x1d1;" horiz-adv-x="856" 
d="M428 -17q-180 0 -259.5 76.5t-82.5 254.5q-11 486 0 973q3 177 82.5 253.5t259.5 76.5t258 -76.5t83 -253.5q13 -489 0 -973q-5 -178 -83 -254.5t-258 -76.5zM428 162q122 0 125 114q6 166 7.5 346.5t-0.5 360t-7 342.5q-3 114 -125 114q-123 0 -126 -114
q-6 -163 -8 -342.5t0 -360t8 -346.5q3 -114 126 -114zM371 1682l-147 252h130l75 -141l75 141h130l-147 -252h-116z" />
    <glyph glyph-name="uni01D2" unicode="&#x1d2;" horiz-adv-x="835" 
d="M418 -17q-180 0 -253.5 76t-82.5 255q-2 76 -3.5 180t-0.5 208.5t4 184.5q9 177 82 253.5t254 76.5q182 0 253.5 -77t81.5 -253q2 -77 3.5 -180.5t0.5 -208t-4 -184.5q-10 -176 -81.5 -253.5t-253.5 -77.5zM418 148q63 0 90 27t28 87q6 176 6 338.5t-6 338.5
q-1 59 -27.5 86t-90.5 27q-62 0 -90 -27t-30 -86q-5 -176 -5 -339.5t5 -337.5q2 -60 30 -87t90 -27zM359 1282l-147 252h130l75 -141l75 141h130l-147 -252h-116z" />
    <glyph glyph-name="uni01D3" unicode="&#x1d3;" horiz-adv-x="839" 
d="M420 -17q-181 0 -260 76.5t-81 254.5q-8 643 0 1286h216q-5 -320 -4.5 -662t3.5 -662q0 -114 126 -114q124 0 124 114q3 320 4 662t-4 662h216q8 -643 0 -1286q-2 -178 -80.5 -254.5t-259.5 -76.5zM361 1682l-147 252h130l75 -141l75 141h130l-147 -252h-116z" />
    <glyph glyph-name="uni01D4" unicode="&#x1d4;" horiz-adv-x="867" 
d="M321 -17q-109 0 -171 67t-62 221v929h216v-947q0 -109 97 -109q46 0 90.5 27.5t63.5 76.5v952h216v-1200h-216v118h-32q-73 -135 -202 -135zM368 1282l-147 252h130l75 -141l75 141h130l-147 -252h-116z" />
    <glyph glyph-name="uni01D5" unicode="&#x1d5;" horiz-adv-x="839" 
d="M420 -17q-181 0 -260 76.5t-81 254.5q-8 643 0 1286h216q-5 -320 -4.5 -662t3.5 -662q0 -114 126 -114q124 0 124 114q3 320 4 662t-4 662h216q8 -643 0 -1286q-2 -178 -80.5 -254.5t-259.5 -76.5zM466 1710v154h154v-154h-154zM220 1710v154h153v-154h-153zM141 2025
h556v-110h-556v110z" />
    <glyph glyph-name="uni01D6" unicode="&#x1d6;" horiz-adv-x="867" 
d="M321 -17q-109 0 -171 67t-62 221v929h216v-947q0 -109 97 -109q46 0 90.5 27.5t63.5 76.5v952h216v-1200h-216v118h-32q-73 -135 -202 -135zM473 1310v154h154v-154h-154zM227 1310v154h153v-154h-153zM148 1625h556v-110h-556v110z" />
    <glyph glyph-name="uni01D7" unicode="&#x1d7;" horiz-adv-x="839" 
d="M420 -17q-181 0 -260 76.5t-81 254.5q-8 643 0 1286h216q-5 -320 -4.5 -662t3.5 -662q0 -114 126 -114q124 0 124 114q3 320 4 662t-4 662h216q8 -643 0 -1286q-2 -178 -80.5 -254.5t-259.5 -76.5zM466 1710v154h154v-154h-154zM220 1710v154h153v-154h-153zM350 1915
l167 252h158l-174 -252h-151z" />
    <glyph glyph-name="uni01D8" unicode="&#x1d8;" horiz-adv-x="867" 
d="M321 -17q-109 0 -171 67t-62 221v929h216v-947q0 -109 97 -109q46 0 90.5 27.5t63.5 76.5v952h216v-1200h-216v118h-32q-73 -135 -202 -135zM473 1310v154h154v-154h-154zM227 1310v154h153v-154h-153zM357 1515l167 252h158l-174 -252h-151z" />
    <glyph glyph-name="uni01D9" unicode="&#x1d9;" horiz-adv-x="839" 
d="M420 -17q-181 0 -260 76.5t-81 254.5q-8 643 0 1286h216q-5 -320 -4.5 -662t3.5 -662q0 -114 126 -114q124 0 124 114q3 320 4 662t-4 662h216q8 -643 0 -1286q-2 -178 -80.5 -254.5t-259.5 -76.5zM466 1710v154h154v-154h-154zM220 1710v154h153v-154h-153zM361 1917
l-147 252h130l75 -141l75 141h130l-147 -252h-116z" />
    <glyph glyph-name="uni01DA" unicode="&#x1da;" horiz-adv-x="867" 
d="M321 -17q-109 0 -171 67t-62 221v929h216v-947q0 -109 97 -109q46 0 90.5 27.5t63.5 76.5v952h216v-1200h-216v118h-32q-73 -135 -202 -135zM473 1310v154h154v-154h-154zM227 1310v154h153v-154h-153zM368 1517l-147 252h130l75 -141l75 141h130l-147 -252h-116z" />
    <glyph glyph-name="uni01DB" unicode="&#x1db;" horiz-adv-x="839" 
d="M420 -17q-181 0 -260 76.5t-81 254.5q-8 643 0 1286h216q-5 -320 -4.5 -662t3.5 -662q0 -114 126 -114q124 0 124 114q3 320 4 662t-4 662h216q8 -643 0 -1286q-2 -178 -80.5 -254.5t-259.5 -76.5zM466 1710v154h154v-154h-154zM220 1710v154h153v-154h-153zM323 1915
l-160 252h157l153 -252h-150z" />
    <glyph glyph-name="uni01DC" unicode="&#x1dc;" horiz-adv-x="867" 
d="M321 -17q-109 0 -171 67t-62 221v929h216v-947q0 -109 97 -109q46 0 90.5 27.5t63.5 76.5v952h216v-1200h-216v118h-32q-73 -135 -202 -135zM473 1310v154h154v-154h-154zM227 1310v154h153v-154h-153zM330 1515l-160 252h157l153 -252h-150z" />
    <glyph glyph-name="uni01DD" unicode="&#x1dd;" horiz-adv-x="801" 
d="M388 1217q170 0 247 -69.5t85 -230.5q2 -57 3 -139.5t1 -173t-1 -174.5t-3 -144q-10 -163 -86.5 -233t-243.5 -70q-164 0 -238.5 68.5t-82.5 225.5q-1 27 -1.5 84.5t0 131t3.5 146.5h436q0 73 -1.5 147.5t-2.5 152.5q-2 63 -28.5 88t-85.5 25q-56 0 -80 -25t-27 -88
t0 -178h-211q-2 28 -2.5 74t0.5 82q8 161 81 230.5t238 69.5zM507 484h-227q-1 -74 -0.5 -140t2.5 -90q3 -57 28 -81.5t80 -24.5q60 0 85.5 24.5t27.5 81.5q1 62 2 118.5t2 111.5z" />
    <glyph glyph-name="Gcaron" unicode="&#x1e6;" horiz-adv-x="842" 
d="M428 -17q-183 0 -259.5 77.5t-82.5 255.5q-3 147 -4.5 314t0 333t4.5 311q7 186 84.5 264.5t256.5 78.5q171 0 249.5 -77t88.5 -254q6 -132 0 -263h-216q3 68 3 150.5t-3 150.5q-6 115 -122 115q-120 0 -125 -115q-9 -250 -9 -523t9 -523q4 -116 126 -116q126 0 133 116
q2 58 2 130.5t-2 130.5h-122v189h333q3 -84 2.5 -190.5t-4.5 -221.5q-8 -178 -87.5 -255.5t-254.5 -77.5zM362 1682l-147 252h130l75 -141l75 141h130l-147 -252h-116z" />
    <glyph glyph-name="gcaron" unicode="&#x1e7;" horiz-adv-x="865" 
d="M392 -364q-290 0 -319 176q-2 11 -3.5 28t-0.5 31q7 55 41 88t87 40v34q-102 22 -112 110q-1 16 -0.5 26.5t0.5 22.5q5 42 40 69.5t86 35.5v34q-133 60 -144 267q-2 65 -3 112.5t0 94.5t3 109q11 163 85 233t248 70q118 0 185 -30.5t103 -96.5h34q13 110 141 110v-166
h-32q-45 0 -70 -27.5t-26 -91.5l-1 -84q1 -62 1 -111t-3 -122q-9 -162 -82.5 -232t-249.5 -70q-85 0 -118.5 -16t-33.5 -51v-9q0 -34 26.5 -47.5t126.5 -16.5q176 -4 260.5 -56t100.5 -166q5 -37 0 -75q-16 -124 -107.5 -173.5t-262.5 -49.5zM400 460q63 0 90 26.5t30 83.5
q9 172 0 371q-3 58 -29.5 84.5t-90.5 26.5q-65 0 -92 -26.5t-29 -86.5q-4 -99 -4.5 -188.5t4.5 -176.5q3 -60 30 -87t91 -27zM406 -211q78 0 123 19t54 66q6 25 -1 52q-9 47 -52.5 63t-123.5 18q-74 2 -113.5 -16.5t-48.5 -65.5q-5 -27 0 -51q9 -49 48.5 -67t113.5 -18z
M344 1282l-147 252h130l75 -141l75 141h130l-147 -252h-116z" />
    <glyph glyph-name="uni01EA" unicode="&#x1ea;" horiz-adv-x="856" 
d="M428 -17q-180 0 -259.5 76.5t-82.5 254.5q-11 486 0 973q3 177 82.5 253.5t259.5 76.5t258 -76.5t83 -253.5q13 -489 0 -973q-5 -178 -83 -254.5t-258 -76.5zM428 162q122 0 125 114q6 166 7.5 346.5t-0.5 360t-7 342.5q-3 114 -125 114q-123 0 -126 -114
q-6 -163 -8 -342.5t0 -360t8 -346.5q3 -114 126 -114zM732 -288h-61q-120 0 -171 48.5t-35 155.5l16 95h116l-16 -95q-7 -52 14.5 -74.5t75.5 -22.5h61v-107z" />
    <glyph glyph-name="uni01EB" unicode="&#x1eb;" horiz-adv-x="835" 
d="M418 -17q-180 0 -253.5 76t-82.5 255q-2 76 -3.5 180t-0.5 208.5t4 184.5q9 177 82 253.5t254 76.5q182 0 253.5 -77t81.5 -253q2 -77 3.5 -180.5t0.5 -208t-4 -184.5q-10 -176 -81.5 -253.5t-253.5 -77.5zM418 148q63 0 90 27t28 87q6 176 6 338.5t-6 338.5
q-1 59 -27.5 86t-90.5 27q-62 0 -90 -27t-30 -86q-5 -176 -5 -339.5t5 -337.5q2 -60 30 -87t90 -27zM727 -288h-61q-120 0 -171 48.5t-35 155.5l16 95h116l-16 -95q-7 -52 14.5 -74.5t75.5 -22.5h61v-107z" />
    <glyph glyph-name="Aringacute" unicode="&#x1fa;" horiz-adv-x="816" 
d="M32 0l196 1600h360l196 -1600h-221l-38 399h-234l-37 -399h-222zM312 591h193l-34 352l-35 465h-56l-34 -465zM408 1672q-72 0 -123 51t-51 124q0 72 51 123t123 51t123.5 -51t51.5 -123q0 -73 -51.5 -124t-123.5 -51zM408 1789q25 0 42 16.5t17 41.5q0 24 -17 41t-42 17
q-24 0 -40.5 -17t-16.5 -41q0 -25 16.5 -41.5t40.5 -16.5zM339 2103l167 252h158l-174 -252h-151z" />
    <glyph glyph-name="aringacute" unicode="&#x1fb;" horiz-adv-x="823" 
d="M302 -14q-115 0 -169.5 60.5t-65.5 196.5q-1 22 -1.5 47.5t0.5 47.5q9 114 64 187t192 134q48 22 96 40.5t99 34.5v205q0 57 -22 85t-84 28q-54 0 -77 -23.5t-26 -82.5q-2 -29 -2 -87.5t2 -93.5h-210q-2 24 -3 72.5t1 85.5q6 154 77 224t244 70q180 0 247.5 -77
t67.5 -250l-1 -890h-216v119h-30q-29 -67 -70 -100t-113 -33zM387 144q88 0 129 98v342q-35 -11 -70 -26t-71 -38q-55 -33 -73.5 -78.5t-21.5 -103.5q-2 -42 0 -79q10 -115 107 -115zM416 1272q-72 0 -123 51t-51 124q0 72 51 123t123 51t123.5 -51t51.5 -123
q0 -73 -51.5 -124t-123.5 -51zM416 1389q25 0 42 16.5t17 41.5q0 24 -17 41t-42 17q-24 0 -40.5 -17t-16.5 -41q0 -25 16.5 -41.5t40.5 -16.5zM346 1703l167 252h158l-174 -252h-151z" />
    <glyph glyph-name="AEacute" unicode="&#x1fc;" horiz-adv-x="1159" 
d="M32 0l297 1600h785v-192h-356v-502h336v-192h-336v-522h356v-192h-572v399h-202l-73 -399h-235zM379 591h163v817h-48l-59 -520zM605 1680l167 252h158l-174 -252h-151z" />
    <glyph glyph-name="aeacute" unicode="&#x1fd;" horiz-adv-x="1239" 
d="M302 -14q-105 0 -165.5 60.5t-69.5 196.5q-1 22 -1.5 47.5t0.5 47.5q8 105 68.5 174.5t187.5 123.5q98 45 195 78v113v112q0 57 -22 85t-84 28q-54 0 -77 -23.5t-26 -82.5q-2 -29 -2 -87.5t2 -93.5h-210q-2 24 -3 72.5t1 85.5q6 154 77 224t244 70q144 0 213 -52
q39 28 93.5 40t125.5 12q164 0 238.5 -68.5t81.5 -225.5q2 -40 2.5 -141.5t-4.5 -211.5h-436v-309q0 -63 29.5 -88t89.5 -25q56 0 80.5 25t27.5 88q1 30 1 76t-2 102h210q2 -28 3 -74t-1 -82q-7 -161 -80 -230.5t-238 -69.5q-117 0 -190.5 32.5t-108.5 103.5h-17
q-31 -68 -92.5 -100.5t-140.5 -32.5zM731 724h228q1 63 0 126t-1 96q-2 57 -28 81.5t-81 24.5q-60 0 -89 -24.5t-29 -81.5v-222zM387 144q29 0 59.5 14.5t51.5 56.5t21 126q0 50 -1 106t-1 114q-31 -11 -67.5 -26.5t-74.5 -39.5q-51 -29 -71.5 -66.5t-23.5 -90.5
q-1 -18 -1 -38.5t1 -40.5q10 -115 107 -115zM566 1280l167 252h158l-174 -252h-151z" />
    <glyph glyph-name="Oslashacute" unicode="&#x1fe;" horiz-adv-x="856" 
d="M428 -17q-180 0 -259.5 76.5t-82.5 254.5q-11 486 0 973q3 177 82.5 253.5t259.5 76.5t258 -76.5t83 -253.5q13 -489 0 -973q-5 -178 -83 -254.5t-258 -76.5zM294 705l265 391q-2 57 -3 114t-3 115q-3 114 -125 114q-123 0 -126 -114q-5 -148 -7 -303.5t-1 -316.5z
M428 162q122 0 125 114q5 142 6.5 287t0.5 295l-262 -395q0 -46 1 -93t3 -94q3 -114 126 -114zM360 1680l167 252h158l-174 -252h-151z" />
    <glyph glyph-name="oslashacute" unicode="&#x1ff;" horiz-adv-x="835" 
d="M418 -17q-180 0 -253.5 76t-82.5 255q-2 76 -3.5 180t-0.5 208.5t4 184.5q9 177 82 253.5t254 76.5q182 0 253.5 -77t81.5 -253q2 -77 3.5 -180.5t0.5 -208t-4 -184.5q-10 -176 -81.5 -253.5t-253.5 -77.5zM298 939q-6 -208 -5 -403l247 274q-2 63 -4 129q-1 59 -27.5 86
t-90.5 27q-62 0 -90 -27t-30 -86zM418 148q63 0 90 27t28 87q7 198 6 383l-246 -273q1 -54 2 -110q2 -60 30 -87t90 -27zM348 1280l167 252h158l-174 -252h-151z" />
    <glyph glyph-name="uni0200" unicode="&#x200;" horiz-adv-x="816" 
d="M32 0l196 1600h360l196 -1600h-221l-38 399h-234l-37 -399h-222zM312 591h193l-34 352l-35 465h-56l-34 -465zM447 1680l-163 252h146l163 -252h-146zM206 1680l-163 252h145l163 -252h-145z" />
    <glyph glyph-name="uni0201" unicode="&#x201;" horiz-adv-x="823" 
d="M302 -14q-115 0 -169.5 60.5t-65.5 196.5q-1 22 -1.5 47.5t0.5 47.5q9 114 64 187t192 134q48 22 96 40.5t99 34.5v205q0 57 -22 85t-84 28q-54 0 -77 -23.5t-26 -82.5q-2 -29 -2 -87.5t2 -93.5h-210q-2 24 -3 72.5t1 85.5q6 154 77 224t244 70q180 0 247.5 -77
t67.5 -250l-1 -890h-216v119h-30q-29 -67 -70 -100t-113 -33zM387 144q88 0 129 98v342q-35 -11 -70 -26t-71 -38q-55 -33 -73.5 -78.5t-21.5 -103.5q-2 -42 0 -79q10 -115 107 -115zM455 1280l-163 252h146l163 -252h-146zM214 1280l-163 252h145l163 -252h-145z" />
    <glyph glyph-name="uni0202" unicode="&#x202;" horiz-adv-x="816" 
d="M32 0l196 1600h360l196 -1600h-221l-38 399h-234l-37 -399h-222zM312 591h193l-34 352l-35 465h-56l-34 -465zM408 1925q-130 0 -189.5 -58.5t-66.5 -194.5h132q1 75 29.5 107.5t94.5 32.5q67 0 95.5 -32.5t28.5 -107.5h132q-7 136 -66.5 194.5t-189.5 58.5z" />
    <glyph glyph-name="uni0203" unicode="&#x203;" horiz-adv-x="823" 
d="M302 -14q-115 0 -169.5 60.5t-65.5 196.5q-1 22 -1.5 47.5t0.5 47.5q9 114 64 187t192 134q48 22 96 40.5t99 34.5v205q0 57 -22 85t-84 28q-54 0 -77 -23.5t-26 -82.5q-2 -29 -2 -87.5t2 -93.5h-210q-2 24 -3 72.5t1 85.5q6 154 77 224t244 70q180 0 247.5 -77
t67.5 -250l-1 -890h-216v119h-30q-29 -67 -70 -100t-113 -33zM387 144q88 0 129 98v342q-35 -11 -70 -26t-71 -38q-55 -33 -73.5 -78.5t-21.5 -103.5q-2 -42 0 -79q10 -115 107 -115zM416 1525q-130 0 -189.5 -58.5t-66.5 -194.5h132q1 75 29.5 107.5t94.5 32.5
q67 0 95.5 -32.5t28.5 -107.5h132q-7 136 -66.5 194.5t-189.5 58.5z" />
    <glyph glyph-name="uni0204" unicode="&#x204;" horiz-adv-x="709" 
d="M93 0v1600h572v-192h-356v-502h336v-192h-336v-522h356v-192h-572zM403 1680l-163 252h146l163 -252h-146zM162 1680l-163 252h145l163 -252h-145z" />
    <glyph glyph-name="uni0205" unicode="&#x205;" horiz-adv-x="801" 
d="M413 -17q-170 0 -247 69.5t-85 230.5q-2 57 -3 139.5t-1 173t1 174.5t3 144q10 163 86.5 233t243.5 70q164 0 238.5 -68.5t82.5 -225.5q1 -27 1.5 -84.5t0 -131t-3.5 -146.5h-436q0 -73 1.5 -147.5t2.5 -152.5q2 -63 28.5 -88t85.5 -25q56 0 80 25t27 88t0 178h211
q2 -28 2.5 -74t-0.5 -82q-8 -161 -81 -230.5t-238 -69.5zM294 716h227q1 74 0.5 140t-2.5 90q-3 57 -28 81.5t-80 24.5q-60 0 -85.5 -24.5t-27.5 -81.5q-1 -62 -2 -118.5t-2 -111.5zM446 1280l-163 252h146l163 -252h-146zM205 1280l-163 252h145l163 -252h-145z" />
    <glyph glyph-name="uni0206" unicode="&#x206;" horiz-adv-x="709" 
d="M93 0v1600h572v-192h-356v-502h336v-192h-336v-522h356v-192h-572zM364 1925q-130 0 -189.5 -58.5t-66.5 -194.5h132q1 75 29.5 107.5t94.5 32.5q67 0 95.5 -32.5t28.5 -107.5h132q-7 136 -66.5 194.5t-189.5 58.5z" />
    <glyph glyph-name="uni0207" unicode="&#x207;" horiz-adv-x="801" 
d="M413 -17q-170 0 -247 69.5t-85 230.5q-2 57 -3 139.5t-1 173t1 174.5t3 144q10 163 86.5 233t243.5 70q164 0 238.5 -68.5t82.5 -225.5q1 -27 1.5 -84.5t0 -131t-3.5 -146.5h-436q0 -73 1.5 -147.5t2.5 -152.5q2 -63 28.5 -88t85.5 -25q56 0 80 25t27 88t0 178h211
q2 -28 2.5 -74t-0.5 -82q-8 -161 -81 -230.5t-238 -69.5zM294 716h227q1 74 0.5 140t-2.5 90q-3 57 -28 81.5t-80 24.5q-60 0 -85.5 -24.5t-27.5 -81.5q-1 -62 -2 -118.5t-2 -111.5zM407 1525q-130 0 -189.5 -58.5t-66.5 -194.5h132q1 75 29.5 107.5t94.5 32.5
q67 0 95.5 -32.5t28.5 -107.5h132q-7 136 -66.5 194.5t-189.5 58.5z" />
    <glyph glyph-name="uni0208" unicode="&#x208;" horiz-adv-x="402" 
d="M93 0v1600h216v-1600h-216zM240 1680l-163 252h146l163 -252h-146zM-1 1680l-163 252h145l163 -252h-145z" />
    <glyph glyph-name="uni0209" unicode="&#x209;" horiz-adv-x="408" 
d="M96 0v1200h216v-1200h-216zM243 1280l-163 252h146l163 -252h-146zM2 1280l-163 252h145l163 -252h-145z" />
    <glyph glyph-name="uni020A" unicode="&#x20a;" horiz-adv-x="402" 
d="M93 0v1600h216v-1600h-216zM201 1925q-130 0 -189.5 -58.5t-66.5 -194.5h132q1 75 29.5 107.5t94.5 32.5q67 0 95.5 -32.5t28.5 -107.5h132q-7 136 -66.5 194.5t-189.5 58.5z" />
    <glyph glyph-name="uni020B" unicode="&#x20b;" horiz-adv-x="408" 
d="M96 0v1200h216v-1200h-216zM204 1525q-130 0 -189.5 -58.5t-66.5 -194.5h132q1 75 29.5 107.5t94.5 32.5q67 0 95.5 -32.5t28.5 -107.5h132q-7 136 -66.5 194.5t-189.5 58.5z" />
    <glyph glyph-name="uni020C" unicode="&#x20c;" horiz-adv-x="856" 
d="M428 -17q-180 0 -259.5 76.5t-82.5 254.5q-11 486 0 973q3 177 82.5 253.5t259.5 76.5t258 -76.5t83 -253.5q13 -489 0 -973q-5 -178 -83 -254.5t-258 -76.5zM428 162q122 0 125 114q6 166 7.5 346.5t-0.5 360t-7 342.5q-3 114 -125 114q-123 0 -126 -114
q-6 -163 -8 -342.5t0 -360t8 -346.5q3 -114 126 -114zM468 1680l-163 252h146l163 -252h-146zM227 1680l-163 252h145l163 -252h-145z" />
    <glyph glyph-name="uni020D" unicode="&#x20d;" horiz-adv-x="835" 
d="M418 -17q-180 0 -253.5 76t-82.5 255q-2 76 -3.5 180t-0.5 208.5t4 184.5q9 177 82 253.5t254 76.5q182 0 253.5 -77t81.5 -253q2 -77 3.5 -180.5t0.5 -208t-4 -184.5q-10 -176 -81.5 -253.5t-253.5 -77.5zM418 148q63 0 90 27t28 87q6 176 6 338.5t-6 338.5
q-1 59 -27.5 86t-90.5 27q-62 0 -90 -27t-30 -86q-5 -176 -5 -339.5t5 -337.5q2 -60 30 -87t90 -27zM457 1280l-163 252h146l163 -252h-146zM216 1280l-163 252h145l163 -252h-145z" />
    <glyph glyph-name="uni020E" unicode="&#x20e;" horiz-adv-x="856" 
d="M428 -17q-180 0 -259.5 76.5t-82.5 254.5q-11 486 0 973q3 177 82.5 253.5t259.5 76.5t258 -76.5t83 -253.5q13 -489 0 -973q-5 -178 -83 -254.5t-258 -76.5zM428 162q122 0 125 114q6 166 7.5 346.5t-0.5 360t-7 342.5q-3 114 -125 114q-123 0 -126 -114
q-6 -163 -8 -342.5t0 -360t8 -346.5q3 -114 126 -114zM429 1925q-130 0 -189.5 -58.5t-66.5 -194.5h132q1 75 29.5 107.5t94.5 32.5q67 0 95.5 -32.5t28.5 -107.5h132q-7 136 -66.5 194.5t-189.5 58.5z" />
    <glyph glyph-name="uni020F" unicode="&#x20f;" horiz-adv-x="835" 
d="M418 -17q-180 0 -253.5 76t-82.5 255q-2 76 -3.5 180t-0.5 208.5t4 184.5q9 177 82 253.5t254 76.5q182 0 253.5 -77t81.5 -253q2 -77 3.5 -180.5t0.5 -208t-4 -184.5q-10 -176 -81.5 -253.5t-253.5 -77.5zM418 148q63 0 90 27t28 87q6 176 6 338.5t-6 338.5
q-1 59 -27.5 86t-90.5 27q-62 0 -90 -27t-30 -86q-5 -176 -5 -339.5t5 -337.5q2 -60 30 -87t90 -27zM418 1525q-130 0 -189.5 -58.5t-66.5 -194.5h132q1 75 29.5 107.5t94.5 32.5q67 0 95.5 -32.5t28.5 -107.5h132q-7 136 -66.5 194.5t-189.5 58.5z" />
    <glyph glyph-name="uni0210" unicode="&#x210;" horiz-adv-x="825" 
d="M93 0v1600h315q179 0 259.5 -75.5t86.5 -248.5q4 -109 4 -194t-4 -182q-7 -223 -148 -288l175 -612h-230l-149 576h-93v-576h-216zM309 767h98q125 0 131 122q9 199 0 398q-6 121 -130 121h-99v-641zM444 1680l-163 252h146l163 -252h-146zM203 1680l-163 252h145
l163 -252h-145z" />
    <glyph glyph-name="uni0211" unicode="&#x211;" horiz-adv-x="598" 
d="M96 0v1200h216v-132h40q13 77 52.5 107t104.5 30q21 0 41.5 -1.5t32.5 -1.5v-168h-72q-100 0 -143 -33t-56 -98v-903h-216zM370 1280l-163 252h146l163 -252h-146zM129 1280l-163 252h145l163 -252h-145z" />
    <glyph glyph-name="uni0212" unicode="&#x212;" horiz-adv-x="825" 
d="M93 0v1600h315q179 0 259.5 -75.5t86.5 -248.5q4 -109 4 -194t-4 -182q-7 -223 -148 -288l175 -612h-230l-149 576h-93v-576h-216zM309 767h98q125 0 131 122q9 199 0 398q-6 121 -130 121h-99v-641zM405 1925q-130 0 -189.5 -58.5t-66.5 -194.5h132q1 75 29.5 107.5
t94.5 32.5q67 0 95.5 -32.5t28.5 -107.5h132q-7 136 -66.5 194.5t-189.5 58.5z" />
    <glyph glyph-name="uni0213" unicode="&#x213;" horiz-adv-x="598" 
d="M96 0v1200h216v-132h40q13 77 52.5 107t104.5 30q21 0 41.5 -1.5t32.5 -1.5v-168h-72q-100 0 -143 -33t-56 -98v-903h-216zM331 1525q-130 0 -189.5 -58.5t-66.5 -194.5h132q1 75 29.5 107.5t94.5 32.5q67 0 95.5 -32.5t28.5 -107.5h132q-7 136 -66.5 194.5t-189.5 58.5z
" />
    <glyph glyph-name="uni0214" unicode="&#x214;" horiz-adv-x="839" 
d="M420 -17q-181 0 -260 76.5t-81 254.5q-8 643 0 1286h216q-5 -320 -4.5 -662t3.5 -662q0 -114 126 -114q124 0 124 114q3 320 4 662t-4 662h216q8 -643 0 -1286q-2 -178 -80.5 -254.5t-259.5 -76.5zM459 1680l-163 252h146l163 -252h-146zM218 1680l-163 252h145l163 -252
h-145z" />
    <glyph glyph-name="uni0215" unicode="&#x215;" horiz-adv-x="867" 
d="M321 -17q-109 0 -171 67t-62 221v929h216v-947q0 -109 97 -109q46 0 90.5 27.5t63.5 76.5v952h216v-1200h-216v118h-32q-73 -135 -202 -135zM466 1280l-163 252h146l163 -252h-146zM225 1280l-163 252h145l163 -252h-145z" />
    <glyph glyph-name="uni0216" unicode="&#x216;" horiz-adv-x="839" 
d="M420 -17q-181 0 -260 76.5t-81 254.5q-8 643 0 1286h216q-5 -320 -4.5 -662t3.5 -662q0 -114 126 -114q124 0 124 114q3 320 4 662t-4 662h216q8 -643 0 -1286q-2 -178 -80.5 -254.5t-259.5 -76.5zM420 1925q-130 0 -189.5 -58.5t-66.5 -194.5h132q1 75 29.5 107.5
t94.5 32.5q67 0 95.5 -32.5t28.5 -107.5h132q-7 136 -66.5 194.5t-189.5 58.5z" />
    <glyph glyph-name="uni0217" unicode="&#x217;" horiz-adv-x="867" 
d="M321 -17q-109 0 -171 67t-62 221v929h216v-947q0 -109 97 -109q46 0 90.5 27.5t63.5 76.5v952h216v-1200h-216v118h-32q-73 -135 -202 -135zM427 1525q-130 0 -189.5 -58.5t-66.5 -194.5h132q1 75 29.5 107.5t94.5 32.5q67 0 95.5 -32.5t28.5 -107.5h132
q-7 136 -66.5 194.5t-189.5 58.5z" />
    <glyph glyph-name="uni0218" unicode="&#x218;" horiz-adv-x="815" 
d="M410 -17q-180 0 -256.5 77.5t-83.5 255.5q-2 70 -1.5 136t6.5 137h204q-4 -81 -4.5 -160.5t4.5 -150.5q4 -59 35 -87.5t95 -28.5q63 0 91 28.5t34 87.5q5 68 4.5 123.5t-4.5 127.5q-4 59 -24 101t-73 56l-134 34q-136 35 -185 118.5t-54 227.5q-1 54 -0.5 110t1.5 111
q6 177 83 253.5t261 76.5q173 0 250.5 -77t84.5 -254q1 -50 0.5 -121t-3.5 -142h-208q3 75 4 150.5t-2 150.5q-5 115 -127 115q-64 0 -93 -29t-34 -86q-5 -64 -4.5 -129t4.5 -129q4 -65 25 -103.5t76 -52.5l121 -29q142 -34 192.5 -121t55.5 -231q2 -63 1.5 -109t-2.5 -104
q-7 -178 -84.5 -255.5t-255.5 -77.5zM333 -403l59 139h-86v184h218v-163l-80 -160h-111z" />
    <glyph glyph-name="uni0219" unicode="&#x219;" horiz-adv-x="759" 
d="M373 -17q-161 0 -229.5 69.5t-74.5 230.5q-1 36 -0.5 82t2.5 74h190q-2 -56 -1.5 -101.5t1.5 -76.5q2 -63 29.5 -88t82.5 -25q65 0 93.5 25t29.5 88q0 41 0.5 53.5t-0.5 50.5q-1 52 -16.5 82.5t-58.5 43.5l-118 36q-119 37 -178 103.5t-61 198.5v42t1 42
q1 163 71.5 233.5t247.5 70.5q163 0 229.5 -68.5t73.5 -226.5q1 -36 0.5 -82.5t-2.5 -74.5h-197q2 38 1.5 95t-1.5 86q-2 59 -24.5 82.5t-79.5 23.5q-60 0 -83.5 -23.5t-24.5 -82.5q-2 -29 -2.5 -46.5t0.5 -53.5q1 -56 14 -92t66 -52l106 -29q118 -31 177.5 -98t59.5 -199
q0 -23 -0.5 -49.5t-1.5 -49.5q-2 -157 -75 -225.5t-247 -68.5zM303 -403l59 139h-86v184h218v-163l-80 -160h-111z" />
    <glyph glyph-name="uni021A" unicode="&#x21a;" horiz-adv-x="699" 
d="M241 0v1408h-230v192h677v-192h-230v-1408h-217zM275 -403l59 139h-86v184h218v-163l-80 -160h-111z" />
    <glyph glyph-name="uni021B" unicode="&#x21b;" horiz-adv-x="588" 
d="M473 -17q-185 0 -261 69.5t-76 230.5v751h-98v166h100v340h217v-340h191v-166h-194v-775q0 -63 22.5 -87.5t99.5 -24.5q26 0 46 1t46 3v-158q-39 -10 -93 -10zM291 -403l59 139h-86v184h218v-163l-80 -160h-111z" />
    <glyph glyph-name="uni022A" unicode="&#x22a;" horiz-adv-x="856" 
d="M428 -17q-180 0 -259.5 76.5t-82.5 254.5q-11 486 0 973q3 177 82.5 253.5t259.5 76.5t258 -76.5t83 -253.5q13 -489 0 -973q-5 -178 -83 -254.5t-258 -76.5zM428 162q122 0 125 114q6 166 7.5 346.5t-0.5 360t-7 342.5q-3 114 -125 114q-123 0 -126 -114
q-6 -163 -8 -342.5t0 -360t8 -346.5q3 -114 126 -114zM476 1710v154h154v-154h-154zM230 1710v154h153v-154h-153zM151 2025h556v-110h-556v110z" />
    <glyph glyph-name="uni022B" unicode="&#x22b;" horiz-adv-x="835" 
d="M418 -17q-180 0 -253.5 76t-82.5 255q-2 76 -3.5 180t-0.5 208.5t4 184.5q9 177 82 253.5t254 76.5q182 0 253.5 -77t81.5 -253q2 -77 3.5 -180.5t0.5 -208t-4 -184.5q-10 -176 -81.5 -253.5t-253.5 -77.5zM418 148q63 0 90 27t28 87q6 176 6 338.5t-6 338.5
q-1 59 -27.5 86t-90.5 27q-62 0 -90 -27t-30 -86q-5 -176 -5 -339.5t5 -337.5q2 -60 30 -87t90 -27zM465 1310v154h154v-154h-154zM219 1310v154h153v-154h-153zM139 1625h556v-110h-556v110z" />
    <glyph glyph-name="uni022C" unicode="&#x22c;" horiz-adv-x="856" 
d="M428 -17q-180 0 -259.5 76.5t-82.5 254.5q-11 486 0 973q3 177 82.5 253.5t259.5 76.5t258 -76.5t83 -253.5q13 -489 0 -973q-5 -178 -83 -254.5t-258 -76.5zM428 162q122 0 125 114q6 166 7.5 346.5t-0.5 360t-7 342.5q-3 114 -125 114q-123 0 -126 -114
q-6 -163 -8 -342.5t0 -360t8 -346.5q3 -114 126 -114zM618 1856h89q-3 -96 -49.5 -140.5t-120.5 -42.5q-51 2 -84.5 22.5t-61.5 42t-63 23.5q-30 2 -52.5 -16.5t-26.5 -59.5h-88q7 106 55.5 149.5t118.5 40.5q55 -3 87.5 -24t58 -41.5t59.5 -21.5q37 -2 57.5 17t20.5 51z
M148 2051h556v-110h-556v110z" />
    <glyph glyph-name="uni022D" unicode="&#x22d;" horiz-adv-x="835" 
d="M418 -17q-180 0 -253.5 76t-82.5 255q-2 76 -3.5 180t-0.5 208.5t4 184.5q9 177 82 253.5t254 76.5q182 0 253.5 -77t81.5 -253q2 -77 3.5 -180.5t0.5 -208t-4 -184.5q-10 -176 -81.5 -253.5t-253.5 -77.5zM418 148q63 0 90 27t28 87q6 176 6 338.5t-6 338.5
q-1 59 -27.5 86t-90.5 27q-62 0 -90 -27t-30 -86q-5 -176 -5 -339.5t5 -337.5q2 -60 30 -87t90 -27zM607 1456h89q-3 -96 -49.5 -140.5t-120.5 -42.5q-51 2 -84.5 22.5t-61.5 42t-63 23.5q-30 2 -52.5 -16.5t-26.5 -59.5h-88q7 106 55.5 149.5t118.5 40.5q55 -3 87.5 -24
t58 -41.5t59.5 -21.5q37 -2 57.5 17t20.5 51zM137 1651h556v-110h-556v110z" />
    <glyph glyph-name="uni0230" unicode="&#x230;" horiz-adv-x="856" 
d="M428 -17q-180 0 -259.5 76.5t-82.5 254.5q-11 486 0 973q3 177 82.5 253.5t259.5 76.5t258 -76.5t83 -253.5q13 -489 0 -973q-5 -178 -83 -254.5t-258 -76.5zM428 162q122 0 125 114q6 166 7.5 346.5t-0.5 360t-7 342.5q-3 114 -125 114q-123 0 -126 -114
q-6 -163 -8 -342.5t0 -360t8 -346.5q3 -114 126 -114zM353 1680v154h153v-154h-153zM151 2025h556v-110h-556v110z" />
    <glyph glyph-name="uni0231" unicode="&#x231;" horiz-adv-x="835" 
d="M418 -17q-180 0 -253.5 76t-82.5 255q-2 76 -3.5 180t-0.5 208.5t4 184.5q9 177 82 253.5t254 76.5q182 0 253.5 -77t81.5 -253q2 -77 3.5 -180.5t0.5 -208t-4 -184.5q-10 -176 -81.5 -253.5t-253.5 -77.5zM418 148q63 0 90 27t28 87q6 176 6 338.5t-6 338.5
q-1 59 -27.5 86t-90.5 27q-62 0 -90 -27t-30 -86q-5 -176 -5 -339.5t5 -337.5q2 -60 30 -87t90 -27zM341 1280v154h153v-154h-153zM139 1625h556v-110h-556v110z" />
    <glyph glyph-name="uni0232" unicode="&#x232;" horiz-adv-x="791" 
d="M287 0v402l-259 1198h221l81 -420l43 -464h45l41 464l82 420h222l-260 -1199v-401h-216zM109 1790h556v-110h-556v110z" />
    <glyph glyph-name="uni0233" unicode="&#x233;" horiz-adv-x="769" 
d="M191 -414q-30 0 -66 3.5t-67 8.5v163q25 -2 64 -4t68 -2q77 0 105.5 25.5t37.5 88.5l17 131h-114l-200 1200h220l71 -563l46 -475h45l43 475l59 563h219l-191 -1315q-16 -106 -53.5 -172t-109.5 -96.5t-194 -30.5zM114 1390h556v-110h-556v110z" />
    <glyph glyph-name="uni0237" unicode="&#x237;" horiz-adv-x="410" 
d="M-17 -418q-30 0 -66 4t-67 9v163q25 -3 64 -4.5t68 -1.5q115 0 115 113v1335h216v-1319q0 -159 -80 -229t-250 -70z" />
    <glyph glyph-name="uni0259" unicode="&#x259;" horiz-adv-x="801" 
d="M388 1217q170 0 247 -69.5t85 -230.5q2 -57 3 -139.5t1 -173t-1 -174.5t-3 -144q-10 -163 -86.5 -233t-243.5 -70q-164 0 -238.5 68.5t-82.5 225.5q-1 27 -1.5 84.5t0 131t3.5 146.5h436q0 73 -1.5 147.5t-2.5 152.5q-2 63 -28.5 88t-85.5 25q-56 0 -80 -25t-27 -88
t0 -178h-211q-2 28 -2.5 74t0.5 82q8 161 81 230.5t238 69.5zM507 484h-227q-1 -74 -0.5 -140t2.5 -90q3 -57 28 -81.5t80 -24.5q60 0 85.5 24.5t27.5 81.5q1 62 2 118.5t2 111.5z" />
    <glyph glyph-name="uni02B9" unicode="&#x2b9;" horiz-adv-x="369" 
d="M132 1111l-40 250v239h183v-239l-39 -250h-104z" />
    <glyph glyph-name="uni02BA" unicode="&#x2ba;" horiz-adv-x="685" 
d="M132 1111l-40 250v239h183v-239l-39 -250h-104zM448 1111l-39 250v239h182v-239l-39 -250h-104z" />
    <glyph glyph-name="uni02BB" unicode="&#x2bb;" horiz-adv-x="404" 
d="M283 1619l-59 -140h87v-184h-218v163l80 161h110z" />
    <glyph glyph-name="uni02BC" unicode="&#x2bc;" horiz-adv-x="369" 
d="M132 1111l-40 250v239h183v-239l-39 -250h-104z" />
    <glyph glyph-name="uni02BE" unicode="&#x2be;" horiz-adv-x="418" 
d="M93 1151v117q48 0 81.5 33.5t33.5 81.5q0 47 -33.5 81t-81.5 34v117q64 0 117 -31.5t84 -84t31 -116.5t-31 -117t-84 -84t-117 -31z" />
    <glyph glyph-name="uni02BF" unicode="&#x2bf;" horiz-adv-x="418" 
d="M325 1151q-64 0 -116.5 31t-84 84t-31.5 117t31.5 116.5t84 84t116.5 31.5v-117q-47 0 -81 -34t-34 -81q0 -48 34 -81.5t81 -33.5v-117z" />
    <glyph glyph-name="circumflex" unicode="&#x2c6;" horiz-adv-x="609" 
d="M93 1282l147 252h130l146 -252h-145l-66 126l-67 -126h-145z" />
    <glyph glyph-name="caron" unicode="&#x2c7;" horiz-adv-x="596" 
d="M240 1282l-147 252h130l75 -141l75 141h130l-147 -252h-116z" />
    <glyph glyph-name="uni02C8" unicode="&#x2c8;" horiz-adv-x="368" 
d="M93 1600h182v-744h-182v744z" />
    <glyph glyph-name="uni02C9" unicode="&#x2c9;" horiz-adv-x="829" 
d="M127 1390h556v-110h-556v110z" />
    <glyph glyph-name="uni02CA" unicode="&#x2ca;" horiz-adv-x="564" 
d="M204 1111l267 489h-183l-195 -489h111z" />
    <glyph glyph-name="uni02CB" unicode="&#x2cb;" horiz-adv-x="564" 
d="M360 1111l-267 489h183l195 -489h-111z" />
    <glyph glyph-name="uni02CC" unicode="&#x2cc;" horiz-adv-x="368" 
d="M93 376h182v-776h-182v776z" />
    <glyph glyph-name="breve" unicode="&#x2d8;" horiz-adv-x="698" 
d="M349 1272q-130 0 -189.5 58.5t-66.5 194.5h132q1 -75 29.5 -107.5t94.5 -32.5q67 0 95.5 32.5t28.5 107.5h132q-7 -136 -66.5 -194.5t-189.5 -58.5z" />
    <glyph glyph-name="dotaccent" unicode="&#x2d9;" horiz-adv-x="366" 
d="M101 1280v154h153v-154h-153z" />
    <glyph glyph-name="ring" unicode="&#x2da;" horiz-adv-x="650" 
d="M255 1272q-72 0 -123 51t-51 124q0 72 51 123t123 51t123.5 -51t51.5 -123q0 -73 -51.5 -124t-123.5 -51zM255 1389q25 0 42 16.5t17 41.5q0 24 -17 41t-42 17q-24 0 -40.5 -17t-16.5 -41q0 -25 16.5 -41.5t40.5 -16.5z" />
    <glyph glyph-name="ogonek" unicode="&#x2db;" horiz-adv-x="433" 
d="M347 -299h-61q-120 0 -171 48.5t-35 155.5l16 95h116l-16 -95q-7 -52 14.5 -74.5t75.5 -22.5h61v-107z" />
    <glyph glyph-name="tilde" unicode="&#x2dc;" horiz-adv-x="732" 
d="M527 1456h89q-3 -96 -49.5 -140.5t-120.5 -42.5q-51 2 -84.5 22.5t-61.5 42t-63 23.5q-30 2 -52.5 -16.5t-26.5 -59.5h-88q7 106 55.5 149.5t118.5 40.5q55 -3 87.5 -24t58 -41.5t59.5 -21.5q37 -2 57.5 17t20.5 51z" />
    <glyph glyph-name="hungarumlaut" unicode="&#x2dd;" horiz-adv-x="746" 
d="M79 1282l193 252h152l-193 -252h-152zM321 1282l193 252h152l-193 -252h-152z" />
    <glyph glyph-name="gravecomb" unicode="&#x300;" horiz-adv-x="0" 
d="M249 1280l-160 252h157l153 -252h-150z" />
    <glyph glyph-name="acutecomb" unicode="&#x301;" horiz-adv-x="0" 
d="M79 1280l167 252h158l-174 -252h-151z" />
    <glyph glyph-name="uni0302" unicode="&#x302;" horiz-adv-x="0" 
d="M93 1282l147 252h130l146 -252h-145l-66 126l-67 -126h-145z" />
    <glyph glyph-name="tildecomb" unicode="&#x303;" horiz-adv-x="0" 
d="M527 1456h89q-3 -96 -49.5 -140.5t-120.5 -42.5q-51 2 -84.5 22.5t-61.5 42t-63 23.5q-30 2 -52.5 -16.5t-26.5 -59.5h-88q7 106 55.5 149.5t118.5 40.5q55 -3 87.5 -24t58 -41.5t59.5 -21.5q37 -2 57.5 17t20.5 51z" />
    <glyph glyph-name="uni0304" unicode="&#x304;" horiz-adv-x="0" 
d="M127 1390h556v-110h-556v110z" />
    <glyph glyph-name="uni0306" unicode="&#x306;" horiz-adv-x="0" 
d="M349 1272q-130 0 -189.5 58.5t-66.5 194.5h132q1 -75 29.5 -107.5t94.5 -32.5q67 0 95.5 32.5t28.5 107.5h132q-7 -136 -66.5 -194.5t-189.5 -58.5z" />
    <glyph glyph-name="uni0307" unicode="&#x307;" horiz-adv-x="0" 
d="M101 1280v154h153v-154h-153z" />
    <glyph glyph-name="uni0308" unicode="&#x308;" horiz-adv-x="0" 
d="M373 1310v154h154v-154h-154zM127 1310v154h153v-154h-153z" />
    <glyph glyph-name="hookabovecomb" unicode="&#x309;" horiz-adv-x="0" 
d="M210 1289l5 43q5 49 -14.5 67.5t-70.5 18.5h-59v105h59q116 0 163 -44t37 -147l-5 -43h-115z" />
    <glyph glyph-name="uni030A" unicode="&#x30a;" horiz-adv-x="0" 
d="M255 1272q-72 0 -123 51t-51 124q0 72 51 123t123 51t123.5 -51t51.5 -123q0 -73 -51.5 -124t-123.5 -51zM255 1389q25 0 42 16.5t17 41.5q0 24 -17 41t-42 17q-24 0 -40.5 -17t-16.5 -41q0 -25 16.5 -41.5t40.5 -16.5z" />
    <glyph glyph-name="uni030B" unicode="&#x30b;" horiz-adv-x="0" 
d="M79 1282l193 252h152l-193 -252h-152zM321 1282l193 252h152l-193 -252h-152z" />
    <glyph glyph-name="uni030C" unicode="&#x30c;" horiz-adv-x="0" 
d="M240 1282l-147 252h130l75 -141l75 141h130l-147 -252h-116z" />
    <glyph glyph-name="uni030F" unicode="&#x30f;" horiz-adv-x="0" 
d="M497 1280l-163 252h146l163 -252h-146zM256 1280l-163 252h145l163 -252h-145z" />
    <glyph glyph-name="uni0311" unicode="&#x311;" horiz-adv-x="0" 
d="M349 1525q-130 0 -189.5 -58.5t-66.5 -194.5h132q1 75 29.5 107.5t94.5 32.5q67 0 95.5 -32.5t28.5 -107.5h132q-7 136 -66.5 194.5t-189.5 58.5z" />
    <glyph glyph-name="uni0312" unicode="&#x312;" horiz-adv-x="0" 
d="M283 1619l-59 -140h87v-184h-218v163l80 161h110z" />
    <glyph glyph-name="uni031B" unicode="&#x31b;" horiz-adv-x="0" 
d="M159 1044q-16 0 -34 0.5t-32 3.5v108q17 -1 33.5 -2t32.5 0q72 3 102.5 36t34.5 107q1 19 1.5 53t0 68t-1.5 53h120q1 -19 1 -53v-68t-1 -53q-8 -136 -67 -194.5t-190 -58.5z" />
    <glyph glyph-name="dotbelowcomb" unicode="&#x323;" horiz-adv-x="0" 
d="M99 -234v154h154v-154h-154z" />
    <glyph glyph-name="uni0324" unicode="&#x324;" horiz-adv-x="0" 
d="M373 -204v154h154v-154h-154zM127 -204v154h153v-154h-153z" />
    <glyph glyph-name="uni0326" unicode="&#x326;" horiz-adv-x="0" 
d="M120 -403l59 139h-86v184h218v-163l-80 -160h-111z" />
    <glyph glyph-name="uni0327" unicode="&#x327;" horiz-adv-x="0" 
d="M76 -299v107h61q54 0 76 22.5t15 74.5l-16 95h116l15 -95q16 -107 -34.5 -155.5t-171.5 -48.5h-61z" />
    <glyph glyph-name="uni0328" unicode="&#x328;" horiz-adv-x="0" 
d="M347 -299h-61q-120 0 -171 48.5t-35 155.5l16 95h116l-16 -95q-7 -52 14.5 -74.5t75.5 -22.5h61v-107z" />
    <glyph glyph-name="uni032E" unicode="&#x32e;" horiz-adv-x="0" 
d="M349 -334q-130 0 -189.5 58.5t-66.5 194.5h132q1 -75 29.5 -107.5t94.5 -32.5q67 0 95.5 32.5t28.5 107.5h132q-7 -136 -66.5 -194.5t-189.5 -58.5z" />
    <glyph glyph-name="uni0331" unicode="&#x331;" horiz-adv-x="0" 
d="M127 -87h556v-110h-556v110z" />
    <glyph glyph-name="uni0335" unicode="&#x335;" horiz-adv-x="0" 
d="M93 799h454v-119h-454v119z" />
    <glyph glyph-name="pi" unicode="&#x3c0;" horiz-adv-x="1232" 
d="M1019 -9q-184 0 -260 70t-79 230v715h-172v-1006h-216v1006h-172v191h965v-191h-189v-738q1 -63 24 -88t101 -25q25 0 45 1t46 3v-157q-37 -11 -93 -11z" />
    <glyph glyph-name="uni1E08" unicode="&#x1e08;" horiz-adv-x="839" 
d="M425 -17q-182 0 -259.5 77t-80.5 255q-3 150 -4 317.5t0 335.5t4 319q2 156 82 242.5t257 86.5q176 0 255 -77t85 -254q1 -53 0 -131.5t-2 -131.5h-216q1 66 2 150.5t-1 150.5q-3 115 -123 115t-123 -115q-7 -253 -7 -523t7 -523q3 -116 124 -116q127 0 130 116
q2 68 1.5 156t-1.5 155h216q2 -66 2 -136.5t-1 -136.5q-6 -178 -86.5 -255t-260.5 -77zM225 -285v107h61q54 0 76 22.5t15 74.5l-16 95h116l15 -95q16 -107 -34.5 -155.5t-171.5 -48.5h-61zM348 1680l167 252h158l-174 -252h-151z" />
    <glyph glyph-name="uni1E09" unicode="&#x1e09;" horiz-adv-x="799" 
d="M519 765q2 38 2 95t-1 86q-2 59 -28 82.5t-83 23.5q-58 0 -84 -23.5t-27 -82.5q-5 -179 -5 -344t5 -341q1 -63 27.5 -88t86.5 -25q56 0 81 25t27 88q1 31 1 76.5t-2 101.5h211q2 -28 2.5 -74t-0.5 -82q-7 -161 -81 -230.5t-239 -69.5q-170 0 -246.5 69.5t-84.5 230.5
q-2 57 -3 139.5t-1 173.5t1 174.5t3 143.5q10 163 86 233t242 70q167 0 241.5 -68.5t81.5 -226.5q1 -36 0.5 -82.5t-2.5 -74.5h-211zM206 -285v107h61q54 0 76 22.5t15 74.5l-16 95h116l15 -95q16 -107 -34.5 -155.5t-171.5 -48.5h-61zM339 1280l167 252h158l-174 -252h-151
z" />
    <glyph glyph-name="uni1E0C" unicode="&#x1e0c;" horiz-adv-x="855" 
d="M93 0v1600h331q181 0 262 -78.5t84 -259.5q3 -165 4 -313t0 -296.5t-4 -313.5q-3 -181 -84 -260t-263 -79h-330zM309 192h114q128 0 131 123q10 486 0 972q-3 121 -130 121h-115v-1216zM327 -234v154h154v-154h-154z" />
    <glyph glyph-name="uni1E0D" unicode="&#x1e0d;" horiz-adv-x="861" 
d="M311 -17q-110 0 -166.5 67t-63.5 221q-2 89 -3 206.5t0 237t3 214.5q7 155 65.5 221.5t167.5 66.5q82 0 124 -34.5t78 -100.5h33v518h216v-1600h-216v118h-34q-36 -65 -79 -100t-125 -35zM395 144q48 0 91.5 26.5t62.5 77.5v704q-19 51 -62.5 77.5t-91.5 26.5
q-50 0 -72.5 -26t-24.5 -83q-5 -112 -6 -235t0 -241.5t6 -217.5q2 -57 24.5 -83t72.5 -26zM371 -234v154h154v-154h-154z" />
    <glyph glyph-name="uni1E0E" unicode="&#x1e0e;" horiz-adv-x="855" 
d="M93 0v1600h331q181 0 262 -78.5t84 -259.5q3 -165 4 -313t0 -296.5t-4 -313.5q-3 -181 -84 -260t-263 -79h-330zM309 192h114q128 0 131 123q10 486 0 972q-3 121 -130 121h-115v-1216zM118 -87h556v-110h-556v110z" />
    <glyph glyph-name="uni1E0F" unicode="&#x1e0f;" horiz-adv-x="861" 
d="M311 -17q-110 0 -166.5 67t-63.5 221q-2 89 -3 206.5t0 237t3 214.5q7 155 65.5 221.5t167.5 66.5q82 0 124 -34.5t78 -100.5h33v518h216v-1600h-216v118h-34q-36 -65 -79 -100t-125 -35zM395 144q48 0 91.5 26.5t62.5 77.5v704q-19 51 -62.5 77.5t-91.5 26.5
q-50 0 -72.5 -26t-24.5 -83q-5 -112 -6 -235t0 -241.5t6 -217.5q2 -57 24.5 -83t72.5 -26zM162 -87h556v-110h-556v110z" />
    <glyph glyph-name="uni1E14" unicode="&#x1e14;" horiz-adv-x="709" 
d="M93 0v1600h572v-192h-356v-502h336v-192h-336v-522h356v-192h-572zM86 1790h556v-110h-556v110zM268 1870l-160 252h157l153 -252h-150z" />
    <glyph glyph-name="uni1E15" unicode="&#x1e15;" horiz-adv-x="801" 
d="M413 -17q-170 0 -247 69.5t-85 230.5q-2 57 -3 139.5t-1 173t1 174.5t3 144q10 163 86.5 233t243.5 70q164 0 238.5 -68.5t82.5 -225.5q1 -27 1.5 -84.5t0 -131t-3.5 -146.5h-436q0 -73 1.5 -147.5t2.5 -152.5q2 -63 28.5 -88t85.5 -25q56 0 80 25t27 88t0 178h211
q2 -28 2.5 -74t-0.5 -82q-8 -161 -81 -230.5t-238 -69.5zM294 716h227q1 74 0.5 140t-2.5 90q-3 57 -28 81.5t-80 24.5q-60 0 -85.5 -24.5t-27.5 -81.5q-1 -62 -2 -118.5t-2 -111.5zM128 1390h556v-110h-556v110zM310 1470l-160 252h157l153 -252h-150z" />
    <glyph glyph-name="uni1E16" unicode="&#x1e16;" horiz-adv-x="709" 
d="M93 0v1600h572v-192h-356v-502h336v-192h-336v-522h356v-192h-572zM86 1790h556v-110h-556v110zM295 1870l167 252h158l-174 -252h-151z" />
    <glyph glyph-name="uni1E17" unicode="&#x1e17;" horiz-adv-x="801" 
d="M413 -17q-170 0 -247 69.5t-85 230.5q-2 57 -3 139.5t-1 173t1 174.5t3 144q10 163 86.5 233t243.5 70q164 0 238.5 -68.5t82.5 -225.5q1 -27 1.5 -84.5t0 -131t-3.5 -146.5h-436q0 -73 1.5 -147.5t2.5 -152.5q2 -63 28.5 -88t85.5 -25q56 0 80 25t27 88t0 178h211
q2 -28 2.5 -74t-0.5 -82q-8 -161 -81 -230.5t-238 -69.5zM294 716h227q1 74 0.5 140t-2.5 90q-3 57 -28 81.5t-80 24.5q-60 0 -85.5 -24.5t-27.5 -81.5q-1 -62 -2 -118.5t-2 -111.5zM128 1390h556v-110h-556v110zM337 1470l167 252h158l-174 -252h-151z" />
    <glyph glyph-name="uni1E1C" unicode="&#x1e1c;" horiz-adv-x="709" 
d="M93 0v1600h572v-192h-356v-502h336v-192h-336v-522h356v-192h-572zM173 -285v107h61q54 0 76 22.5t15 74.5l-16 95h116l15 -95q16 -107 -34.5 -155.5t-171.5 -48.5h-61zM364 1672q-130 0 -189.5 58.5t-66.5 194.5h132q1 -75 29.5 -107.5t94.5 -32.5q67 0 95.5 32.5
t28.5 107.5h132q-7 -136 -66.5 -194.5t-189.5 -58.5z" />
    <glyph glyph-name="uni1E1D" unicode="&#x1e1d;" horiz-adv-x="801" 
d="M413 -17q-170 0 -247 69.5t-85 230.5q-2 57 -3 139.5t-1 173t1 174.5t3 144q10 163 86.5 233t243.5 70q164 0 238.5 -68.5t82.5 -225.5q1 -27 1.5 -84.5t0 -131t-3.5 -146.5h-436q0 -73 1.5 -147.5t2.5 -152.5q2 -63 28.5 -88t85.5 -25q56 0 80 25t27 88t0 178h211
q2 -28 2.5 -74t-0.5 -82q-8 -161 -81 -230.5t-238 -69.5zM294 716h227q1 74 0.5 140t-2.5 90q-3 57 -28 81.5t-80 24.5q-60 0 -85.5 -24.5t-27.5 -81.5q-1 -62 -2 -118.5t-2 -111.5zM214 -285v107h61q54 0 76 22.5t15 74.5l-16 95h116l15 -95q16 -107 -34.5 -155.5
t-171.5 -48.5h-61zM407 1272q-130 0 -189.5 58.5t-66.5 194.5h132q1 -75 29.5 -107.5t94.5 -32.5q67 0 95.5 32.5t28.5 107.5h132q-7 -136 -66.5 -194.5t-189.5 -58.5z" />
    <glyph glyph-name="uni1E20" unicode="&#x1e20;" horiz-adv-x="842" 
d="M428 -17q-183 0 -259.5 77.5t-82.5 255.5q-3 147 -4.5 314t0 333t4.5 311q7 186 84.5 264.5t256.5 78.5q171 0 249.5 -77t88.5 -254q6 -132 0 -263h-216q3 68 3 150.5t-3 150.5q-6 115 -122 115q-120 0 -125 -115q-9 -250 -9 -523t9 -523q4 -116 126 -116q126 0 133 116
q2 58 2 130.5t-2 130.5h-122v189h333q3 -84 2.5 -190.5t-4.5 -221.5q-8 -178 -87.5 -255.5t-254.5 -77.5zM141 1790h556v-110h-556v110z" />
    <glyph glyph-name="uni1E21" unicode="&#x1e21;" horiz-adv-x="865" 
d="M392 -364q-290 0 -319 176q-2 11 -3.5 28t-0.5 31q7 55 41 88t87 40v34q-102 22 -112 110q-1 16 -0.5 26.5t0.5 22.5q5 42 40 69.5t86 35.5v34q-133 60 -144 267q-2 65 -3 112.5t0 94.5t3 109q11 163 85 233t248 70q118 0 185 -30.5t103 -96.5h34q13 110 141 110v-166
h-32q-45 0 -70 -27.5t-26 -91.5l-1 -84q1 -62 1 -111t-3 -122q-9 -162 -82.5 -232t-249.5 -70q-85 0 -118.5 -16t-33.5 -51v-9q0 -34 26.5 -47.5t126.5 -16.5q176 -4 260.5 -56t100.5 -166q5 -37 0 -75q-16 -124 -107.5 -173.5t-262.5 -49.5zM400 460q63 0 90 26.5t30 83.5
q9 172 0 371q-3 58 -29.5 84.5t-90.5 26.5q-65 0 -92 -26.5t-29 -86.5q-4 -99 -4.5 -188.5t4.5 -176.5q3 -60 30 -87t91 -27zM406 -211q78 0 123 19t54 66q6 25 -1 52q-9 47 -52.5 63t-123.5 18q-74 2 -113.5 -16.5t-48.5 -65.5q-5 -27 0 -51q9 -49 48.5 -67t113.5 -18z
M124 1390h556v-110h-556v110z" />
    <glyph glyph-name="uni1E24" unicode="&#x1e24;" horiz-adv-x="851" 
d="M93 0v1600h216v-694h233v694h216v-1600h-216v714h-233v-714h-216zM348 -234v154h154v-154h-154z" />
    <glyph glyph-name="uni1E25" unicode="&#x1e25;" horiz-adv-x="873" 
d="M96 0v1600h216v-518h40q36 66 78 100.5t124 34.5q109 0 168.5 -66.5t59.5 -221.5v-929h-216v947q0 109 -100 109q-49 0 -92 -26.5t-62 -77.5v-952h-216zM356 -234v154h154v-154h-154z" />
    <glyph glyph-name="uni1E2A" unicode="&#x1e2a;" horiz-adv-x="851" 
d="M93 0v1600h216v-694h233v694h216v-1600h-216v714h-233v-714h-216zM426 -334q-130 0 -189.5 58.5t-66.5 194.5h132q1 -75 29.5 -107.5t94.5 -32.5q67 0 95.5 32.5t28.5 107.5h132q-7 -136 -66.5 -194.5t-189.5 -58.5z" />
    <glyph glyph-name="uni1E2B" unicode="&#x1e2b;" horiz-adv-x="873" 
d="M96 0v1600h216v-518h40q36 66 78 100.5t124 34.5q109 0 168.5 -66.5t59.5 -221.5v-929h-216v947q0 109 -100 109q-49 0 -92 -26.5t-62 -77.5v-952h-216zM433 -334q-130 0 -189.5 58.5t-66.5 194.5h132q1 -75 29.5 -107.5t94.5 -32.5q67 0 95.5 32.5t28.5 107.5h132
q-7 -136 -66.5 -194.5t-189.5 -58.5z" />
    <glyph glyph-name="uni1E2E" unicode="&#x1e2e;" horiz-adv-x="402" 
d="M93 0v1600h216v-1600h-216zM247 1710v154h154v-154h-154zM1 1710v154h153v-154h-153zM131 1915l167 252h158l-174 -252h-151z" />
    <glyph glyph-name="uni1E2F" unicode="&#x1e2f;" horiz-adv-x="408" 
d="M96 0v1200h216v-1200h-216zM250 1310v154h154v-154h-154zM4 1310v154h153v-154h-153zM134 1515l167 252h158l-174 -252h-151z" />
    <glyph glyph-name="uni1E36" unicode="&#x1e36;" horiz-adv-x="691" 
d="M93 0v1600h216v-1408h357v-192h-573zM303 -234v154h154v-154h-154z" />
    <glyph glyph-name="uni1E37" unicode="&#x1e37;" horiz-adv-x="408" 
d="M96 0v1600h216v-1600h-216zM126 -234v154h154v-154h-154z" />
    <glyph glyph-name="uni1E3A" unicode="&#x1e3a;" horiz-adv-x="691" 
d="M93 0v1600h216v-1408h357v-192h-573zM94 -87h556v-110h-556v110z" />
    <glyph glyph-name="uni1E3B" unicode="&#x1e3b;" horiz-adv-x="408" 
d="M96 0v1600h216v-1600h-216zM-83 -87h556v-110h-556v110z" />
    <glyph glyph-name="uni1E42" unicode="&#x1e42;" horiz-adv-x="1272" 
d="M93 0v1600h362l114 -630l45 -775h45l43 775l116 630h362v-1600h-217v479l41 929h-50l-95 -942l-98 -463h-250l-96 463l-97 942h-47l38 -929v-479h-216zM559 -234v154h154v-154h-154z" />
    <glyph glyph-name="uni1E43" unicode="&#x1e43;" horiz-adv-x="1333" 
d="M96 0v1200h216v-118h39q36 66 78.5 100.5t124.5 34.5q80 0 132 -35t76 -114h37q36 67 85 108t132 41q109 0 167.5 -66.5t58.5 -221.5v-929h-216v947q-1 109 -98 109q-47 0 -87.5 -29.5t-59.5 -78.5v-948h-216v947q-2 109 -99 109q-49 0 -92 -26.5t-62 -77.5v-952h-216z
M594 -234v154h154v-154h-154z" />
    <glyph glyph-name="uni1E44" unicode="&#x1e44;" horiz-adv-x="946" 
d="M93 0v1600h330l104 -508l123 -900h49l-40 782l-16 626h210v-1600h-345l-110 549l-98 860h-52l37 -803l17 -606h-209zM400 1680v154h153v-154h-153z" />
    <glyph glyph-name="uni1E45" unicode="&#x1e45;" horiz-adv-x="873" 
d="M96 0v1200h216v-118h40q35 65 78 100t124 35q109 0 168 -66.5t60 -221.5v-929h-216v947q-1 109 -100 109q-47 0 -91 -27.5t-63 -76.5v-952h-216zM364 1280v154h153v-154h-153z" />
    <glyph glyph-name="uni1E46" unicode="&#x1e46;" horiz-adv-x="946" 
d="M93 0v1600h330l104 -508l123 -900h49l-40 782l-16 626h210v-1600h-345l-110 549l-98 860h-52l37 -803l17 -606h-209zM395 -234v154h154v-154h-154z" />
    <glyph glyph-name="uni1E47" unicode="&#x1e47;" horiz-adv-x="873" 
d="M96 0v1200h216v-118h40q35 65 78 100t124 35q109 0 168 -66.5t60 -221.5v-929h-216v947q-1 109 -100 109q-47 0 -91 -27.5t-63 -76.5v-952h-216zM363 -234v154h154v-154h-154z" />
    <glyph glyph-name="uni1E48" unicode="&#x1e48;" horiz-adv-x="946" 
d="M93 0v1600h330l104 -508l123 -900h49l-40 782l-16 626h210v-1600h-345l-110 549l-98 860h-52l37 -803l17 -606h-209zM185 -87h556v-110h-556v110z" />
    <glyph glyph-name="uni1E49" unicode="&#x1e49;" horiz-adv-x="873" 
d="M96 0v1200h216v-118h40q35 65 78 100t124 35q109 0 168 -66.5t60 -221.5v-929h-216v947q-1 109 -100 109q-47 0 -91 -27.5t-63 -76.5v-952h-216zM153 -87h556v-110h-556v110z" />
    <glyph glyph-name="uni1E4C" unicode="&#x1e4c;" horiz-adv-x="856" 
d="M428 -17q-180 0 -259.5 76.5t-82.5 254.5q-11 486 0 973q3 177 82.5 253.5t259.5 76.5t258 -76.5t83 -253.5q13 -489 0 -973q-5 -178 -83 -254.5t-258 -76.5zM428 162q122 0 125 114q6 166 7.5 346.5t-0.5 360t-7 342.5q-3 114 -125 114q-123 0 -126 -114
q-6 -163 -8 -342.5t0 -360t8 -346.5q3 -114 126 -114zM618 1856h89q-3 -96 -49.5 -140.5t-120.5 -42.5q-51 2 -84.5 22.5t-61.5 42t-63 23.5q-30 2 -52.5 -16.5t-26.5 -59.5h-88q7 106 55.5 149.5t118.5 40.5q55 -3 87.5 -24t58 -41.5t59.5 -21.5q37 -2 57.5 17t20.5 51z
M357 1941l167 252h158l-174 -252h-151z" />
    <glyph glyph-name="uni1E4D" unicode="&#x1e4d;" horiz-adv-x="835" 
d="M418 -17q-180 0 -253.5 76t-82.5 255q-2 76 -3.5 180t-0.5 208.5t4 184.5q9 177 82 253.5t254 76.5q182 0 253.5 -77t81.5 -253q2 -77 3.5 -180.5t0.5 -208t-4 -184.5q-10 -176 -81.5 -253.5t-253.5 -77.5zM418 148q63 0 90 27t28 87q6 176 6 338.5t-6 338.5
q-1 59 -27.5 86t-90.5 27q-62 0 -90 -27t-30 -86q-5 -176 -5 -339.5t5 -337.5q2 -60 30 -87t90 -27zM607 1456h89q-3 -96 -49.5 -140.5t-120.5 -42.5q-51 2 -84.5 22.5t-61.5 42t-63 23.5q-30 2 -52.5 -16.5t-26.5 -59.5h-88q7 106 55.5 149.5t118.5 40.5q55 -3 87.5 -24
t58 -41.5t59.5 -21.5q37 -2 57.5 17t20.5 51zM346 1541l167 252h158l-174 -252h-151z" />
    <glyph glyph-name="uni1E4E" unicode="&#x1e4e;" horiz-adv-x="856" 
d="M428 -17q-180 0 -259.5 76.5t-82.5 254.5q-11 486 0 973q3 177 82.5 253.5t259.5 76.5t258 -76.5t83 -253.5q13 -489 0 -973q-5 -178 -83 -254.5t-258 -76.5zM428 162q122 0 125 114q6 166 7.5 346.5t-0.5 360t-7 342.5q-3 114 -125 114q-123 0 -126 -114
q-6 -163 -8 -342.5t0 -360t8 -346.5q3 -114 126 -114zM618 1856h89q-3 -96 -49.5 -140.5t-120.5 -42.5q-51 2 -84.5 22.5t-61.5 42t-63 23.5q-30 2 -52.5 -16.5t-26.5 -59.5h-88q7 106 55.5 149.5t118.5 40.5q55 -3 87.5 -24t58 -41.5t59.5 -21.5q37 -2 57.5 17t20.5 51z
M473 1971v154h154v-154h-154zM227 1971v154h153v-154h-153z" />
    <glyph glyph-name="uni1E4F" unicode="&#x1e4f;" horiz-adv-x="835" 
d="M418 -17q-180 0 -253.5 76t-82.5 255q-2 76 -3.5 180t-0.5 208.5t4 184.5q9 177 82 253.5t254 76.5q182 0 253.5 -77t81.5 -253q2 -77 3.5 -180.5t0.5 -208t-4 -184.5q-10 -176 -81.5 -253.5t-253.5 -77.5zM418 148q63 0 90 27t28 87q6 176 6 338.5t-6 338.5
q-1 59 -27.5 86t-90.5 27q-62 0 -90 -27t-30 -86q-5 -176 -5 -339.5t5 -337.5q2 -60 30 -87t90 -27zM607 1456h89q-3 -96 -49.5 -140.5t-120.5 -42.5q-51 2 -84.5 22.5t-61.5 42t-63 23.5q-30 2 -52.5 -16.5t-26.5 -59.5h-88q7 106 55.5 149.5t118.5 40.5q55 -3 87.5 -24
t58 -41.5t59.5 -21.5q37 -2 57.5 17t20.5 51zM462 1571v154h154v-154h-154zM216 1571v154h153v-154h-153z" />
    <glyph glyph-name="uni1E50" unicode="&#x1e50;" horiz-adv-x="856" 
d="M428 -17q-180 0 -259.5 76.5t-82.5 254.5q-11 486 0 973q3 177 82.5 253.5t259.5 76.5t258 -76.5t83 -253.5q13 -489 0 -973q-5 -178 -83 -254.5t-258 -76.5zM428 162q122 0 125 114q6 166 7.5 346.5t-0.5 360t-7 342.5q-3 114 -125 114q-123 0 -126 -114
q-6 -163 -8 -342.5t0 -360t8 -346.5q3 -114 126 -114zM151 1790h556v-110h-556v110zM333 1870l-160 252h157l153 -252h-150z" />
    <glyph glyph-name="uni1E51" unicode="&#x1e51;" horiz-adv-x="835" 
d="M418 -17q-180 0 -253.5 76t-82.5 255q-2 76 -3.5 180t-0.5 208.5t4 184.5q9 177 82 253.5t254 76.5q182 0 253.5 -77t81.5 -253q2 -77 3.5 -180.5t0.5 -208t-4 -184.5q-10 -176 -81.5 -253.5t-253.5 -77.5zM418 148q63 0 90 27t28 87q6 176 6 338.5t-6 338.5
q-1 59 -27.5 86t-90.5 27q-62 0 -90 -27t-30 -86q-5 -176 -5 -339.5t5 -337.5q2 -60 30 -87t90 -27zM139 1390h556v-110h-556v110zM322 1470l-160 252h157l153 -252h-150z" />
    <glyph glyph-name="uni1E52" unicode="&#x1e52;" horiz-adv-x="856" 
d="M428 -17q-180 0 -259.5 76.5t-82.5 254.5q-11 486 0 973q3 177 82.5 253.5t259.5 76.5t258 -76.5t83 -253.5q13 -489 0 -973q-5 -178 -83 -254.5t-258 -76.5zM428 162q122 0 125 114q6 166 7.5 346.5t-0.5 360t-7 342.5q-3 114 -125 114q-123 0 -126 -114
q-6 -163 -8 -342.5t0 -360t8 -346.5q3 -114 126 -114zM151 1790h556v-110h-556v110zM360 1870l167 252h158l-174 -252h-151z" />
    <glyph glyph-name="uni1E53" unicode="&#x1e53;" horiz-adv-x="835" 
d="M418 -17q-180 0 -253.5 76t-82.5 255q-2 76 -3.5 180t-0.5 208.5t4 184.5q9 177 82 253.5t254 76.5q182 0 253.5 -77t81.5 -253q2 -77 3.5 -180.5t0.5 -208t-4 -184.5q-10 -176 -81.5 -253.5t-253.5 -77.5zM418 148q63 0 90 27t28 87q6 176 6 338.5t-6 338.5
q-1 59 -27.5 86t-90.5 27q-62 0 -90 -27t-30 -86q-5 -176 -5 -339.5t5 -337.5q2 -60 30 -87t90 -27zM139 1390h556v-110h-556v110zM348 1470l167 252h158l-174 -252h-151z" />
    <glyph glyph-name="uni1E5A" unicode="&#x1e5a;" horiz-adv-x="825" 
d="M93 0v1600h315q179 0 259.5 -75.5t86.5 -248.5q4 -109 4 -194t-4 -182q-7 -223 -148 -288l175 -612h-230l-149 576h-93v-576h-216zM309 767h98q125 0 131 122q9 199 0 398q-6 121 -130 121h-99v-641zM356 -234v154h154v-154h-154z" />
    <glyph glyph-name="uni1E5B" unicode="&#x1e5b;" horiz-adv-x="598" 
d="M96 0v1200h216v-132h40q13 77 52.5 107t104.5 30q21 0 41.5 -1.5t32.5 -1.5v-168h-72q-100 0 -143 -33t-56 -98v-903h-216zM126 -234v154h154v-154h-154z" />
    <glyph glyph-name="uni1E5E" unicode="&#x1e5e;" horiz-adv-x="825" 
d="M93 0v1600h315q179 0 259.5 -75.5t86.5 -248.5q4 -109 4 -194t-4 -182q-7 -223 -148 -288l175 -612h-230l-149 576h-93v-576h-216zM309 767h98q125 0 131 122q9 199 0 398q-6 121 -130 121h-99v-641zM146 -87h556v-110h-556v110z" />
    <glyph glyph-name="uni1E5F" unicode="&#x1e5f;" horiz-adv-x="598" 
d="M96 0v1200h216v-132h40q13 77 52.5 107t104.5 30q21 0 41.5 -1.5t32.5 -1.5v-168h-72q-100 0 -143 -33t-56 -98v-903h-216zM-83 -87h556v-110h-556v110z" />
    <glyph glyph-name="uni1E60" unicode="&#x1e60;" horiz-adv-x="815" 
d="M410 -17q-180 0 -256.5 77.5t-83.5 255.5q-2 70 -1.5 136t6.5 137h204q-4 -81 -4.5 -160.5t4.5 -150.5q4 -59 35 -87.5t95 -28.5q63 0 91 28.5t34 87.5q5 68 4.5 123.5t-4.5 127.5q-4 59 -24 101t-73 56l-134 34q-136 35 -185 118.5t-54 227.5q-1 54 -0.5 110t1.5 111
q6 177 83 253.5t261 76.5q173 0 250.5 -77t84.5 -254q1 -50 0.5 -121t-3.5 -142h-208q3 75 4 150.5t-2 150.5q-5 115 -127 115q-64 0 -93 -29t-34 -86q-5 -64 -4.5 -129t4.5 -129q4 -65 25 -103.5t76 -52.5l121 -29q142 -34 192.5 -121t55.5 -231q2 -63 1.5 -109t-2.5 -104
q-7 -178 -84.5 -255.5t-255.5 -77.5zM330 1680v154h153v-154h-153z" />
    <glyph glyph-name="uni1E61" unicode="&#x1e61;" horiz-adv-x="759" 
d="M373 -17q-161 0 -229.5 69.5t-74.5 230.5q-1 36 -0.5 82t2.5 74h190q-2 -56 -1.5 -101.5t1.5 -76.5q2 -63 29.5 -88t82.5 -25q65 0 93.5 25t29.5 88q0 41 0.5 53.5t-0.5 50.5q-1 52 -16.5 82.5t-58.5 43.5l-118 36q-119 37 -178 103.5t-61 198.5v42t1 42
q1 163 71.5 233.5t247.5 70.5q163 0 229.5 -68.5t73.5 -226.5q1 -36 0.5 -82.5t-2.5 -74.5h-197q2 38 1.5 95t-1.5 86q-2 59 -24.5 82.5t-79.5 23.5q-60 0 -83.5 -23.5t-24.5 -82.5q-2 -29 -2.5 -46.5t0.5 -53.5q1 -56 14 -92t66 -52l106 -29q118 -31 177.5 -98t59.5 -199
q0 -23 -0.5 -49.5t-1.5 -49.5q-2 -157 -75 -225.5t-247 -68.5zM300 1280v154h153v-154h-153z" />
    <glyph glyph-name="uni1E62" unicode="&#x1e62;" horiz-adv-x="815" 
d="M410 -17q-180 0 -256.5 77.5t-83.5 255.5q-2 70 -1.5 136t6.5 137h204q-4 -81 -4.5 -160.5t4.5 -150.5q4 -59 35 -87.5t95 -28.5q63 0 91 28.5t34 87.5q5 68 4.5 123.5t-4.5 127.5q-4 59 -24 101t-73 56l-134 34q-136 35 -185 118.5t-54 227.5q-1 54 -0.5 110t1.5 111
q6 177 83 253.5t261 76.5q173 0 250.5 -77t84.5 -254q1 -50 0.5 -121t-3.5 -142h-208q3 75 4 150.5t-2 150.5q-5 115 -127 115q-64 0 -93 -29t-34 -86q-5 -64 -4.5 -129t4.5 -129q4 -65 25 -103.5t76 -52.5l121 -29q142 -34 192.5 -121t55.5 -231q2 -63 1.5 -109t-2.5 -104
q-7 -178 -84.5 -255.5t-255.5 -77.5zM329 -234v154h154v-154h-154z" />
    <glyph glyph-name="uni1E63" unicode="&#x1e63;" horiz-adv-x="759" 
d="M373 -17q-161 0 -229.5 69.5t-74.5 230.5q-1 36 -0.5 82t2.5 74h190q-2 -56 -1.5 -101.5t1.5 -76.5q2 -63 29.5 -88t82.5 -25q65 0 93.5 25t29.5 88q0 41 0.5 53.5t-0.5 50.5q-1 52 -16.5 82.5t-58.5 43.5l-118 36q-119 37 -178 103.5t-61 198.5v42t1 42
q1 163 71.5 233.5t247.5 70.5q163 0 229.5 -68.5t73.5 -226.5q1 -36 0.5 -82.5t-2.5 -74.5h-197q2 38 1.5 95t-1.5 86q-2 59 -24.5 82.5t-79.5 23.5q-60 0 -83.5 -23.5t-24.5 -82.5q-2 -29 -2.5 -46.5t0.5 -53.5q1 -56 14 -92t66 -52l106 -29q118 -31 177.5 -98t59.5 -199
q0 -23 -0.5 -49.5t-1.5 -49.5q-2 -157 -75 -225.5t-247 -68.5zM299 -234v154h154v-154h-154z" />
    <glyph glyph-name="uni1E64" unicode="&#x1e64;" horiz-adv-x="815" 
d="M410 -17q-180 0 -256.5 77.5t-83.5 255.5q-2 70 -1.5 136t6.5 137h204q-4 -81 -4.5 -160.5t4.5 -150.5q4 -59 35 -87.5t95 -28.5q63 0 91 28.5t34 87.5q5 68 4.5 123.5t-4.5 127.5q-4 59 -24 101t-73 56l-134 34q-136 35 -185 118.5t-54 227.5q-1 54 -0.5 110t1.5 111
q6 177 83 253.5t261 76.5q173 0 250.5 -77t84.5 -254q1 -50 0.5 -121t-3.5 -142h-208q3 75 4 150.5t-2 150.5q-5 115 -127 115q-64 0 -93 -29t-34 -86q-5 -64 -4.5 -129t4.5 -129q4 -65 25 -103.5t76 -52.5l121 -29q142 -34 192.5 -121t55.5 -231q2 -63 1.5 -109t-2.5 -104
q-7 -178 -84.5 -255.5t-255.5 -77.5zM337 1680l167 252h158l-174 -252h-151zM330 2014v154h153v-154h-153z" />
    <glyph glyph-name="uni1E65" unicode="&#x1e65;" horiz-adv-x="759" 
d="M373 -17q-161 0 -229.5 69.5t-74.5 230.5q-1 36 -0.5 82t2.5 74h190q-2 -56 -1.5 -101.5t1.5 -76.5q2 -63 29.5 -88t82.5 -25q65 0 93.5 25t29.5 88q0 41 0.5 53.5t-0.5 50.5q-1 52 -16.5 82.5t-58.5 43.5l-118 36q-119 37 -178 103.5t-61 198.5v42t1 42
q1 163 71.5 233.5t247.5 70.5q163 0 229.5 -68.5t73.5 -226.5q1 -36 0.5 -82.5t-2.5 -74.5h-197q2 38 1.5 95t-1.5 86q-2 59 -24.5 82.5t-79.5 23.5q-60 0 -83.5 -23.5t-24.5 -82.5q-2 -29 -2.5 -46.5t0.5 -53.5q1 -56 14 -92t66 -52l106 -29q118 -31 177.5 -98t59.5 -199
q0 -23 -0.5 -49.5t-1.5 -49.5q-2 -157 -75 -225.5t-247 -68.5zM307 1280l167 252h158l-174 -252h-151zM300 1614v154h153v-154h-153z" />
    <glyph glyph-name="uni1E66" unicode="&#x1e66;" horiz-adv-x="815" 
d="M410 -17q-180 0 -256.5 77.5t-83.5 255.5q-2 70 -1.5 136t6.5 137h204q-4 -81 -4.5 -160.5t4.5 -150.5q4 -59 35 -87.5t95 -28.5q63 0 91 28.5t34 87.5q5 68 4.5 123.5t-4.5 127.5q-4 59 -24 101t-73 56l-134 34q-136 35 -185 118.5t-54 227.5q-1 54 -0.5 110t1.5 111
q6 177 83 253.5t261 76.5q173 0 250.5 -77t84.5 -254q1 -50 0.5 -121t-3.5 -142h-208q3 75 4 150.5t-2 150.5q-5 115 -127 115q-64 0 -93 -29t-34 -86q-5 -64 -4.5 -129t4.5 -129q4 -65 25 -103.5t76 -52.5l121 -29q142 -34 192.5 -121t55.5 -231q2 -63 1.5 -109t-2.5 -104
q-7 -178 -84.5 -255.5t-255.5 -77.5zM348 1682l-147 252h130l75 -141l75 141h130l-147 -252h-116zM330 2014v154h153v-154h-153z" />
    <glyph glyph-name="uni1E67" unicode="&#x1e67;" horiz-adv-x="759" 
d="M373 -17q-161 0 -229.5 69.5t-74.5 230.5q-1 36 -0.5 82t2.5 74h190q-2 -56 -1.5 -101.5t1.5 -76.5q2 -63 29.5 -88t82.5 -25q65 0 93.5 25t29.5 88q0 41 0.5 53.5t-0.5 50.5q-1 52 -16.5 82.5t-58.5 43.5l-118 36q-119 37 -178 103.5t-61 198.5v42t1 42
q1 163 71.5 233.5t247.5 70.5q163 0 229.5 -68.5t73.5 -226.5q1 -36 0.5 -82.5t-2.5 -74.5h-197q2 38 1.5 95t-1.5 86q-2 59 -24.5 82.5t-79.5 23.5q-60 0 -83.5 -23.5t-24.5 -82.5q-2 -29 -2.5 -46.5t0.5 -53.5q1 -56 14 -92t66 -52l106 -29q118 -31 177.5 -98t59.5 -199
q0 -23 -0.5 -49.5t-1.5 -49.5q-2 -157 -75 -225.5t-247 -68.5zM318 1282l-147 252h130l75 -141l75 141h130l-147 -252h-116zM300 1614v154h153v-154h-153z" />
    <glyph glyph-name="uni1E68" unicode="&#x1e68;" horiz-adv-x="815" 
d="M410 -17q-180 0 -256.5 77.5t-83.5 255.5q-2 70 -1.5 136t6.5 137h204q-4 -81 -4.5 -160.5t4.5 -150.5q4 -59 35 -87.5t95 -28.5q63 0 91 28.5t34 87.5q5 68 4.5 123.5t-4.5 127.5q-4 59 -24 101t-73 56l-134 34q-136 35 -185 118.5t-54 227.5q-1 54 -0.5 110t1.5 111
q6 177 83 253.5t261 76.5q173 0 250.5 -77t84.5 -254q1 -50 0.5 -121t-3.5 -142h-208q3 75 4 150.5t-2 150.5q-5 115 -127 115q-64 0 -93 -29t-34 -86q-5 -64 -4.5 -129t4.5 -129q4 -65 25 -103.5t76 -52.5l121 -29q142 -34 192.5 -121t55.5 -231q2 -63 1.5 -109t-2.5 -104
q-7 -178 -84.5 -255.5t-255.5 -77.5zM329 -234v154h154v-154h-154zM330 1680v154h153v-154h-153z" />
    <glyph glyph-name="uni1E69" unicode="&#x1e69;" horiz-adv-x="759" 
d="M373 -17q-161 0 -229.5 69.5t-74.5 230.5q-1 36 -0.5 82t2.5 74h190q-2 -56 -1.5 -101.5t1.5 -76.5q2 -63 29.5 -88t82.5 -25q65 0 93.5 25t29.5 88q0 41 0.5 53.5t-0.5 50.5q-1 52 -16.5 82.5t-58.5 43.5l-118 36q-119 37 -178 103.5t-61 198.5v42t1 42
q1 163 71.5 233.5t247.5 70.5q163 0 229.5 -68.5t73.5 -226.5q1 -36 0.5 -82.5t-2.5 -74.5h-197q2 38 1.5 95t-1.5 86q-2 59 -24.5 82.5t-79.5 23.5q-60 0 -83.5 -23.5t-24.5 -82.5q-2 -29 -2.5 -46.5t0.5 -53.5q1 -56 14 -92t66 -52l106 -29q118 -31 177.5 -98t59.5 -199
q0 -23 -0.5 -49.5t-1.5 -49.5q-2 -157 -75 -225.5t-247 -68.5zM299 -234v154h154v-154h-154zM300 1280v154h153v-154h-153z" />
    <glyph glyph-name="uni1E6C" unicode="&#x1e6c;" horiz-adv-x="699" 
d="M241 0v1408h-230v192h677v-192h-230v-1408h-217zM271 -234v154h154v-154h-154z" />
    <glyph glyph-name="uni1E6D" unicode="&#x1e6d;" horiz-adv-x="588" 
d="M473 -17q-185 0 -261 69.5t-76 230.5v751h-98v166h100v340h217v-340h191v-166h-194v-775q0 -63 22.5 -87.5t99.5 -24.5q26 0 46 1t46 3v-158q-39 -10 -93 -10zM287 -234v154h154v-154h-154z" />
    <glyph glyph-name="uni1E6E" unicode="&#x1e6e;" horiz-adv-x="699" 
d="M241 0v1408h-230v192h677v-192h-230v-1408h-217zM62 -87h556v-110h-556v110z" />
    <glyph glyph-name="uni1E6F" unicode="&#x1e6f;" horiz-adv-x="588" 
d="M473 -17q-185 0 -261 69.5t-76 230.5v751h-98v166h100v340h217v-340h191v-166h-194v-775q0 -63 22.5 -87.5t99.5 -24.5q26 0 46 1t46 3v-158q-39 -10 -93 -10zM78 -87h556v-110h-556v110z" />
    <glyph glyph-name="uni1E78" unicode="&#x1e78;" horiz-adv-x="839" 
d="M420 -17q-181 0 -260 76.5t-81 254.5q-8 643 0 1286h216q-5 -320 -4.5 -662t3.5 -662q0 -114 126 -114q124 0 124 114q3 320 4 662t-4 662h216q8 -643 0 -1286q-2 -178 -80.5 -254.5t-259.5 -76.5zM608 1856h89q-3 -96 -49.5 -140.5t-120.5 -42.5q-51 2 -84.5 22.5
t-61.5 42t-63 23.5q-30 2 -52.5 -16.5t-26.5 -59.5h-88q7 106 55.5 149.5t118.5 40.5q55 -3 87.5 -24t58 -41.5t59.5 -21.5q37 -2 57.5 17t20.5 51zM347 1941l167 252h158l-174 -252h-151z" />
    <glyph glyph-name="uni1E79" unicode="&#x1e79;" horiz-adv-x="867" 
d="M321 -17q-109 0 -171 67t-62 221v929h216v-947q0 -109 97 -109q46 0 90.5 27.5t63.5 76.5v952h216v-1200h-216v118h-32q-73 -135 -202 -135zM615 1456h89q-3 -96 -49.5 -140.5t-120.5 -42.5q-51 2 -84.5 22.5t-61.5 42t-63 23.5q-30 2 -52.5 -16.5t-26.5 -59.5h-88
q7 106 55.5 149.5t118.5 40.5q55 -3 87.5 -24t58 -41.5t59.5 -21.5q37 -2 57.5 17t20.5 51zM355 1541l167 252h158l-174 -252h-151z" />
    <glyph glyph-name="uni1E7A" unicode="&#x1e7a;" horiz-adv-x="839" 
d="M420 -17q-181 0 -260 76.5t-81 254.5q-8 643 0 1286h216q-5 -320 -4.5 -662t3.5 -662q0 -114 126 -114q124 0 124 114q3 320 4 662t-4 662h216q8 -643 0 -1286q-2 -178 -80.5 -254.5t-259.5 -76.5zM141 1790h556v-110h-556v110zM466 1900v154h154v-154h-154zM220 1900
v154h153v-154h-153z" />
    <glyph glyph-name="uni1E7B" unicode="&#x1e7b;" horiz-adv-x="867" 
d="M321 -17q-109 0 -171 67t-62 221v929h216v-947q0 -109 97 -109q46 0 90.5 27.5t63.5 76.5v952h216v-1200h-216v118h-32q-73 -135 -202 -135zM148 1390h556v-110h-556v110zM473 1500v154h154v-154h-154zM227 1500v154h153v-154h-153z" />
    <glyph glyph-name="Wgrave" unicode="&#x1e80;" horiz-adv-x="1331" 
d="M180 0l-131 1600h218l44 -667l36 -741h45l21 741l106 657h292l106 -657l21 -741h44l38 741l44 667h217l-131 -1600h-361l-64 486l-38 919h-43l-39 -919l-64 -486h-361zM569 1680l-160 252h157l153 -252h-150z" />
    <glyph glyph-name="wgrave" unicode="&#x1e81;" horiz-adv-x="1278" 
d="M187 0l-150 1200h219l58 -604l24 -434h46l25 434l59 601h342l57 -601l25 -434h46l25 434l59 604h219l-151 -1200h-357l-42 464l-30 571h-46l-30 -571l-42 -464h-356zM543 1280l-160 252h157l153 -252h-150z" />
    <glyph glyph-name="Wacute" unicode="&#x1e82;" horiz-adv-x="1331" 
d="M180 0l-131 1600h218l44 -667l36 -741h45l21 741l106 657h292l106 -657l21 -741h44l38 741l44 667h217l-131 -1600h-361l-64 486l-38 919h-43l-39 -919l-64 -486h-361zM596 1680l167 252h158l-174 -252h-151z" />
    <glyph glyph-name="wacute" unicode="&#x1e83;" horiz-adv-x="1278" 
d="M187 0l-150 1200h219l58 -604l24 -434h46l25 434l59 601h342l57 -601l25 -434h46l25 434l59 604h219l-151 -1200h-357l-42 464l-30 571h-46l-30 -571l-42 -464h-356zM570 1280l167 252h158l-174 -252h-151z" />
    <glyph glyph-name="Wdieresis" unicode="&#x1e84;" horiz-adv-x="1331" 
d="M180 0l-131 1600h218l44 -667l36 -741h45l21 741l106 657h292l106 -657l21 -741h44l38 741l44 667h217l-131 -1600h-361l-64 486l-38 919h-43l-39 -919l-64 -486h-361zM712 1710v154h154v-154h-154zM466 1710v154h153v-154h-153z" />
    <glyph glyph-name="wdieresis" unicode="&#x1e85;" horiz-adv-x="1278" 
d="M187 0l-150 1200h219l58 -604l24 -434h46l25 434l59 601h342l57 -601l25 -434h46l25 434l59 604h219l-151 -1200h-357l-42 464l-30 571h-46l-30 -571l-42 -464h-356zM686 1310v154h154v-154h-154zM440 1310v154h153v-154h-153z" />
    <glyph glyph-name="uni1E8E" unicode="&#x1e8e;" horiz-adv-x="791" 
d="M287 0v402l-259 1198h221l81 -420l43 -464h45l41 464l82 420h222l-260 -1199v-401h-216zM311 1680v154h153v-154h-153z" />
    <glyph glyph-name="uni1E8F" unicode="&#x1e8f;" horiz-adv-x="769" 
d="M191 -414q-30 0 -66 3.5t-67 8.5v163q25 -2 64 -4t68 -2q77 0 105.5 25.5t37.5 88.5l17 131h-114l-200 1200h220l71 -563l46 -475h45l43 475l59 563h219l-191 -1315q-16 -106 -53.5 -172t-109.5 -96.5t-194 -30.5zM316 1280v154h153v-154h-153z" />
    <glyph glyph-name="uni1E92" unicode="&#x1e92;" horiz-adv-x="716" 
d="M34 0v179l416 1229h-393v192h624v-183l-430 -1225h397v-192h-614zM277 -234v154h154v-154h-154z" />
    <glyph glyph-name="uni1E93" unicode="&#x1e93;" horiz-adv-x="681" 
d="M38 0v138l375 900l-367 -1v162l598 1v-142l-380 -896h373v-162h-599zM263 -234v154h154v-154h-154z" />
    <glyph glyph-name="uni1E97" unicode="&#x1e97;" horiz-adv-x="588" 
d="M473 -17q-185 0 -261 69.5t-76 230.5v751h-98v166h100v340h217v-340h191v-166h-194v-775q0 -63 22.5 -87.5t99.5 -24.5q26 0 46 1t46 3v-158q-39 -10 -93 -10zM320 1667v154h154v-154h-154zM74 1667v154h153v-154h-153z" />
    <glyph glyph-name="uni1E9E" unicode="&#x1e9e;" horiz-adv-x="923" 
d="M93 0v1271q0 176 81.5 252.5t261.5 76.5l369 1v-163l-197 -550q119 -32 166.5 -112.5t52.5 -216.5q2 -57 1 -108t-2 -112q-7 -182 -86 -260.5t-261 -78.5h-102v178h102q65 0 95 30.5t35 92.5q10 129 0 258q-4 63 -28 105t-80 42h-102l-3 170l182 547l-142 -1
q-127 -1 -127 -114v-1308h-216z" />
    <glyph glyph-name="uni1EA0" unicode="&#x1ea0;" horiz-adv-x="816" 
d="M32 0l196 1600h360l196 -1600h-221l-38 399h-234l-37 -399h-222zM312 591h193l-34 352l-35 465h-56l-34 -465zM331 -234v154h154v-154h-154z" />
    <glyph glyph-name="uni1EA1" unicode="&#x1ea1;" horiz-adv-x="823" 
d="M302 -14q-115 0 -169.5 60.5t-65.5 196.5q-1 22 -1.5 47.5t0.5 47.5q9 114 64 187t192 134q48 22 96 40.5t99 34.5v205q0 57 -22 85t-84 28q-54 0 -77 -23.5t-26 -82.5q-2 -29 -2 -87.5t2 -93.5h-210q-2 24 -3 72.5t1 85.5q6 154 77 224t244 70q180 0 247.5 -77
t67.5 -250l-1 -890h-216v119h-30q-29 -67 -70 -100t-113 -33zM387 144q88 0 129 98v342q-35 -11 -70 -26t-71 -38q-55 -33 -73.5 -78.5t-21.5 -103.5q-2 -42 0 -79q10 -115 107 -115zM324 -234v154h154v-154h-154z" />
    <glyph glyph-name="uni1EA2" unicode="&#x1ea2;" horiz-adv-x="816" 
d="M32 0l196 1600h360l196 -1600h-221l-38 399h-234l-37 -399h-222zM312 591h193l-34 352l-35 465h-56l-34 -465zM424 1713l5 43q5 49 -14.5 67.5t-70.5 18.5h-59v105h59q116 0 163 -44t37 -147l-5 -43h-115z" />
    <glyph glyph-name="uni1EA3" unicode="&#x1ea3;" horiz-adv-x="823" 
d="M302 -14q-115 0 -169.5 60.5t-65.5 196.5q-1 22 -1.5 47.5t0.5 47.5q9 114 64 187t192 134q48 22 96 40.5t99 34.5v205q0 57 -22 85t-84 28q-54 0 -77 -23.5t-26 -82.5q-2 -29 -2 -87.5t2 -93.5h-210q-2 24 -3 72.5t1 85.5q6 154 77 224t244 70q180 0 247.5 -77
t67.5 -250l-1 -890h-216v119h-30q-29 -67 -70 -100t-113 -33zM387 144q88 0 129 98v342q-35 -11 -70 -26t-71 -38q-55 -33 -73.5 -78.5t-21.5 -103.5q-2 -42 0 -79q10 -115 107 -115zM404 1313l5 43q5 49 -14.5 67.5t-70.5 18.5h-59v105h59q116 0 163 -44t37 -147l-5 -43
h-115z" />
    <glyph glyph-name="uni1EA4" unicode="&#x1ea4;" horiz-adv-x="816" 
d="M32 0l196 1600h360l196 -1600h-221l-38 399h-234l-37 -399h-222zM312 591h193l-34 352l-35 465h-56l-34 -465zM196 1682l147 252h130l146 -252h-145l-66 126l-67 -126h-145zM338 2014l167 252h158l-174 -252h-151z" />
    <glyph glyph-name="uni1EA5" unicode="&#x1ea5;" horiz-adv-x="823" 
d="M302 -14q-115 0 -169.5 60.5t-65.5 196.5q-1 22 -1.5 47.5t0.5 47.5q9 114 64 187t192 134q48 22 96 40.5t99 34.5v205q0 57 -22 85t-84 28q-54 0 -77 -23.5t-26 -82.5q-2 -29 -2 -87.5t2 -93.5h-210q-2 24 -3 72.5t1 85.5q6 154 77 224t244 70q180 0 247.5 -77
t67.5 -250l-1 -890h-216v119h-30q-29 -67 -70 -100t-113 -33zM387 144q88 0 129 98v342q-35 -11 -70 -26t-71 -38q-55 -33 -73.5 -78.5t-21.5 -103.5q-2 -42 0 -79q10 -115 107 -115zM203 1282l147 252h130l146 -252h-145l-66 126l-67 -126h-145zM345 1614l167 252h158
l-174 -252h-151z" />
    <glyph glyph-name="uni1EA6" unicode="&#x1ea6;" horiz-adv-x="816" 
d="M32 0l196 1600h360l196 -1600h-221l-38 399h-234l-37 -399h-222zM312 591h193l-34 352l-35 465h-56l-34 -465zM196 1682l147 252h130l146 -252h-145l-66 126l-67 -126h-145zM307 2008l-160 252h157l153 -252h-150z" />
    <glyph glyph-name="uni1EA7" unicode="&#x1ea7;" horiz-adv-x="823" 
d="M302 -14q-115 0 -169.5 60.5t-65.5 196.5q-1 22 -1.5 47.5t0.5 47.5q9 114 64 187t192 134q48 22 96 40.5t99 34.5v205q0 57 -22 85t-84 28q-54 0 -77 -23.5t-26 -82.5q-2 -29 -2 -87.5t2 -93.5h-210q-2 24 -3 72.5t1 85.5q6 154 77 224t244 70q180 0 247.5 -77
t67.5 -250l-1 -890h-216v119h-30q-29 -67 -70 -100t-113 -33zM387 144q88 0 129 98v342q-35 -11 -70 -26t-71 -38q-55 -33 -73.5 -78.5t-21.5 -103.5q-2 -42 0 -79q10 -115 107 -115zM203 1282l147 252h130l146 -252h-145l-66 126l-67 -126h-145zM314 1608l-160 252h157
l153 -252h-150z" />
    <glyph glyph-name="uni1EA8" unicode="&#x1ea8;" horiz-adv-x="816" 
d="M32 0l196 1600h360l196 -1600h-221l-38 399h-234l-37 -399h-222zM312 591h193l-34 352l-35 465h-56l-34 -465zM196 1682l147 252h130l146 -252h-145l-66 126l-67 -126h-145zM599 1928l5 43q5 49 -14.5 67.5t-70.5 18.5h-59v105h59q116 0 163 -44t37 -147l-5 -43h-115z
" />
    <glyph glyph-name="uni1EA9" unicode="&#x1ea9;" horiz-adv-x="823" 
d="M302 -14q-115 0 -169.5 60.5t-65.5 196.5q-1 22 -1.5 47.5t0.5 47.5q9 114 64 187t192 134q48 22 96 40.5t99 34.5v205q0 57 -22 85t-84 28q-54 0 -77 -23.5t-26 -82.5q-2 -29 -2 -87.5t2 -93.5h-210q-2 24 -3 72.5t1 85.5q6 154 77 224t244 70q180 0 247.5 -77
t67.5 -250l-1 -890h-216v119h-30q-29 -67 -70 -100t-113 -33zM387 144q88 0 129 98v342q-35 -11 -70 -26t-71 -38q-55 -33 -73.5 -78.5t-21.5 -103.5q-2 -42 0 -79q10 -115 107 -115zM203 1282l147 252h130l146 -252h-145l-66 126l-67 -126h-145zM606 1528l5 43
q5 49 -14.5 67.5t-70.5 18.5h-59v105h59q116 0 163 -44t37 -147l-5 -43h-115z" />
    <glyph glyph-name="uni1EAA" unicode="&#x1eaa;" horiz-adv-x="816" 
d="M32 0l196 1600h360l196 -1600h-221l-38 399h-234l-37 -399h-222zM312 591h193l-34 352l-35 465h-56l-34 -465zM196 1682l147 252h130l146 -252h-145l-66 126l-67 -126h-145zM596 2190h89q-3 -96 -49.5 -140.5t-120.5 -42.5q-51 2 -84.5 22.5t-61.5 42t-63 23.5
q-30 2 -52.5 -16.5t-26.5 -59.5h-88q7 106 55.5 149.5t118.5 40.5q55 -3 87.5 -24t58 -41.5t59.5 -21.5q37 -2 57.5 17t20.5 51z" />
    <glyph glyph-name="uni1EAB" unicode="&#x1eab;" horiz-adv-x="823" 
d="M302 -14q-115 0 -169.5 60.5t-65.5 196.5q-1 22 -1.5 47.5t0.5 47.5q9 114 64 187t192 134q48 22 96 40.5t99 34.5v205q0 57 -22 85t-84 28q-54 0 -77 -23.5t-26 -82.5q-2 -29 -2 -87.5t2 -93.5h-210q-2 24 -3 72.5t1 85.5q6 154 77 224t244 70q180 0 247.5 -77
t67.5 -250l-1 -890h-216v119h-30q-29 -67 -70 -100t-113 -33zM387 144q88 0 129 98v342q-35 -11 -70 -26t-71 -38q-55 -33 -73.5 -78.5t-21.5 -103.5q-2 -42 0 -79q10 -115 107 -115zM203 1282l147 252h130l146 -252h-145l-66 126l-67 -126h-145zM603 1790h89
q-3 -96 -49.5 -140.5t-120.5 -42.5q-51 2 -84.5 22.5t-61.5 42t-63 23.5q-30 2 -52.5 -16.5t-26.5 -59.5h-88q7 106 55.5 149.5t118.5 40.5q55 -3 87.5 -24t58 -41.5t59.5 -21.5q37 -2 57.5 17t20.5 51z" />
    <glyph glyph-name="uni1EAC" unicode="&#x1eac;" horiz-adv-x="816" 
d="M32 0l196 1600h360l196 -1600h-221l-38 399h-234l-37 -399h-222zM312 591h193l-34 352l-35 465h-56l-34 -465zM331 -234v154h154v-154h-154zM196 1682l147 252h130l146 -252h-145l-66 126l-67 -126h-145z" />
    <glyph glyph-name="uni1EAD" unicode="&#x1ead;" horiz-adv-x="823" 
d="M302 -14q-115 0 -169.5 60.5t-65.5 196.5q-1 22 -1.5 47.5t0.5 47.5q9 114 64 187t192 134q48 22 96 40.5t99 34.5v205q0 57 -22 85t-84 28q-54 0 -77 -23.5t-26 -82.5q-2 -29 -2 -87.5t2 -93.5h-210q-2 24 -3 72.5t1 85.5q6 154 77 224t244 70q180 0 247.5 -77
t67.5 -250l-1 -890h-216v119h-30q-29 -67 -70 -100t-113 -33zM387 144q88 0 129 98v342q-35 -11 -70 -26t-71 -38q-55 -33 -73.5 -78.5t-21.5 -103.5q-2 -42 0 -79q10 -115 107 -115zM324 -234v154h154v-154h-154zM203 1282l147 252h130l146 -252h-145l-66 126l-67 -126
h-145z" />
    <glyph glyph-name="uni1EAE" unicode="&#x1eae;" horiz-adv-x="816" 
d="M32 0l196 1600h360l196 -1600h-221l-38 399h-234l-37 -399h-222zM312 591h193l-34 352l-35 465h-56l-34 -465zM408 1672q-130 0 -189.5 58.5t-66.5 194.5h132q1 -75 29.5 -107.5t94.5 -32.5q67 0 95.5 32.5t28.5 107.5h132q-7 -136 -66.5 -194.5t-189.5 -58.5zM338 1985
l167 252h158l-174 -252h-151z" />
    <glyph glyph-name="uni1EAF" unicode="&#x1eaf;" horiz-adv-x="823" 
d="M302 -14q-115 0 -169.5 60.5t-65.5 196.5q-1 22 -1.5 47.5t0.5 47.5q9 114 64 187t192 134q48 22 96 40.5t99 34.5v205q0 57 -22 85t-84 28q-54 0 -77 -23.5t-26 -82.5q-2 -29 -2 -87.5t2 -93.5h-210q-2 24 -3 72.5t1 85.5q6 154 77 224t244 70q180 0 247.5 -77
t67.5 -250l-1 -890h-216v119h-30q-29 -67 -70 -100t-113 -33zM387 144q88 0 129 98v342q-35 -11 -70 -26t-71 -38q-55 -33 -73.5 -78.5t-21.5 -103.5q-2 -42 0 -79q10 -115 107 -115zM416 1272q-130 0 -189.5 58.5t-66.5 194.5h132q1 -75 29.5 -107.5t94.5 -32.5
q67 0 95.5 32.5t28.5 107.5h132q-7 -136 -66.5 -194.5t-189.5 -58.5zM346 1585l167 252h158l-174 -252h-151z" />
    <glyph glyph-name="uni1EB0" unicode="&#x1eb0;" horiz-adv-x="816" 
d="M32 0l196 1600h360l196 -1600h-221l-38 399h-234l-37 -399h-222zM312 591h193l-34 352l-35 465h-56l-34 -465zM408 1672q-130 0 -189.5 58.5t-66.5 194.5h132q1 -75 29.5 -107.5t94.5 -32.5q67 0 95.5 32.5t28.5 107.5h132q-7 -136 -66.5 -194.5t-189.5 -58.5zM312 1985
l-160 252h157l153 -252h-150z" />
    <glyph glyph-name="uni1EB1" unicode="&#x1eb1;" horiz-adv-x="823" 
d="M302 -14q-115 0 -169.5 60.5t-65.5 196.5q-1 22 -1.5 47.5t0.5 47.5q9 114 64 187t192 134q48 22 96 40.5t99 34.5v205q0 57 -22 85t-84 28q-54 0 -77 -23.5t-26 -82.5q-2 -29 -2 -87.5t2 -93.5h-210q-2 24 -3 72.5t1 85.5q6 154 77 224t244 70q180 0 247.5 -77
t67.5 -250l-1 -890h-216v119h-30q-29 -67 -70 -100t-113 -33zM387 144q88 0 129 98v342q-35 -11 -70 -26t-71 -38q-55 -33 -73.5 -78.5t-21.5 -103.5q-2 -42 0 -79q10 -115 107 -115zM416 1272q-130 0 -189.5 58.5t-66.5 194.5h132q1 -75 29.5 -107.5t94.5 -32.5
q67 0 95.5 32.5t28.5 107.5h132q-7 -136 -66.5 -194.5t-189.5 -58.5zM320 1585l-160 252h157l153 -252h-150z" />
    <glyph glyph-name="uni1EB2" unicode="&#x1eb2;" horiz-adv-x="816" 
d="M32 0l196 1600h360l196 -1600h-221l-38 399h-234l-37 -399h-222zM312 591h193l-34 352l-35 465h-56l-34 -465zM408 1672q-130 0 -189.5 58.5t-66.5 194.5h132q1 -75 29.5 -107.5t94.5 -32.5q67 0 95.5 32.5t28.5 107.5h132q-7 -136 -66.5 -194.5t-189.5 -58.5zM409 1994
l5 43q5 49 -14.5 67.5t-70.5 18.5h-59v105h59q116 0 163 -44t37 -147l-5 -43h-115z" />
    <glyph glyph-name="uni1EB3" unicode="&#x1eb3;" horiz-adv-x="823" 
d="M302 -14q-115 0 -169.5 60.5t-65.5 196.5q-1 22 -1.5 47.5t0.5 47.5q9 114 64 187t192 134q48 22 96 40.5t99 34.5v205q0 57 -22 85t-84 28q-54 0 -77 -23.5t-26 -82.5q-2 -29 -2 -87.5t2 -93.5h-210q-2 24 -3 72.5t1 85.5q6 154 77 224t244 70q180 0 247.5 -77
t67.5 -250l-1 -890h-216v119h-30q-29 -67 -70 -100t-113 -33zM387 144q88 0 129 98v342q-35 -11 -70 -26t-71 -38q-55 -33 -73.5 -78.5t-21.5 -103.5q-2 -42 0 -79q10 -115 107 -115zM416 1272q-130 0 -189.5 58.5t-66.5 194.5h132q1 -75 29.5 -107.5t94.5 -32.5
q67 0 95.5 32.5t28.5 107.5h132q-7 -136 -66.5 -194.5t-189.5 -58.5zM417 1594l5 43q5 49 -14.5 67.5t-70.5 18.5h-59v105h59q116 0 163 -44t37 -147l-5 -43h-115z" />
    <glyph glyph-name="uni1EB4" unicode="&#x1eb4;" horiz-adv-x="816" 
d="M32 0l196 1600h360l196 -1600h-221l-38 399h-234l-37 -399h-222zM312 591h193l-34 352l-35 465h-56l-34 -465zM409 1672q-130 0 -189.5 58.5t-66.5 194.5h132q1 -75 29.5 -107.5t94.5 -32.5q67 0 95.5 32.5t28.5 107.5h132q-7 -136 -66.5 -194.5t-189.5 -58.5zM597 2183
h89q-3 -96 -49.5 -140.5t-120.5 -42.5q-51 2 -84.5 22.5t-61.5 42t-63 23.5q-30 2 -52.5 -16.5t-26.5 -59.5h-88q7 106 55.5 149.5t118.5 40.5q55 -3 87.5 -24t58 -41.5t59.5 -21.5q37 -2 57.5 17t20.5 51z" />
    <glyph glyph-name="uni1EB5" unicode="&#x1eb5;" horiz-adv-x="823" 
d="M302 -14q-115 0 -169.5 60.5t-65.5 196.5q-1 22 -1.5 47.5t0.5 47.5q9 114 64 187t192 134q48 22 96 40.5t99 34.5v205q0 57 -22 85t-84 28q-54 0 -77 -23.5t-26 -82.5q-2 -29 -2 -87.5t2 -93.5h-210q-2 24 -3 72.5t1 85.5q6 154 77 224t244 70q180 0 247.5 -77
t67.5 -250l-1 -890h-216v119h-30q-29 -67 -70 -100t-113 -33zM387 144q88 0 129 98v342q-35 -11 -70 -26t-71 -38q-55 -33 -73.5 -78.5t-21.5 -103.5q-2 -42 0 -79q10 -115 107 -115zM416 1272q-130 0 -189.5 58.5t-66.5 194.5h132q1 -75 29.5 -107.5t94.5 -32.5
q67 0 95.5 32.5t28.5 107.5h132q-7 -136 -66.5 -194.5t-189.5 -58.5zM604 1783h89q-3 -96 -49.5 -140.5t-120.5 -42.5q-51 2 -84.5 22.5t-61.5 42t-63 23.5q-30 2 -52.5 -16.5t-26.5 -59.5h-88q7 106 55.5 149.5t118.5 40.5q55 -3 87.5 -24t58 -41.5t59.5 -21.5
q37 -2 57.5 17t20.5 51z" />
    <glyph glyph-name="uni1EB6" unicode="&#x1eb6;" horiz-adv-x="816" 
d="M32 0l196 1600h360l196 -1600h-221l-38 399h-234l-37 -399h-222zM312 591h193l-34 352l-35 465h-56l-34 -465zM331 -234v154h154v-154h-154zM408 1672q-130 0 -189.5 58.5t-66.5 194.5h132q1 -75 29.5 -107.5t94.5 -32.5q67 0 95.5 32.5t28.5 107.5h132
q-7 -136 -66.5 -194.5t-189.5 -58.5z" />
    <glyph glyph-name="uni1EB7" unicode="&#x1eb7;" horiz-adv-x="823" 
d="M302 -14q-115 0 -169.5 60.5t-65.5 196.5q-1 22 -1.5 47.5t0.5 47.5q9 114 64 187t192 134q48 22 96 40.5t99 34.5v205q0 57 -22 85t-84 28q-54 0 -77 -23.5t-26 -82.5q-2 -29 -2 -87.5t2 -93.5h-210q-2 24 -3 72.5t1 85.5q6 154 77 224t244 70q180 0 247.5 -77
t67.5 -250l-1 -890h-216v119h-30q-29 -67 -70 -100t-113 -33zM387 144q88 0 129 98v342q-35 -11 -70 -26t-71 -38q-55 -33 -73.5 -78.5t-21.5 -103.5q-2 -42 0 -79q10 -115 107 -115zM324 -234v154h154v-154h-154zM416 1272q-130 0 -189.5 58.5t-66.5 194.5h132
q1 -75 29.5 -107.5t94.5 -32.5q67 0 95.5 32.5t28.5 107.5h132q-7 -136 -66.5 -194.5t-189.5 -58.5z" />
    <glyph glyph-name="uni1EB8" unicode="&#x1eb8;" horiz-adv-x="709" 
d="M93 0v1600h572v-192h-356v-502h336v-192h-336v-522h356v-192h-572zM288 -234v154h154v-154h-154z" />
    <glyph glyph-name="uni1EB9" unicode="&#x1eb9;" horiz-adv-x="801" 
d="M413 -17q-170 0 -247 69.5t-85 230.5q-2 57 -3 139.5t-1 173t1 174.5t3 144q10 163 86.5 233t243.5 70q164 0 238.5 -68.5t82.5 -225.5q1 -27 1.5 -84.5t0 -131t-3.5 -146.5h-436q0 -73 1.5 -147.5t2.5 -152.5q2 -63 28.5 -88t85.5 -25q56 0 80 25t27 88t0 178h211
q2 -28 2.5 -74t-0.5 -82q-8 -161 -81 -230.5t-238 -69.5zM294 716h227q1 74 0.5 140t-2.5 90q-3 57 -28 81.5t-80 24.5q-60 0 -85.5 -24.5t-27.5 -81.5q-1 -62 -2 -118.5t-2 -111.5zM329 -234v154h154v-154h-154z" />
    <glyph glyph-name="uni1EBA" unicode="&#x1eba;" horiz-adv-x="709" 
d="M93 0v1600h572v-192h-356v-502h336v-192h-336v-522h356v-192h-572zM379 1713l5 43q5 49 -14.5 67.5t-70.5 18.5h-59v105h59q116 0 163 -44t37 -147l-5 -43h-115z" />
    <glyph glyph-name="uni1EBB" unicode="&#x1ebb;" horiz-adv-x="801" 
d="M413 -17q-170 0 -247 69.5t-85 230.5q-2 57 -3 139.5t-1 173t1 174.5t3 144q10 163 86.5 233t243.5 70q164 0 238.5 -68.5t82.5 -225.5q1 -27 1.5 -84.5t0 -131t-3.5 -146.5h-436q0 -73 1.5 -147.5t2.5 -152.5q2 -63 28.5 -88t85.5 -25q56 0 80 25t27 88t0 178h211
q2 -28 2.5 -74t-0.5 -82q-8 -161 -81 -230.5t-238 -69.5zM294 716h227q1 74 0.5 140t-2.5 90q-3 57 -28 81.5t-80 24.5q-60 0 -85.5 -24.5t-27.5 -81.5q-1 -62 -2 -118.5t-2 -111.5zM423 1313l5 43q5 49 -14.5 67.5t-70.5 18.5h-59v105h59q116 0 163 -44t37 -147l-5 -43
h-115z" />
    <glyph glyph-name="uni1EBC" unicode="&#x1ebc;" horiz-adv-x="709" 
d="M93 0v1600h572v-192h-356v-502h336v-192h-336v-522h356v-192h-572zM553 1856h89q-3 -96 -49.5 -140.5t-120.5 -42.5q-51 2 -84.5 22.5t-61.5 42t-63 23.5q-30 2 -52.5 -16.5t-26.5 -59.5h-88q7 106 55.5 149.5t118.5 40.5q55 -3 87.5 -24t58 -41.5t59.5 -21.5
q37 -2 57.5 17t20.5 51z" />
    <glyph glyph-name="uni1EBD" unicode="&#x1ebd;" horiz-adv-x="801" 
d="M413 -17q-170 0 -247 69.5t-85 230.5q-2 57 -3 139.5t-1 173t1 174.5t3 144q10 163 86.5 233t243.5 70q164 0 238.5 -68.5t82.5 -225.5q1 -27 1.5 -84.5t0 -131t-3.5 -146.5h-436q0 -73 1.5 -147.5t2.5 -152.5q2 -63 28.5 -88t85.5 -25q56 0 80 25t27 88t0 178h211
q2 -28 2.5 -74t-0.5 -82q-8 -161 -81 -230.5t-238 -69.5zM294 716h227q1 74 0.5 140t-2.5 90q-3 57 -28 81.5t-80 24.5q-60 0 -85.5 -24.5t-27.5 -81.5q-1 -62 -2 -118.5t-2 -111.5zM595 1456h89q-3 -96 -49.5 -140.5t-120.5 -42.5q-51 2 -84.5 22.5t-61.5 42t-63 23.5
q-30 2 -52.5 -16.5t-26.5 -59.5h-88q7 106 55.5 149.5t118.5 40.5q55 -3 87.5 -24t58 -41.5t59.5 -21.5q37 -2 57.5 17t20.5 51z" />
    <glyph glyph-name="uni1EBE" unicode="&#x1ebe;" horiz-adv-x="709" 
d="M93 0v1600h572v-192h-356v-502h336v-192h-336v-522h356v-192h-572zM152 1682l147 252h130l146 -252h-145l-66 126l-67 -126h-145zM294 2014l167 252h158l-174 -252h-151z" />
    <glyph glyph-name="uni1EBF" unicode="&#x1ebf;" horiz-adv-x="801" 
d="M413 -17q-170 0 -247 69.5t-85 230.5q-2 57 -3 139.5t-1 173t1 174.5t3 144q10 163 86.5 233t243.5 70q164 0 238.5 -68.5t82.5 -225.5q1 -27 1.5 -84.5t0 -131t-3.5 -146.5h-436q0 -73 1.5 -147.5t2.5 -152.5q2 -63 28.5 -88t85.5 -25q56 0 80 25t27 88t0 178h211
q2 -28 2.5 -74t-0.5 -82q-8 -161 -81 -230.5t-238 -69.5zM294 716h227q1 74 0.5 140t-2.5 90q-3 57 -28 81.5t-80 24.5q-60 0 -85.5 -24.5t-27.5 -81.5q-1 -62 -2 -118.5t-2 -111.5zM194 1282l147 252h130l146 -252h-145l-66 126l-67 -126h-145zM336 1614l167 252h158
l-174 -252h-151z" />
    <glyph glyph-name="uni1EC0" unicode="&#x1ec0;" horiz-adv-x="709" 
d="M93 0v1600h572v-192h-356v-502h336v-192h-336v-522h356v-192h-572zM152 1682l147 252h130l146 -252h-145l-66 126l-67 -126h-145zM263 2008l-160 252h157l153 -252h-150z" />
    <glyph glyph-name="uni1EC1" unicode="&#x1ec1;" horiz-adv-x="801" 
d="M413 -17q-170 0 -247 69.5t-85 230.5q-2 57 -3 139.5t-1 173t1 174.5t3 144q10 163 86.5 233t243.5 70q164 0 238.5 -68.5t82.5 -225.5q1 -27 1.5 -84.5t0 -131t-3.5 -146.5h-436q0 -73 1.5 -147.5t2.5 -152.5q2 -63 28.5 -88t85.5 -25q56 0 80 25t27 88t0 178h211
q2 -28 2.5 -74t-0.5 -82q-8 -161 -81 -230.5t-238 -69.5zM294 716h227q1 74 0.5 140t-2.5 90q-3 57 -28 81.5t-80 24.5q-60 0 -85.5 -24.5t-27.5 -81.5q-1 -62 -2 -118.5t-2 -111.5zM194 1282l147 252h130l146 -252h-145l-66 126l-67 -126h-145zM305 1608l-160 252h157
l153 -252h-150z" />
    <glyph glyph-name="uni1EC2" unicode="&#x1ec2;" horiz-adv-x="709" 
d="M93 0v1600h572v-192h-356v-502h336v-192h-336v-522h356v-192h-572zM152 1682l147 252h130l146 -252h-145l-66 126l-67 -126h-145zM555 1928l5 43q5 49 -14.5 67.5t-70.5 18.5h-59v105h59q116 0 163 -44t37 -147l-5 -43h-115z" />
    <glyph glyph-name="uni1EC3" unicode="&#x1ec3;" horiz-adv-x="801" 
d="M413 -17q-170 0 -247 69.5t-85 230.5q-2 57 -3 139.5t-1 173t1 174.5t3 144q10 163 86.5 233t243.5 70q164 0 238.5 -68.5t82.5 -225.5q1 -27 1.5 -84.5t0 -131t-3.5 -146.5h-436q0 -73 1.5 -147.5t2.5 -152.5q2 -63 28.5 -88t85.5 -25q56 0 80 25t27 88t0 178h211
q2 -28 2.5 -74t-0.5 -82q-8 -161 -81 -230.5t-238 -69.5zM294 716h227q1 74 0.5 140t-2.5 90q-3 57 -28 81.5t-80 24.5q-60 0 -85.5 -24.5t-27.5 -81.5q-1 -62 -2 -118.5t-2 -111.5zM194 1282l147 252h130l146 -252h-145l-66 126l-67 -126h-145zM597 1528l5 43
q5 49 -14.5 67.5t-70.5 18.5h-59v105h59q116 0 163 -44t37 -147l-5 -43h-115z" />
    <glyph glyph-name="uni1EC4" unicode="&#x1ec4;" horiz-adv-x="709" 
d="M93 0v1600h572v-192h-356v-502h336v-192h-336v-522h356v-192h-572zM151 1682l147 252h130l146 -252h-145l-66 126l-67 -126h-145zM551 2190h89q-3 -96 -49.5 -140.5t-120.5 -42.5q-51 2 -84.5 22.5t-61.5 42t-63 23.5q-30 2 -52.5 -16.5t-26.5 -59.5h-88
q7 106 55.5 149.5t118.5 40.5q55 -3 87.5 -24t58 -41.5t59.5 -21.5q37 -2 57.5 17t20.5 51z" />
    <glyph glyph-name="uni1EC5" unicode="&#x1ec5;" horiz-adv-x="801" 
d="M413 -17q-170 0 -247 69.5t-85 230.5q-2 57 -3 139.5t-1 173t1 174.5t3 144q10 163 86.5 233t243.5 70q164 0 238.5 -68.5t82.5 -225.5q1 -27 1.5 -84.5t0 -131t-3.5 -146.5h-436q0 -73 1.5 -147.5t2.5 -152.5q2 -63 28.5 -88t85.5 -25q56 0 80 25t27 88t0 178h211
q2 -28 2.5 -74t-0.5 -82q-8 -161 -81 -230.5t-238 -69.5zM294 716h227q1 74 0.5 140t-2.5 90q-3 57 -28 81.5t-80 24.5q-60 0 -85.5 -24.5t-27.5 -81.5q-1 -62 -2 -118.5t-2 -111.5zM194 1282l147 252h130l146 -252h-145l-66 126l-67 -126h-145zM594 1790h89
q-3 -96 -49.5 -140.5t-120.5 -42.5q-51 2 -84.5 22.5t-61.5 42t-63 23.5q-30 2 -52.5 -16.5t-26.5 -59.5h-88q7 106 55.5 149.5t118.5 40.5q55 -3 87.5 -24t58 -41.5t59.5 -21.5q37 -2 57.5 17t20.5 51z" />
    <glyph glyph-name="uni1EC6" unicode="&#x1ec6;" horiz-adv-x="709" 
d="M93 0v1600h572v-192h-356v-502h336v-192h-336v-522h356v-192h-572zM288 -234v154h154v-154h-154zM152 1682l147 252h130l146 -252h-145l-66 126l-67 -126h-145z" />
    <glyph glyph-name="uni1EC7" unicode="&#x1ec7;" horiz-adv-x="801" 
d="M413 -17q-170 0 -247 69.5t-85 230.5q-2 57 -3 139.5t-1 173t1 174.5t3 144q10 163 86.5 233t243.5 70q164 0 238.5 -68.5t82.5 -225.5q1 -27 1.5 -84.5t0 -131t-3.5 -146.5h-436q0 -73 1.5 -147.5t2.5 -152.5q2 -63 28.5 -88t85.5 -25q56 0 80 25t27 88t0 178h211
q2 -28 2.5 -74t-0.5 -82q-8 -161 -81 -230.5t-238 -69.5zM294 716h227q1 74 0.5 140t-2.5 90q-3 57 -28 81.5t-80 24.5q-60 0 -85.5 -24.5t-27.5 -81.5q-1 -62 -2 -118.5t-2 -111.5zM329 -234v154h154v-154h-154zM194 1282l147 252h130l146 -252h-145l-66 126l-67 -126h-145
z" />
    <glyph glyph-name="uni1EC8" unicode="&#x1ec8;" horiz-adv-x="402" 
d="M93 0v1600h216v-1600h-216zM202 1713l5 43q5 49 -14.5 67.5t-70.5 18.5h-59v105h59q116 0 163 -44t37 -147l-5 -43h-115z" />
    <glyph glyph-name="uni1EC9" unicode="&#x1ec9;" horiz-adv-x="408" 
d="M96 0v1200h216v-1200h-216zM202 1313l5 43q5 49 -14.5 67.5t-70.5 18.5h-59v105h59q116 0 163 -44t37 -147l-5 -43h-115z" />
    <glyph glyph-name="uni1ECA" unicode="&#x1eca;" horiz-adv-x="402" 
d="M93 0v1600h216v-1600h-216zM123 -234v154h154v-154h-154z" />
    <glyph glyph-name="uni1ECB" unicode="&#x1ecb;" horiz-adv-x="408" 
d="M76 1407v193h255v-193h-255zM97 0v1200h216v-1200h-216zM127 -234v154h154v-154h-154z" />
    <glyph glyph-name="uni1ECC" unicode="&#x1ecc;" horiz-adv-x="856" 
d="M428 -17q-180 0 -259.5 76.5t-82.5 254.5q-11 486 0 973q3 177 82.5 253.5t259.5 76.5t258 -76.5t83 -253.5q13 -489 0 -973q-5 -178 -83 -254.5t-258 -76.5zM428 162q122 0 125 114q6 166 7.5 346.5t-0.5 360t-7 342.5q-3 114 -125 114q-123 0 -126 -114
q-6 -163 -8 -342.5t0 -360t8 -346.5q3 -114 126 -114zM352 -234v154h154v-154h-154z" />
    <glyph glyph-name="uni1ECD" unicode="&#x1ecd;" horiz-adv-x="835" 
d="M418 -17q-180 0 -253.5 76t-82.5 255q-2 76 -3.5 180t-0.5 208.5t4 184.5q9 177 82 253.5t254 76.5q182 0 253.5 -77t81.5 -253q2 -77 3.5 -180.5t0.5 -208t-4 -184.5q-10 -176 -81.5 -253.5t-253.5 -77.5zM418 148q63 0 90 27t28 87q6 176 6 338.5t-6 338.5
q-1 59 -27.5 86t-90.5 27q-62 0 -90 -27t-30 -86q-5 -176 -5 -339.5t5 -337.5q2 -60 30 -87t90 -27zM340 -234v154h154v-154h-154z" />
    <glyph glyph-name="uni1ECE" unicode="&#x1ece;" horiz-adv-x="856" 
d="M428 -17q-180 0 -259.5 76.5t-82.5 254.5q-11 486 0 973q3 177 82.5 253.5t259.5 76.5t258 -76.5t83 -253.5q13 -489 0 -973q-5 -178 -83 -254.5t-258 -76.5zM428 162q122 0 125 114q6 166 7.5 346.5t-0.5 360t-7 342.5q-3 114 -125 114q-123 0 -126 -114
q-6 -163 -8 -342.5t0 -360t8 -346.5q3 -114 126 -114zM442 1713l5 43q5 49 -14.5 67.5t-70.5 18.5h-59v105h59q116 0 163 -44t37 -147l-5 -43h-115z" />
    <glyph glyph-name="uni1ECF" unicode="&#x1ecf;" horiz-adv-x="835" 
d="M418 -17q-180 0 -253.5 76t-82.5 255q-2 76 -3.5 180t-0.5 208.5t4 184.5q9 177 82 253.5t254 76.5q182 0 253.5 -77t81.5 -253q2 -77 3.5 -180.5t0.5 -208t-4 -184.5q-10 -176 -81.5 -253.5t-253.5 -77.5zM418 148q63 0 90 27t28 87q6 176 6 338.5t-6 338.5
q-1 59 -27.5 86t-90.5 27q-62 0 -90 -27t-30 -86q-5 -176 -5 -339.5t5 -337.5q2 -60 30 -87t90 -27zM434 1313l5 43q5 49 -14.5 67.5t-70.5 18.5h-59v105h59q116 0 163 -44t37 -147l-5 -43h-115z" />
    <glyph glyph-name="uni1ED0" unicode="&#x1ed0;" horiz-adv-x="856" 
d="M428 -17q-180 0 -259.5 76.5t-82.5 254.5q-11 486 0 973q3 177 82.5 253.5t259.5 76.5t258 -76.5t83 -253.5q13 -489 0 -973q-5 -178 -83 -254.5t-258 -76.5zM428 162q122 0 125 114q6 166 7.5 346.5t-0.5 360t-7 342.5q-3 114 -125 114q-123 0 -126 -114
q-6 -163 -8 -342.5t0 -360t8 -346.5q3 -114 126 -114zM217 1682l147 252h130l146 -252h-145l-66 126l-67 -126h-145zM359 2014l167 252h158l-174 -252h-151z" />
    <glyph glyph-name="uni1ED1" unicode="&#x1ed1;" horiz-adv-x="835" 
d="M418 -17q-180 0 -253.5 76t-82.5 255q-2 76 -3.5 180t-0.5 208.5t4 184.5q9 177 82 253.5t254 76.5q182 0 253.5 -77t81.5 -253q2 -77 3.5 -180.5t0.5 -208t-4 -184.5q-10 -176 -81.5 -253.5t-253.5 -77.5zM418 148q63 0 90 27t28 87q6 176 6 338.5t-6 338.5
q-1 59 -27.5 86t-90.5 27q-62 0 -90 -27t-30 -86q-5 -176 -5 -339.5t5 -337.5q2 -60 30 -87t90 -27zM205 1282l147 252h130l146 -252h-145l-66 126l-67 -126h-145zM347 1614l167 252h158l-174 -252h-151z" />
    <glyph glyph-name="uni1ED2" unicode="&#x1ed2;" horiz-adv-x="856" 
d="M428 -17q-180 0 -259.5 76.5t-82.5 254.5q-11 486 0 973q3 177 82.5 253.5t259.5 76.5t258 -76.5t83 -253.5q13 -489 0 -973q-5 -178 -83 -254.5t-258 -76.5zM428 162q122 0 125 114q6 166 7.5 346.5t-0.5 360t-7 342.5q-3 114 -125 114q-123 0 -126 -114
q-6 -163 -8 -342.5t0 -360t8 -346.5q3 -114 126 -114zM217 1682l147 252h130l146 -252h-145l-66 126l-67 -126h-145zM328 2008l-160 252h157l153 -252h-150z" />
    <glyph glyph-name="uni1ED3" unicode="&#x1ed3;" horiz-adv-x="835" 
d="M418 -17q-180 0 -253.5 76t-82.5 255q-2 76 -3.5 180t-0.5 208.5t4 184.5q9 177 82 253.5t254 76.5q182 0 253.5 -77t81.5 -253q2 -77 3.5 -180.5t0.5 -208t-4 -184.5q-10 -176 -81.5 -253.5t-253.5 -77.5zM418 148q63 0 90 27t28 87q6 176 6 338.5t-6 338.5
q-1 59 -27.5 86t-90.5 27q-62 0 -90 -27t-30 -86q-5 -176 -5 -339.5t5 -337.5q2 -60 30 -87t90 -27zM206 1282l147 252h130l146 -252h-145l-66 126l-67 -126h-145zM317 1608l-160 252h157l153 -252h-150z" />
    <glyph glyph-name="uni1ED4" unicode="&#x1ed4;" horiz-adv-x="856" 
d="M428 -17q-180 0 -259.5 76.5t-82.5 254.5q-11 486 0 973q3 177 82.5 253.5t259.5 76.5t258 -76.5t83 -253.5q13 -489 0 -973q-5 -178 -83 -254.5t-258 -76.5zM428 162q122 0 125 114q6 166 7.5 346.5t-0.5 360t-7 342.5q-3 114 -125 114q-123 0 -126 -114
q-6 -163 -8 -342.5t0 -360t8 -346.5q3 -114 126 -114zM217 1682l147 252h130l146 -252h-145l-66 126l-67 -126h-145zM620 1928l5 43q5 49 -14.5 67.5t-70.5 18.5h-59v105h59q116 0 163 -44t37 -147l-5 -43h-115z" />
    <glyph glyph-name="uni1ED5" unicode="&#x1ed5;" horiz-adv-x="835" 
d="M418 -17q-180 0 -253.5 76t-82.5 255q-2 76 -3.5 180t-0.5 208.5t4 184.5q9 177 82 253.5t254 76.5q182 0 253.5 -77t81.5 -253q2 -77 3.5 -180.5t0.5 -208t-4 -184.5q-10 -176 -81.5 -253.5t-253.5 -77.5zM418 148q63 0 90 27t28 87q6 176 6 338.5t-6 338.5
q-1 59 -27.5 86t-90.5 27q-62 0 -90 -27t-30 -86q-5 -176 -5 -339.5t5 -337.5q2 -60 30 -87t90 -27zM205 1282l147 252h130l146 -252h-145l-66 126l-67 -126h-145zM608 1528l5 43q5 49 -14.5 67.5t-70.5 18.5h-59v105h59q116 0 163 -44t37 -147l-5 -43h-115z" />
    <glyph glyph-name="uni1ED6" unicode="&#x1ed6;" horiz-adv-x="856" 
d="M428 -17q-180 0 -259.5 76.5t-82.5 254.5q-11 486 0 973q3 177 82.5 253.5t259.5 76.5t258 -76.5t83 -253.5q13 -489 0 -973q-5 -178 -83 -254.5t-258 -76.5zM428 162q122 0 125 114q6 166 7.5 346.5t-0.5 360t-7 342.5q-3 114 -125 114q-123 0 -126 -114
q-6 -163 -8 -342.5t0 -360t8 -346.5q3 -114 126 -114zM216 1682l147 252h130l146 -252h-145l-66 126l-67 -126h-145zM616 2190h89q-3 -96 -49.5 -140.5t-120.5 -42.5q-51 2 -84.5 22.5t-61.5 42t-63 23.5q-30 2 -52.5 -16.5t-26.5 -59.5h-88q7 106 55.5 149.5t118.5 40.5
q55 -3 87.5 -24t58 -41.5t59.5 -21.5q37 -2 57.5 17t20.5 51z" />
    <glyph glyph-name="uni1ED7" unicode="&#x1ed7;" horiz-adv-x="835" 
d="M418 -17q-180 0 -253.5 76t-82.5 255q-2 76 -3.5 180t-0.5 208.5t4 184.5q9 177 82 253.5t254 76.5q182 0 253.5 -77t81.5 -253q2 -77 3.5 -180.5t0.5 -208t-4 -184.5q-10 -176 -81.5 -253.5t-253.5 -77.5zM418 148q63 0 90 27t28 87q6 176 6 338.5t-6 338.5
q-1 59 -27.5 86t-90.5 27q-62 0 -90 -27t-30 -86q-5 -176 -5 -339.5t5 -337.5q2 -60 30 -87t90 -27zM205 1282l147 252h130l146 -252h-145l-66 126l-67 -126h-145zM605 1790h89q-3 -96 -49.5 -140.5t-120.5 -42.5q-51 2 -84.5 22.5t-61.5 42t-63 23.5q-30 2 -52.5 -16.5
t-26.5 -59.5h-88q7 106 55.5 149.5t118.5 40.5q55 -3 87.5 -24t58 -41.5t59.5 -21.5q37 -2 57.5 17t20.5 51z" />
    <glyph glyph-name="uni1ED8" unicode="&#x1ed8;" horiz-adv-x="856" 
d="M428 -17q-180 0 -259.5 76.5t-82.5 254.5q-11 486 0 973q3 177 82.5 253.5t259.5 76.5t258 -76.5t83 -253.5q13 -489 0 -973q-5 -178 -83 -254.5t-258 -76.5zM428 162q122 0 125 114q6 166 7.5 346.5t-0.5 360t-7 342.5q-3 114 -125 114q-123 0 -126 -114
q-6 -163 -8 -342.5t0 -360t8 -346.5q3 -114 126 -114zM352 -234v154h154v-154h-154zM217 1682l147 252h130l146 -252h-145l-66 126l-67 -126h-145z" />
    <glyph glyph-name="uni1ED9" unicode="&#x1ed9;" horiz-adv-x="835" 
d="M418 -17q-180 0 -253.5 76t-82.5 255q-2 76 -3.5 180t-0.5 208.5t4 184.5q9 177 82 253.5t254 76.5q182 0 253.5 -77t81.5 -253q2 -77 3.5 -180.5t0.5 -208t-4 -184.5q-10 -176 -81.5 -253.5t-253.5 -77.5zM418 148q63 0 90 27t28 87q6 176 6 338.5t-6 338.5
q-1 59 -27.5 86t-90.5 27q-62 0 -90 -27t-30 -86q-5 -176 -5 -339.5t5 -337.5q2 -60 30 -87t90 -27zM340 -234v154h154v-154h-154zM205 1282l147 252h130l146 -252h-145l-66 126l-67 -126h-145z" />
    <glyph glyph-name="uni1EDA" unicode="&#x1eda;" horiz-adv-x="1069" 
d="M428 -17q-180 0 -259.5 76.5t-82.5 254.5q-11 486 0 973q3 177 82.5 253.5t259.5 76.5t258 -76.5t83 -253.5q13 -489 0 -973q-5 -178 -83 -254.5t-258 -76.5zM428 162q122 0 125 114q6 166 7.5 346.5t-0.5 360t-7 342.5q-3 114 -125 114q-123 0 -126 -114
q-6 -163 -8 -342.5t0 -360t8 -346.5q3 -114 126 -114zM738 1173q-16 0 -34 0.5t-32 3.5v108q17 -1 33.5 -2t32.5 0q72 3 102.5 36t34.5 107q1 19 1.5 53t0 68t-1.5 53h120q1 -19 1 -53v-68t-1 -53q-8 -136 -67 -194.5t-190 -58.5zM360 1680l167 252h158l-174 -252h-151z" />
    <glyph glyph-name="uni1EDB" unicode="&#x1edb;" horiz-adv-x="1008" 
d="M418 -17q-180 0 -253.5 76t-82.5 255q-2 76 -3.5 180t-0.5 208.5t4 184.5q9 177 82 253.5t254 76.5q182 0 253.5 -77t81.5 -253q2 -77 3.5 -180.5t0.5 -208t-4 -184.5q-10 -176 -81.5 -253.5t-253.5 -77.5zM418 148q63 0 90 27t28 87q6 176 6 338.5t-6 338.5
q-1 59 -27.5 86t-90.5 27q-62 0 -90 -27t-30 -86q-5 -176 -5 -339.5t5 -337.5q2 -60 30 -87t90 -27zM718 773q-16 0 -34 0.5t-32 3.5v108q17 -1 33.5 -2t32.5 0q72 3 102.5 36t34.5 107q1 19 1.5 53t0 68t-1.5 53h120q1 -19 1 -53v-68t-1 -53q-8 -136 -67 -194.5t-190 -58.5
zM348 1280l167 252h158l-174 -252h-151z" />
    </font>
</defs>
</svg>
